<svg width="28" height="28" viewBox="0 0 28 28" fill="none" xmlns="http://www.w3.org/2000/svg">
<path d="M15.2447 4.17547C16.8873 2.01055 19.1708 2 19.1708 2C19.1708 2 19.5104 4.03539 17.8787 5.99612C16.1363 8.08975 14.1559 7.74716 14.1559 7.74716C14.1559 7.74716 13.7841 6.1006 15.2447 4.17547ZM14.3648 9.17295C15.2099 9.17295 16.7781 8.01139 18.8195 8.01139C22.3333 8.01139 23.7156 10.5117 23.7156 10.5117C23.7156 10.5117 21.012 11.894 21.012 15.2481C21.012 19.0318 24.38 20.3357 24.38 20.3357C24.38 20.3357 22.0257 26.9623 18.8456 26.9623C17.3851 26.9623 16.2496 25.978 14.7106 25.978C13.1423 25.978 11.586 26.999 10.5724 26.999C7.66857 26.9991 4 20.7131 4 15.6602C4 10.6889 7.1052 8.08104 10.0178 8.08104C11.9112 8.08104 13.3805 9.17295 14.3648 9.17295Z" fill="white"/>
</svg>
