<svg width="25" height="24" viewBox="0 0 25 24" fill="none" xmlns="http://www.w3.org/2000/svg">
<g clip-path="url(#clip0_1248_35101)">
<path d="M1.03711 7.26562H20.7245" stroke="#2A8DFF" stroke-width="1.5" stroke-miterlimit="10" stroke-linecap="round" stroke-linejoin="round"/>
<path d="M4.31836 0.703136V4.45312" stroke="#2A8DFF" stroke-width="1.5" stroke-miterlimit="10" stroke-linecap="round" stroke-linejoin="round"/>
<path d="M7.13086 0.703136V4.45312" stroke="#2A8DFF" stroke-width="1.5" stroke-miterlimit="10" stroke-linecap="round" stroke-linejoin="round"/>
<path d="M17.4434 0.703136V4.45312" stroke="#2A8DFF" stroke-width="1.5" stroke-miterlimit="10" stroke-linecap="round" stroke-linejoin="round"/>
<path d="M14.6309 0.703136V4.45312" stroke="#2A8DFF" stroke-width="1.5" stroke-miterlimit="10" stroke-linecap="round" stroke-linejoin="round"/>
<path d="M23.6308 19.0781C23.6308 16.7482 21.7421 14.8594 19.4121 14.8594C17.0821 14.8594 15.1934 16.7482 15.1934 19.0781C15.1934 21.4081 17.0821 23.2969 19.4121 23.2969C21.7421 23.2969 23.6308 21.4081 23.6308 19.0781Z" stroke="#2A8DFF" stroke-width="1.5" stroke-miterlimit="10" stroke-linecap="round" stroke-linejoin="round"/>
<path d="M20.7245 15.0679V3.98443C20.7245 3.2078 20.0949 2.57818 19.3183 2.57818H2.44336C1.66673 2.57818 1.03711 3.2078 1.03711 3.98443V19.9219C1.03711 20.6985 1.66673 21.3281 2.44336 21.3281H15.843" stroke="#2A8DFF" stroke-width="1.5" stroke-miterlimit="10" stroke-linecap="round" stroke-linejoin="round"/>
<path d="M19.4121 17.6719V19.0781H18.0059" stroke="#2A8DFF" stroke-width="1.5" stroke-miterlimit="10" stroke-linecap="round" stroke-linejoin="round"/>
<path d="M6.6621 12.8906H3.84961V10.0781H6.6621V12.8906ZM6.6621 18.5156H3.84961V15.7031H6.6621V18.5156ZM12.2871 12.8906H9.47459V10.0781H12.2871V12.8906ZM17.9121 12.8906H15.0996V10.0781H17.9121V12.8906ZM12.2871 18.5156H9.47459V15.7031H12.2871V18.5156Z" stroke="#2A8DFF" stroke-width="1.5" stroke-miterlimit="10" stroke-linecap="round" stroke-linejoin="round"/>
</g>
<defs>
<clipPath id="clip0_1248_35101">
<rect width="24" height="24" fill="white" transform="translate(0.333984)"/>
</clipPath>
</defs>
</svg>
