<svg width="28" height="28" viewBox="0 0 28 28" fill="none" xmlns="http://www.w3.org/2000/svg">
<path d="M12.25 24.3833C7.29167 23.5083 3.5 19.1917 3.5 14C3.5 8.225 8.225 3.5 14 3.5C19.775 3.5 24.5 8.225 24.5 14C24.5 19.1917 20.7083 23.5083 15.75 24.3833L15.1667 23.9167H12.8333L12.25 24.3833Z" fill="white"/>
<path d="M18.0833 16.9168L18.55 14.0002H15.75V11.9585C15.75 11.1418 16.0417 10.5002 17.325 10.5002H18.6667V7.81683C17.9083 7.70016 17.0917 7.5835 16.3333 7.5835C13.9417 7.5835 12.25 9.04183 12.25 11.6668V14.0002H9.625V16.9168H12.25V24.3252C12.8333 24.4418 13.4167 24.5002 14 24.5002C14.5833 24.5002 15.1667 24.4418 15.75 24.3252V16.9168H18.0833Z" fill="#0C6FF9"/>
</svg>
