<svg width="28" height="28" viewBox="0 0 28 28" fill="none" xmlns="http://www.w3.org/2000/svg">
<path fill-rule="evenodd" clip-rule="evenodd" d="M23.52 14.2257C23.52 13.5225 23.4569 12.8464 23.3397 12.1973H14V16.0332H19.337C19.1071 17.2728 18.4084 18.3231 17.3581 19.0263V21.5144H20.563C22.4382 19.788 23.52 17.2458 23.52 14.2257Z" fill="#4285F4"/>
<path fill-rule="evenodd" clip-rule="evenodd" d="M13.9986 23.9168C16.6761 23.9168 18.9209 23.0288 20.5617 21.5142L17.3568 19.0261C16.4688 19.6211 15.3329 19.9727 13.9986 19.9727C11.4158 19.9727 9.2296 18.2282 8.44979 15.8843H5.13672V18.4536C6.76846 21.6946 10.1221 23.9168 13.9986 23.9168Z" fill="#34A853"/>
<path fill-rule="evenodd" clip-rule="evenodd" d="M8.44988 15.8845C8.25155 15.2895 8.13886 14.654 8.13886 14.0004C8.13886 13.3468 8.25155 12.7112 8.44988 12.1162V9.54688H5.13681C4.46518 10.8856 4.08203 12.4002 4.08203 14.0004C4.08203 15.6006 4.46518 17.1151 5.13681 18.4539L8.44988 15.8845Z" fill="#FBBC05"/>
<path fill-rule="evenodd" clip-rule="evenodd" d="M13.9986 8.02763C15.4546 8.02763 16.7618 8.52797 17.7895 9.51063L20.6338 6.66634C18.9164 5.06615 16.6716 4.0835 13.9986 4.0835C10.1221 4.0835 6.76846 6.30573 5.13672 9.54669L8.44979 12.116C9.2296 9.77207 11.4158 8.02763 13.9986 8.02763Z" fill="#EA4335"/>
</svg>
