<svg width="30" height="30" viewBox="0 0 30 30" fill="none" xmlns="http://www.w3.org/2000/svg">
<g clip-path="url(#clip0_576_13682)">
<path d="M15.1027 30C23.4027 30 30.1027 23.3 30.1027 15C30.1027 6.7 23.4027 0 15.1027 0C6.80265 0 0.102652 6.7 0.102652 15C0.00265152 23.3 6.80265 30 15.1027 30Z" fill="#FED42B"/>
<mask id="mask0_576_13682" style="mask-type:luminance" maskUnits="userSpaceOnUse" x="0" y="0" width="31" height="30">
<path d="M15.1027 30C23.4027 30 30.1027 23.3 30.1027 15C30.1027 6.7 23.4027 0 15.1027 0C6.80265 0 0.102652 6.7 0.102652 15C0.00265152 23.3 6.80265 30 15.1027 30Z" fill="white"/>
</mask>
<g mask="url(#mask0_576_13682)">
<path d="M7.7 8.19961L-5.5 25.4996L-2 29.4996L7.8 16.4996L6.8 23.5996L12.3 25.4996L19 14.7996C18.7 16.7996 18.2 21.3996 22.6 22.7996C29.5 24.8996 35.5 12.4996 38.3 6.19961L34.3 4.09961C31.2 10.5996 26.4 17.7996 24.5 17.2996C22.6 16.7996 24.3 10.6996 25.4 6.79961V6.69961L19.3 4.59961L12 16.4996L13 9.99961L7.7 8.19961Z" fill="black"/>
</g>
</g>
<defs>
<clipPath id="clip0_576_13682">
<rect width="30" height="30" fill="white"/>
</clipPath>
</defs>
</svg>
