<svg width="29" height="28" viewBox="0 0 29 28" fill="none" xmlns="http://www.w3.org/2000/svg">
<path d="M14.7393 13.8703C18.0177 13.8692 20.6732 11.2105 20.6721 7.93303C20.6711 4.65453 18.0124 1.99894 14.7351 2C11.4577 2.00106 8.80117 4.65982 8.80223 7.93726C8.80646 11.2136 11.463 13.8682 14.7393 13.8703ZM14.7393 5.47944C16.0972 5.47944 17.1981 6.58038 17.1981 7.93832C17.1981 9.29625 16.0972 10.3961 14.7393 10.3961C13.3814 10.3961 12.2805 9.29519 12.2805 7.93726C12.2826 6.58038 13.3825 5.4805 14.7393 5.47944ZM17.1389 18.7129C18.3603 18.4359 19.5258 17.9525 20.5865 17.2852C21.3944 16.7638 21.6271 15.6872 21.1057 14.8792C20.5928 14.0839 19.5374 13.8438 18.7315 14.3399C16.2875 15.8681 13.1847 15.8681 10.7407 14.3399C9.92957 13.8312 8.85828 14.0744 8.34748 14.8845C7.83457 15.6957 8.07569 16.7702 8.88789 17.2831C8.88894 17.2831 8.89 17.2842 8.89 17.2842C9.94966 17.9504 11.1151 18.4337 12.3355 18.7119L9.01691 22.0306C8.35594 22.7286 8.38661 23.8306 9.08565 24.4916C9.75719 25.1261 10.8063 25.1261 11.4778 24.4916L14.7372 21.23L17.9987 24.4916C18.6776 25.1695 19.7764 25.1695 20.4553 24.4916C21.1332 23.8126 21.1332 22.7138 20.4553 22.0348L17.1389 18.7129Z" fill="#EB722E"/>
</svg>
