<svg width="24" height="24" viewBox="0 0 24 24" fill="none" xmlns="http://www.w3.org/2000/svg">
<path d="M19.7344 3.5625C19.7344 3.95086 19.4196 4.26562 19.0312 4.26562C18.6429 4.26562 18.3281 3.95086 18.3281 3.5625C18.3281 3.17414 18.6429 2.85938 19.0312 2.85938C19.4196 2.85938 19.7344 3.17414 19.7344 3.5625ZM16.9219 3.5625C16.9219 3.95086 16.6071 4.26562 16.2188 4.26562C15.8304 4.26562 15.5156 3.95086 15.5156 3.5625C15.5156 3.17414 15.8304 2.85938 16.2188 2.85938C16.6071 2.85938 16.9219 3.17414 16.9219 3.5625ZM14.1094 3.5625C14.1094 3.95086 13.7946 4.26562 13.4062 4.26562C13.0179 4.26562 12.7031 3.95086 12.7031 3.5625C12.7031 3.17414 13.0179 2.85938 13.4062 2.85938C13.7946 2.85938 14.1094 3.17414 14.1094 3.5625Z" fill="white"/>
<path d="M22.5938 18.834V2.57794C22.5938 1.1565 21.4373 0 20.0158 0H2.57794C1.1565 0 0 1.1565 0 2.57794V20.0158C0 21.4373 1.1565 22.5938 2.57794 22.5938H8.50561C8.4844 22.8275 8.47372 23.0621 8.47359 23.2969C8.47359 23.6852 8.78831 24 9.17672 24H23.2969C23.6852 24 24 23.6852 24 23.2969C24 21.6377 23.4795 20.0986 22.5938 18.834ZM2.57794 1.40625H20.0158C20.6618 1.40625 21.1875 1.93195 21.1875 2.57794V5.67188H1.40625V2.57794C1.40625 1.93195 1.93195 1.40625 2.57794 1.40625ZM2.57794 21.1875C1.93195 21.1875 1.40625 20.6618 1.40625 20.0158V7.07812H21.1875V17.3057C16.8623 13.7062 10.2799 15.7927 8.76342 21.1875H2.57794ZM17.1908 22.5938L18.2208 19.4696C18.3424 19.1008 18.1419 18.7033 17.7732 18.5817C17.4045 18.46 17.0069 18.6607 16.8853 19.0294L15.7103 22.5938H9.91828C10.2682 19.4066 12.9684 16.919 16.2369 16.919C19.5051 16.919 22.2054 19.4066 22.5555 22.5938H17.1908Z" fill="white"/>
<path d="M3.5625 12.7031H19.0781C19.4665 12.7031 19.7812 12.3884 19.7812 12V9.1875C19.7812 8.79914 19.4665 8.48438 19.0781 8.48438H3.5625C3.17414 8.48438 2.85938 8.79914 2.85938 9.1875V12C2.85938 12.3884 3.17414 12.7031 3.5625 12.7031ZM4.26562 9.89062H18.375V11.2969H4.26562V9.89062ZM3.5625 15.5625H11.2969C11.6852 15.5625 12 15.2477 12 14.8594C12 14.471 11.6852 14.1562 11.2969 14.1562H3.5625C3.17414 14.1562 2.85938 14.471 2.85938 14.8594C2.85938 15.2477 3.17414 15.5625 3.5625 15.5625ZM8.48438 16.9219H3.5625C3.17414 16.9219 2.85938 17.2366 2.85938 17.625C2.85938 18.0134 3.17414 18.3281 3.5625 18.3281H8.48438C8.87273 18.3281 9.1875 18.0134 9.1875 17.625C9.1875 17.2366 8.87273 16.9219 8.48438 16.9219Z" fill="white"/>
</svg>
