<svg width="29" height="28" viewBox="0 0 29 28" fill="none" xmlns="http://www.w3.org/2000/svg">
<path fill-rule="evenodd" clip-rule="evenodd" d="M22.8513 9.15932C22.8592 9.3625 22.8618 9.5656 22.8618 9.76878C22.8618 15.9289 18.5286 23.0403 10.6045 23.0403C8.1704 23.0403 5.90702 22.2645 4 20.9438C4.3371 20.9808 4.67946 21.0085 5.02706 21.0085C7.04528 21.0085 8.90415 20.2603 10.3786 19.0043C8.4935 18.9766 6.90169 17.6189 6.3527 15.7718C6.61625 15.8273 6.88767 15.855 7.16523 15.855C7.55661 15.855 7.93661 15.7997 8.30085 15.6889C6.32817 15.264 4.84232 13.38 4.84232 11.1173C4.84232 11.0896 4.84232 11.0804 4.84232 11.0619C5.4237 11.4036 6.08914 11.6159 6.79573 11.6436C5.63821 10.8032 4.87732 9.37171 4.87732 7.7555C4.87732 6.90584 5.08921 6.10231 5.46221 5.40965C7.58637 8.23571 10.7621 10.0921 14.3424 10.286C14.2689 9.94431 14.2312 9.58421 14.2312 9.22403C14.2312 6.64733 16.1601 4.56006 18.5399 4.56006C19.7789 4.56006 20.8979 5.1235 21.6833 6.02858C22.6665 5.8254 23.5877 5.43754 24.4212 4.90188C24.0981 5.99167 23.416 6.90579 22.5247 7.47839C23.3968 7.36757 24.2286 7.1184 25 6.74898C24.4212 7.68176 23.6927 8.5036 22.8513 9.15932Z" fill="#1EA1F2"/>
</svg>
