<svg width="28" height="28" viewBox="0 0 28 28" fill="none" xmlns="http://www.w3.org/2000/svg">
<g clip-path="url(#clip0_2328_58432)">
<path d="M10.1719 1.5H17.8411C24.8464 1.5 26.5 3.16667 26.5 10.1719V17.8411C26.5 24.8464 24.8333 26.5 17.8281 26.5H10.1589C3.15365 26.5 1.5 24.8333 1.5 17.8281V10.1589C1.5 3.16667 3.16667 1.5 10.1719 1.5Z" fill="#5181B8"/>
<mask id="mask0_2328_58432" style="mask-type:luminance" maskUnits="userSpaceOnUse" x="1" y="1" width="26" height="26">
<path d="M10.1719 1.5H17.8411C24.8464 1.5 26.5 3.16667 26.5 10.1719V17.8411C26.5 24.8464 24.8333 26.5 17.8281 26.5H10.1589C3.15365 26.5 1.5 24.8333 1.5 17.8281V10.1589C1.5 3.16667 3.16667 1.5 10.1719 1.5Z" fill="white"/>
</mask>
<g mask="url(#mask0_2328_58432)">
<path d="M0.847656 0.848633H27.1497V27.1507H0.847656V0.848633Z" fill="#5181B8"/>
</g>
<path fill-rule="evenodd" clip-rule="evenodd" d="M21.9674 10.1069C22.0846 9.71631 21.9674 9.44287 21.4206 9.44287H19.5977C19.1289 9.44287 18.9206 9.69027 18.8034 9.9637C18.8034 9.9637 17.8789 12.2293 16.5638 13.6877C16.1341 14.1174 15.9518 14.2476 15.7174 14.2476C15.6003 14.2476 15.431 14.1174 15.431 13.7267V10.1069C15.431 9.63818 15.3008 9.44287 14.9102 9.44287H12.0456C11.7591 9.44287 11.5768 9.66422 11.5768 9.85954C11.5768 10.3022 12.2279 10.4064 12.306 11.6304V14.3127C12.306 14.8986 12.2018 15.0028 11.9674 15.0028C11.3555 15.0028 9.84505 12.7371 8.95964 10.133C8.77734 9.6512 8.60807 9.44287 8.13932 9.44287H6.31641C5.79557 9.44287 5.69141 9.69027 5.69141 9.9637C5.69141 10.4455 6.30339 12.8413 8.56901 16.0054C10.0794 18.1668 12.2018 19.3387 14.1289 19.3387C15.2878 19.3387 15.431 19.0783 15.431 18.6356V16.995C15.431 16.4741 15.5352 16.37 15.9128 16.37C16.1862 16.37 16.6419 16.5002 17.7227 17.5418C18.9596 18.7788 19.168 19.3387 19.8581 19.3387H21.681C22.2018 19.3387 22.4622 19.0783 22.306 18.5705C22.1367 18.0627 21.5508 17.3205 20.7695 16.4351C20.3398 15.9272 19.7018 15.3934 19.5195 15.12C19.2461 14.7684 19.3242 14.6121 19.5195 14.3127C19.5195 14.2996 21.7461 11.1746 21.9674 10.1069Z" fill="white"/>
</g>
<defs>
<clipPath id="clip0_2328_58432">
<rect x="1.5" y="1.5" width="25" height="25" fill="white"/>
</clipPath>
</defs>
</svg>
