<?xml version="1.0" standalone="no"?>
<!DOCTYPE svg PUBLIC "-//W3C//DTD SVG 20010904//EN"
 "http://www.w3.org/TR/2001/REC-SVG-20010904/DTD/svg10.dtd">
<svg version="1.0" xmlns="http://www.w3.org/2000/svg"
 width="139.000000pt" height="139.000000pt" viewBox="0 0 139.000000 139.000000"
 preserveAspectRatio="xMidYMid meet">
<metadata>
Created by potrace 1.14, written by Peter Selinger 2001-2017
</metadata>
<g transform="translate(0.000000,139.000000) scale(0.100000,-0.100000)"
fill="#000000" stroke="none">
<path d="M532 1371 c-200 -49 -368 -183 -456 -363 -102 -207 -102 -410 1 -618
112 -228 354 -379 610 -380 107 0 206 24 313 77 77 38 110 61 176 127 66 66
89 99 127 176 103 209 103 411 0 620 -138 281 -468 435 -771 361z m282 -313
c22 -7 56 -28 76 -48 19 -19 53 -41 75 -49 64 -22 101 -56 136 -127 30 -60 33
-76 33 -153 0 -108 -22 -179 -76 -237 -98 -107 -282 -122 -485 -39 -69 28 -84
31 -94 19 -6 -8 -28 -18 -48 -24 -52 -14 -103 3 -140 46 l-31 35 0 180 c0 194
6 221 54 252 39 26 98 32 133 13 30 -15 31 -15 62 24 35 43 100 91 146 108 41
14 110 14 159 0z"/>
<path d="M688 980 c-41 -12 -84 -47 -123 -97 l-35 -46 0 -163 0 -163 79 -30
c181 -70 326 -58 395 31 72 95 54 298 -31 353 -13 9 -45 20 -72 25 -60 11
-111 -1 -165 -41 -31 -22 -43 -26 -58 -18 -49 26 -27 72 56 115 49 26 53 30
34 36 -31 8 -48 8 -80 -2z"/>
<path d="M350 831 c-5 -11 -10 -83 -10 -163 0 -157 9 -188 55 -188 46 0 55 31
55 192 0 120 -3 149 -16 162 -22 23 -71 20 -84 -3z"/>
</g>
</svg>
