<svg width="80" height="80" viewBox="0 0 80 80" fill="none" xmlns="http://www.w3.org/2000/svg">
<g clip-path="url(#clip0_1102_32205)">
<path d="M79.834 24.9524C74.1003 -17.8231 49.9392 6.70818 22.1948 19.9802C14.302 23.756 3.4995 23.7869 0.651841 33.7051C-2.64097 45.1738 7.19528 52.408 15.1114 58.5207C24.6415 65.8796 23.2909 80.3538 38.8647 79.0663C41.8014 78.8235 45.3222 79.1174 47.2195 76.8624C55.072 67.5294 57.2529 53.496 67.4653 46.0522C74.6678 40.8022 81.1222 34.5622 79.834 24.9524Z" fill="url(#paint0_linear_1102_32205)"/>
<path d="M35.9214 28.3411C35.0584 28.3411 34.3589 27.6414 34.3589 26.7786V15.0535C34.3589 11.2291 31.2475 8.11768 27.4231 8.11768C23.5987 8.11768 20.4873 11.2291 20.4873 15.0535V26.7786C20.4873 27.6414 19.7878 28.3411 18.9248 28.3411C18.0618 28.3411 17.3623 27.6414 17.3623 26.7786V15.0535C17.3623 9.50596 21.8756 4.99268 27.4231 4.99268C32.9706 4.99268 37.4839 9.50596 37.4839 15.0535V26.7786C37.4839 27.6416 36.7843 28.3411 35.9214 28.3411Z" fill="#FFC498"/>
<path d="M14.8086 68.028H8.47844C8.37102 68.028 8.26475 68.0059 8.16628 67.9629C8.06782 67.92 7.97926 67.8572 7.90615 67.7785C7.83303 67.6998 7.77694 67.6069 7.74136 67.5055C7.70578 67.4042 7.69149 67.2966 7.69937 67.1894L10.8614 24.2566C10.8759 24.0599 10.9642 23.8759 11.1088 23.7417C11.2533 23.6074 11.4432 23.5327 11.6405 23.5327H17.9709L14.8086 68.028Z" fill="#FF7300"/>
<path d="M32.8956 6.61694C31.2227 6.76476 29.7786 7.34272 28.5625 8.21257C30.7516 8.57554 32.5964 9.96679 33.5844 11.8719C33.6411 11.8705 33.6975 11.8676 33.7545 11.8676C34.9751 11.8666 36.174 12.1899 37.2286 12.8043C36.6369 10.2237 35.0509 8.01944 32.8956 6.61694Z" fill="#FFAA66"/>
<path d="M43.2959 17.1154C47.1381 17.645 50.72 18.3073 53.9714 19.0833C54.0996 19.1141 54.2137 19.1873 54.2953 19.291C54.3768 19.3946 54.421 19.5228 54.4208 19.6547V30.4565C54.4208 30.8675 54.0105 31.1509 53.6261 31.0053C50.4216 29.7915 46.903 28.8729 43.1359 28.3356C42.9956 28.3161 42.867 28.2465 42.7738 28.1397C42.6807 28.0329 42.6292 27.8961 42.6289 27.7543V17.6976C42.6289 17.342 42.9434 17.0668 43.2959 17.1154ZM65.3353 38.4062C63.4372 36.6533 61.1916 35.0356 58.6487 33.6195C58.557 33.5687 58.4805 33.4944 58.4272 33.4041C58.3739 33.3139 58.3456 33.211 58.3453 33.1062V21.2478C58.3453 20.849 58.735 20.5654 59.1142 20.6886C67.3152 23.3518 72.3014 26.8683 72.3014 30.724L71.8327 37.1951L65.3353 38.4062Z" fill="#9393FF"/>
<path d="M72.3012 44.4871L71.684 46.9168L72.3012 47.5871V48.6402L71.948 50.8809L72.3012 51.7402V53.5965C72.3012 57.2352 67.8624 61.8152 60.4732 65.6238C59.8501 65.9449 59.1074 65.4902 59.1074 64.7893V41.6074C59.1074 41.1043 59.4293 40.6574 59.9059 40.4949C67.6355 37.8668 72.3012 34.4543 72.3012 30.7246V44.4871Z" fill="#D8D8FF"/>
<path d="M72.3011 48.6407V51.7407C70.4199 54.0579 67.2324 56.1547 63.8871 58.1188C63.7636 58.1922 63.6277 58.2266 63.4933 58.2266C63.2246 58.2266 62.9636 58.0891 62.8183 57.8407C62.5996 57.4688 62.7246 56.9891 63.0964 56.7719C68.7339 53.4625 71.5996 50.9516 72.3011 48.6407ZM72.3011 44.4875V47.5875C70.4183 49.9047 67.2324 52.0016 63.8871 53.9657C63.7636 54.0375 63.6277 54.0719 63.4933 54.0719C63.357 54.0723 63.2231 54.037 63.1046 53.9696C62.9862 53.9021 62.8875 53.8049 62.8183 53.6875C62.5996 53.3141 62.7246 52.836 63.0964 52.6172C68.7339 49.3079 71.5996 46.7985 72.3011 44.4875ZM63.4928 50.6918C63.3225 50.6922 63.1567 50.6369 63.0207 50.5343C62.8847 50.4318 62.7859 50.2876 62.7395 50.1237C62.6931 49.9598 62.7015 49.7852 62.7635 49.6265C62.8256 49.4679 62.9377 49.3339 63.083 49.2449C64.0036 48.6793 64.8078 48.1616 65.5421 47.6625C65.7134 47.546 65.924 47.5024 66.1276 47.5412C66.3311 47.5799 66.5109 47.698 66.6274 47.8693C66.744 48.0407 66.7876 48.2513 66.7488 48.4549C66.7101 48.6584 66.592 48.8382 66.4206 48.9547C65.6663 49.4675 64.8421 49.998 63.9011 50.5761C63.7784 50.6518 63.637 50.6918 63.4928 50.6918Z" fill="#9393FF"/>
<path d="M63.493 44.8114C63.3142 44.8115 63.1407 44.7504 63.0016 44.6381C62.8624 44.5258 62.766 44.3692 62.7284 44.1944C62.6908 44.0196 62.7143 43.8371 62.795 43.6776C62.8757 43.518 63.0087 43.3909 63.1717 43.3176C64.4045 42.7624 65.5167 42.1781 66.4775 41.5804C66.6535 41.471 66.8657 41.436 67.0675 41.483C67.2693 41.5301 67.4441 41.6553 67.5536 41.8312C67.663 42.0072 67.698 42.2194 67.651 42.4212C67.604 42.6229 67.4787 42.7978 67.3028 42.9073C66.2833 43.5414 65.1092 44.1587 63.8133 44.7423C63.7126 44.7878 63.6034 44.8113 63.493 44.8114Z" fill="#FF9393"/>
<path d="M59.1149 20.6891C58.7354 20.5658 58.3447 20.8488 58.3447 21.2478V33.1063C58.3447 33.3199 58.4618 33.5158 58.6483 33.6197C61.1477 35.0117 63.3572 36.5994 65.2346 38.318C63.6782 39.0905 61.8935 39.8192 59.9041 40.4958C59.6718 40.5748 59.4701 40.7244 59.3272 40.9238C59.1843 41.1232 59.1074 41.3624 59.1072 41.6077V64.7892C59.1072 65.4902 59.85 65.945 60.4732 65.6238C67.8624 61.8144 72.3008 57.2353 72.3008 53.5969V30.7241C72.301 26.8685 67.3152 23.3522 59.1149 20.6891Z" fill="url(#paint1_linear_1102_32205)"/>
<path d="M52.6988 68.028H14.8081C14.3535 68.028 13.9956 67.6421 14.0285 67.189L17.191 24.2562C17.2056 24.0594 17.2941 23.8755 17.4387 23.7413C17.5833 23.6071 17.7734 23.5326 17.9706 23.5327H49.5363C49.9456 23.5327 50.2847 23.8483 50.316 24.2562L53.4769 67.189C53.5113 67.6421 53.1519 68.028 52.6988 68.028Z" fill="#FFAA66"/>
<path d="M35.7036 35.1085C35.5044 35.3089 35.2674 35.4677 35.0064 35.5759C34.7453 35.684 34.4654 35.7393 34.1829 35.7385C33.9003 35.7393 33.6205 35.684 33.3594 35.5759C33.0984 35.4677 32.8614 35.3089 32.6622 35.1085C32.256 34.7023 32.0322 34.1623 32.0322 33.5877C32.0322 33.0132 32.256 32.4732 32.6622 32.067C33.5008 31.2282 34.8654 31.2284 35.7036 32.067L36.2561 32.6195L37.361 31.5146L36.8085 30.9621C36.3035 30.4571 35.6628 30.1094 34.9641 29.9615V28.4651H33.4016V29.9617C32.7029 30.1096 32.0622 30.4571 31.5572 30.9621C31.2114 31.3061 30.9372 31.7153 30.7505 32.166C30.5639 32.6167 30.4684 33.0999 30.4697 33.5877C30.4684 34.0756 30.5638 34.5588 30.7505 35.0095C30.9372 35.4602 31.2114 35.8694 31.5572 36.2134C32.0616 36.72 32.7024 37.0691 33.4016 37.2182V38.7104H34.9641V37.2182C35.6633 37.0692 36.3041 36.7201 36.8085 36.2134L37.361 35.6609L36.2561 34.556L35.7036 35.1085Z" fill="white"/>
<path d="M23.6924 23.5322H26.8174V29.5916C26.8174 30.4541 26.1174 31.1541 25.2549 31.1541C24.3924 31.1541 23.6924 30.4541 23.6924 29.5916V23.5322ZM43.8143 23.5322V29.5916C43.8143 30.4541 43.1143 31.1541 42.2518 31.1541C41.3877 31.1541 40.6893 30.4541 40.6893 29.5916V23.5322H43.8143Z" fill="#FF9C33"/>
<path d="M35.5496 45.2583C41.8351 44.7677 47.6476 43.9432 52.7475 42.8525C53.4781 42.6963 54.1659 43.2544 54.1659 44.0016V68.1174C54.1659 68.3645 54.088 68.6054 53.9433 68.8058C53.7986 69.0062 53.5944 69.1559 53.3598 69.2336C48.1667 70.9569 42.2075 72.2516 35.7437 72.8144C35.0578 72.8741 34.4678 72.3314 34.4678 71.643V46.4293C34.4676 46.1337 34.5789 45.849 34.7795 45.632C34.98 45.4149 35.255 45.2815 35.5496 45.2583Z" fill="#D8D8FF"/>
<path d="M50.5304 67.2704C50.3424 67.2701 50.1608 67.2021 50.0189 67.0788C49.877 66.9554 49.7843 66.7851 49.7578 66.599C49.7313 66.4129 49.7728 66.2235 49.8746 66.0655C49.9764 65.9074 50.1318 65.7914 50.3122 65.7387C50.5486 65.6698 50.7846 65.5998 51.0202 65.5285C51.1187 65.4977 51.2224 65.4867 51.3251 65.4961C51.4279 65.5056 51.5278 65.5353 51.6191 65.5836C51.7103 65.6319 51.7911 65.6978 51.8567 65.7774C51.9223 65.8571 51.9715 65.949 52.0014 66.0478C52.0313 66.1466 52.0413 66.2504 52.0309 66.3531C52.0204 66.4558 51.9897 66.5554 51.9406 66.6461C51.8914 66.7369 51.8248 66.817 51.7445 66.8819C51.6641 66.9467 51.5718 66.995 51.4727 67.024C51.2329 67.0966 50.9916 67.1682 50.7488 67.2388C50.6779 67.2598 50.6043 67.2704 50.5304 67.2704ZM50.5304 64.8835C50.3424 64.8832 50.1608 64.8152 50.0189 64.6919C49.877 64.5686 49.7843 64.3982 49.7578 64.2121C49.7313 64.026 49.7728 63.8366 49.8746 63.6786C49.9764 63.5206 50.1318 63.4045 50.3122 63.3518C50.5486 63.283 50.7846 63.2129 51.0202 63.1416C51.1187 63.1108 51.2224 63.0998 51.3251 63.1092C51.4279 63.1187 51.5278 63.1484 51.6191 63.1967C51.7103 63.245 51.7911 63.3109 51.8567 63.3906C51.9223 63.4703 51.9715 63.5621 52.0014 63.6609C52.0313 63.7597 52.0413 63.8635 52.0309 63.9662C52.0204 64.0689 51.9897 64.1685 51.9406 64.2593C51.8914 64.35 51.8248 64.4302 51.7445 64.495C51.6641 64.5599 51.5718 64.6082 51.4727 64.6371C51.2329 64.7098 50.9916 64.7813 50.7488 64.8519C50.6779 64.8729 50.6043 64.8835 50.5304 64.8835Z" fill="#8282FF"/>
<path d="M52.2253 52.029L48.3661 48.5798C48.3412 48.557 48.3119 48.5393 48.2801 48.528C48.2483 48.5167 48.2145 48.5119 48.1808 48.5139L46.4347 48.6356C46.3264 48.6431 46.2375 48.722 46.214 48.8329C46.0759 49.4868 45.5492 49.9901 44.8651 50.0436C44.1748 50.0975 43.5289 49.6779 43.2378 49.0435C43.1883 48.9357 43.0789 48.8692 42.9658 48.877L41.0956 49.0071C41.0237 49.0121 40.9572 49.0468 40.9117 49.1028L37.3865 53.4486C37.2867 53.5717 37.3072 53.754 37.4323 53.8554L39.69 55.6831C39.7187 55.7064 39.7518 55.7237 39.7873 55.7341C39.8228 55.7444 39.86 55.7477 39.8967 55.7435C39.9335 55.7394 39.969 55.728 40.0013 55.7099C40.0336 55.6919 40.062 55.6676 40.0848 55.6385L41.2325 54.1781L41.0314 62.1657C41.0303 62.2096 41.0388 62.2532 41.0563 62.2934C41.0739 62.3336 41.1 62.3695 41.1329 62.3985C41.1658 62.4275 41.2046 62.449 41.2467 62.4614C41.2887 62.4739 41.333 62.4769 41.3764 62.4704L48.897 61.342C48.9683 61.3313 49.0334 61.2953 49.0804 61.2407C49.1274 61.186 49.1531 61.1163 49.153 61.0442L49.1348 53.3689L50.4125 54.4793C50.4385 54.5019 50.4689 54.5189 50.5018 54.5292C50.5348 54.5394 50.5694 54.5427 50.6037 54.5388C50.638 54.535 50.671 54.524 50.7008 54.5067C50.7307 54.4894 50.7565 54.4661 50.7769 54.4382L52.2673 52.3982C52.3481 52.2873 52.3295 52.1221 52.2253 52.029Z" fill="#FFAA66"/>
<path d="M41.9693 67.6806C44.0628 67.6806 45.76 65.9835 45.76 63.89C45.76 61.7965 44.0628 60.0994 41.9693 60.0994C39.8758 60.0994 38.1787 61.7965 38.1787 63.89C38.1787 65.9835 39.8758 67.6806 41.9693 67.6806Z" fill="#FF6C6C"/>
<path d="M41.4677 65.6579C41.2605 65.6579 41.0618 65.5756 40.9153 65.4291L39.9461 64.4601C39.873 64.3876 39.815 64.3015 39.7753 64.2066C39.7356 64.1116 39.7151 64.0098 39.7148 63.9069C39.7146 63.8041 39.7347 63.7021 39.774 63.607C39.8133 63.512 39.8709 63.4256 39.9437 63.3528C40.0164 63.2801 40.1028 63.2224 40.1979 63.1831C40.293 63.1439 40.3949 63.1238 40.4978 63.124C40.6007 63.1242 40.7025 63.1448 40.7974 63.1844C40.8924 63.2241 40.9785 63.2822 41.0509 63.3552L41.4677 63.7719L42.8898 62.3498C43.037 62.2063 43.2347 62.1266 43.4402 62.1279C43.6457 62.1293 43.8424 62.2115 43.9877 62.3568C44.1329 62.5021 44.2151 62.6988 44.2164 62.9043C44.2177 63.1098 44.138 63.3075 43.9945 63.4546L42.02 65.4291C41.9475 65.5017 41.8614 65.5592 41.7666 65.5985C41.6718 65.6377 41.5702 65.6579 41.4677 65.6579Z" fill="white"/>
<path d="M46.8311 54.305C46.6239 54.305 46.4252 54.2227 46.2787 54.0762C46.1322 53.9297 46.0498 53.731 46.0498 53.5238V53.293C46.0498 53.0858 46.1322 52.8871 46.2787 52.7406C46.4252 52.5941 46.6239 52.5117 46.8311 52.5117C47.0383 52.5117 47.237 52.5941 47.3835 52.7406C47.53 52.8871 47.6123 53.0858 47.6123 53.293V53.5238C47.6123 53.731 47.53 53.9297 47.3835 54.0762C47.237 54.2227 47.0383 54.305 46.8311 54.305ZM42.2522 28.3411C41.3892 28.3411 40.6897 27.6414 40.6897 26.7786V15.0535C40.6897 11.2291 37.5783 8.11768 33.7539 8.11768C29.9295 8.11768 26.8181 11.2291 26.8181 15.0535V26.7786C26.8181 27.6414 26.1186 28.3411 25.2556 28.3411C24.3927 28.3411 23.6931 27.6414 23.6931 26.7786V15.0535C23.6931 9.50596 28.2064 4.99268 33.7539 4.99268C39.3014 4.99268 43.8147 9.50596 43.8147 15.0535V26.7786C43.8147 27.6416 43.1152 28.3411 42.2522 28.3411ZM28.2663 63.8716H19.4766C19.2694 63.8716 19.0706 63.7893 18.9241 63.6428C18.7776 63.4963 18.6953 63.2975 18.6953 63.0903C18.6953 62.8831 18.7776 62.6844 18.9241 62.5379C19.0706 62.3914 19.2694 62.3091 19.4766 62.3091H28.2663C28.4735 62.3091 28.6722 62.3914 28.8187 62.5379C28.9652 62.6844 29.0475 62.8831 29.0475 63.0903C29.0475 63.2975 28.9652 63.4963 28.8187 63.6428C28.6722 63.7893 28.4735 63.8716 28.2663 63.8716ZM28.4414 60.8803H19.6517C19.4445 60.8803 19.2458 60.798 19.0993 60.6515C18.9528 60.505 18.8705 60.3063 18.8705 60.0991C18.8705 59.8919 18.9528 59.6932 19.0993 59.5467C19.2458 59.4002 19.4445 59.3178 19.6517 59.3178H28.4414C28.6486 59.3178 28.8473 59.4002 28.9938 59.5467C29.1403 59.6932 29.2227 59.8919 29.2227 60.0991C29.2227 60.3063 29.1403 60.505 28.9938 60.6515C28.8473 60.798 28.6486 60.8803 28.4414 60.8803ZM22.3089 57.8889H19.8269C19.6197 57.8889 19.421 57.8066 19.2744 57.6601C19.1279 57.5136 19.0456 57.3149 19.0456 57.1077C19.0456 56.9005 19.1279 56.7018 19.2744 56.5553C19.421 56.4087 19.6197 56.3264 19.8269 56.3264H22.3089C22.5161 56.3264 22.7148 56.4087 22.8613 56.5553C23.0078 56.7018 23.0902 56.9005 23.0902 57.1077C23.0902 57.3149 23.0078 57.5136 22.8613 57.6601C22.7148 57.8066 22.5161 57.8889 22.3089 57.8889Z" fill="#FFD5BA"/>
<path d="M53.9712 19.0835C50.8673 18.3427 47.4595 17.7067 43.8144 17.1899V15.0535C43.8144 9.50596 39.3011 4.99268 33.7536 4.99268C32.6779 4.99256 31.6092 5.16577 30.5886 5.50564C29.568 5.16577 28.4993 4.99256 27.4236 4.99268C21.8761 4.99268 17.3628 9.50596 17.3628 15.0535V23.5325H11.6406C11.4434 23.5325 11.2534 23.6072 11.1089 23.7415C10.9644 23.8757 10.876 24.0597 10.8616 24.2564L7.69937 67.1894C7.69149 67.2965 7.70578 67.4042 7.74137 67.5055C7.77696 67.6069 7.83307 67.6998 7.9062 67.7785C7.97933 67.8572 8.0679 67.92 8.16639 67.9629C8.26488 68.0059 8.37116 68.028 8.47859 68.028H34.4675V71.6432C34.4675 72.3316 35.0575 72.8744 35.7434 72.8146C42.2072 72.2517 48.1664 70.9571 53.3595 69.2338C53.5941 69.156 53.7983 69.0063 53.943 68.8059C54.0877 68.6056 54.1656 68.3647 54.1656 68.1175V44.0019C54.1656 43.2547 53.478 42.6966 52.7472 42.8528C52.402 42.9266 52.0531 42.9989 51.7016 43.0703L50.7408 30.0213C51.7129 30.3179 52.6752 30.6461 53.6259 31.0055C54.0102 31.1511 54.4206 30.8677 54.4206 30.4567V19.6549C54.4208 19.523 54.3766 19.3949 54.2951 19.2912C54.2135 19.1875 54.0995 19.1144 53.9712 19.0835ZM23.6928 23.5325H20.4878V15.0535C20.4878 11.5755 23.0614 8.68799 26.4041 8.1933C24.7241 9.99189 23.6928 12.4039 23.6928 15.0535V23.5325ZM26.8178 15.0535C26.8178 12.3689 28.352 10.0375 30.5886 8.88518C32.8252 10.0375 34.3594 12.3689 34.3594 15.0535V23.5325H26.8178V15.0535ZM40.6894 23.5325H37.4844V15.0535C37.4844 12.4039 36.4531 9.99189 34.7731 8.1933C38.1158 8.68799 40.6894 11.5755 40.6894 15.0535V23.5325Z" fill="url(#paint2_linear_1102_32205)"/>
<path d="M8.79102 11.3577H7.22852C6.36695 11.3577 5.66602 10.6567 5.66602 9.79517V8.23267C5.66602 7.3711 6.36695 6.67017 7.22852 6.67017H8.79102C9.65258 6.67017 10.3535 7.3711 10.3535 8.23267V9.79517C10.3535 10.6567 9.65258 11.3577 8.79102 11.3577ZM7.22852 8.23267V9.7961L8.79102 9.79517V8.23267H7.22852ZM72.6046 69.3813H71.0421C70.1805 69.3813 69.4796 68.6803 69.4796 67.8188V66.2563C69.4796 65.3947 70.1805 64.6938 71.0421 64.6938H72.6046C73.4662 64.6938 74.1671 65.3947 74.1671 66.2563V67.8188C74.1671 68.6803 73.4662 69.3813 72.6046 69.3813ZM71.0421 66.2563V67.8197L72.6046 67.8188V66.2563H71.0421Z" fill="#FF6C6C"/>
<path d="M54.9238 14.636H53.3613C52.4998 14.636 51.7988 13.935 51.7988 13.0735V11.511C51.7988 10.6494 52.4998 9.94849 53.3613 9.94849H54.9238C55.7854 9.94849 56.4863 10.6494 56.4863 11.511V13.0735C56.4863 13.935 55.7854 14.636 54.9238 14.636ZM53.3613 11.511V13.0744L54.9238 13.0735V11.511H53.3613Z" fill="#6C6CFF"/>
<path d="M11.3682 19.1077C11.2655 19.1078 11.1639 19.0877 11.0691 19.0484C10.9743 19.0091 10.8882 18.9516 10.8157 18.8789L10.5794 18.6427C10.153 18.2161 9.45863 18.2161 9.03176 18.6427L8.79551 18.8789C8.64815 19.0214 8.45071 19.1003 8.24573 19.0986C8.04075 19.0969 7.84465 19.0147 7.69972 18.8697C7.55478 18.7248 7.47261 18.5286 7.47091 18.3237C7.46922 18.1187 7.54814 17.9213 7.69066 17.7739L7.92691 17.5377C8.13363 17.3309 8.24754 17.0561 8.24754 16.7639C8.24754 16.4717 8.13363 16.1969 7.92707 15.9902L7.69066 15.7539C7.53816 15.6013 7.46191 15.4014 7.46191 15.2014C7.46191 15.0014 7.53816 14.8016 7.69066 14.6489C7.8372 14.5024 8.0359 14.4202 8.24309 14.4202C8.45027 14.4202 8.64898 14.5024 8.79551 14.6489L9.03176 14.8852C9.45832 15.3117 10.1527 15.3117 10.5793 14.8852L10.8155 14.6489C10.9629 14.5064 11.1603 14.4275 11.3653 14.4292C11.5703 14.431 11.7664 14.5132 11.9113 14.6581C12.0562 14.8031 12.1384 14.9992 12.1401 15.2042C12.1418 15.4091 12.0629 15.6066 11.9204 15.7539L11.6841 15.9902C11.4792 16.1955 11.364 16.4738 11.364 16.7639C11.364 17.054 11.4792 17.3323 11.6841 17.5377L11.9204 17.7739C12.0729 17.9266 12.1491 18.1264 12.1491 18.3264C12.1491 18.5264 12.0729 18.7263 11.9204 18.8789C11.8479 18.9516 11.7619 19.0092 11.6671 19.0484C11.5723 19.0877 11.4707 19.1078 11.3682 19.1077ZM30.1246 77.1599C30.0219 77.16 29.9203 77.1399 29.8255 77.1006C29.7307 77.0613 29.6446 77.0037 29.5721 76.9311L29.3358 76.6949C28.9093 76.2683 28.2149 76.2683 27.7883 76.6949L27.5521 76.9311C27.4047 77.0736 27.2073 77.1525 27.0023 77.1508C26.7973 77.1491 26.6012 77.0669 26.4563 76.9219C26.3113 76.7769 26.2292 76.5808 26.2275 76.3759C26.2258 76.1709 26.3047 75.9734 26.4472 75.8261L26.6835 75.5899C26.8884 75.3845 27.0035 75.1062 27.0035 74.8161C27.0035 74.526 26.8884 74.2477 26.6835 74.0424L26.4472 73.8061C26.2947 73.6535 26.2185 73.4536 26.2185 73.2536C26.2185 73.0536 26.2947 72.8538 26.4472 72.7011C26.5938 72.5546 26.7925 72.4724 26.9996 72.4724C27.2068 72.4724 27.4055 72.5546 27.5521 72.7011L27.7883 72.9374C28.2147 73.3639 28.9091 73.3639 29.336 72.9374L29.5722 72.7011C29.7196 72.5586 29.917 72.4797 30.122 72.4814C30.327 72.4832 30.5231 72.5654 30.668 72.7103C30.813 72.8553 30.8951 73.0514 30.8968 73.2564C30.8985 73.4613 30.8196 73.6588 30.6771 73.8061L30.4408 74.0424C30.2341 74.2491 30.1202 74.5239 30.1202 74.8161C30.1202 75.1083 30.2341 75.3831 30.4407 75.5899L30.6771 75.8261C30.8296 75.9788 30.9058 76.1786 30.9058 76.3786C30.9058 76.5786 30.8296 76.7785 30.6771 76.9311C30.6046 77.0037 30.5184 77.0613 30.4236 77.1006C30.3288 77.1398 30.2272 77.16 30.1246 77.1599Z" fill="#FF9C33"/>
</g>
<defs>
<linearGradient id="paint0_linear_1102_32205" x1="10.0149" y1="66.1834" x2="49.7304" y2="19.3192" gradientUnits="userSpaceOnUse">
<stop stop-color="white" stop-opacity="0"/>
<stop offset="0.262" stop-color="#EDEDFF" stop-opacity="0.416"/>
<stop offset="0.629" stop-color="#D8D8FF"/>
</linearGradient>
<linearGradient id="paint1_linear_1102_32205" x1="65.3229" y1="66.2542" x2="65.3229" y2="19.3669" gradientUnits="userSpaceOnUse">
<stop stop-color="#FF4D4D" stop-opacity="0.4"/>
<stop offset="0.146" stop-color="#FF4D4D" stop-opacity="0.342"/>
<stop offset="1" stop-color="#FF4D4D" stop-opacity="0"/>
</linearGradient>
<linearGradient id="paint2_linear_1102_32205" x1="31.0589" y1="73.7106" x2="31.0589" y2="3.35268" gradientUnits="userSpaceOnUse">
<stop stop-color="#FF4D4D" stop-opacity="0.4"/>
<stop offset="0.146" stop-color="#FF4D4D" stop-opacity="0.342"/>
<stop offset="1" stop-color="#FF4D4D" stop-opacity="0"/>
</linearGradient>
<clipPath id="clip0_1102_32205">
<rect width="80" height="80" fill="white"/>
</clipPath>
</defs>
</svg>
