<svg width="80" height="80" viewBox="0 0 80 80" fill="none" xmlns="http://www.w3.org/2000/svg">
<g clip-path="url(#clip0_1102_32289)">
<path d="M79.3619 19.8917C75.3499 -8.2638 60.4955 12.4878 40.698 13.5595C32.2241 14.0182 23.5355 14.5106 15.4005 17.0114C3.25048 20.7465 -2.72733 35.3179 1.19939 47.1664C2.48908 51.0579 4.62611 54.8053 4.63377 58.9053C4.63845 61.4337 3.62236 64.0298 4.3397 66.4543C7.87267 78.3939 26.8408 76.8271 34.5366 69.0014C40.515 62.922 42.695 52.4493 50.6986 49.5112C70.1697 42.3631 83.0825 46.0014 79.3619 19.8917Z" fill="url(#paint0_linear_1102_32289)"/>
<path d="M14.5824 64.3118C9.27599 61.0628 6.21896 57.6247 7.06989 55.2867C7.85177 53.1392 11.7566 52.4008 17.1576 53.0101L42.2988 62.3504C46.4438 65.2228 48.7022 68.1192 47.9565 70.169C47.0126 72.7608 41.5215 73.2995 34.3421 71.8964L14.5824 64.3118Z" fill="#6C6CFF"/>
<path d="M34.3439 71.8954C37.3008 72.4733 39.9698 72.7209 42.1542 72.6323C42.1586 72.6211 42.1639 72.6104 42.1681 72.5992C42.8859 70.6269 40.3072 67.7265 35.8306 64.9856C33.3645 63.4753 30.3223 62.0144 26.9384 60.7826C24.2217 59.7939 21.5783 59.0597 19.1616 58.5875C14.0153 57.5817 9.89906 57.7595 8.28906 59.1767C9.59078 60.8133 11.7712 62.5886 14.5841 64.3109L34.3439 71.8954Z" fill="#4D4DFF"/>
<path d="M44.8301 64.3105L37.9395 69.1809C36.8817 69.9268 36.0346 70.9332 35.4801 72.1027H35.477C35.1035 72.0387 34.7254 71.9699 34.3426 71.8949L15.6426 64.7168L16.516 61.9621C17.1457 59.9793 18.8207 56.5684 19.3598 53.8262L42.3004 62.3496C43.2473 63.0059 44.0941 63.6621 44.8301 64.3105Z" fill="#4D4DFF"/>
<path d="M15.7432 60.6512L16.5166 58.2122C17.3682 55.5294 17.3932 52.6653 16.6666 49.9481L31.6354 36.684L37.551 33.4856L40.3119 23.1262C40.7182 21.5981 42.2275 20.634 43.7838 20.909C45.5072 21.2122 46.6229 22.8997 46.2229 24.6059L43.6135 35.759L48.9947 24.4575C49.6744 23.0294 51.3697 22.4044 52.8135 23.0481C53.8947 23.5294 54.5432 24.5919 54.5432 25.7106C54.5432 26.059 54.4807 26.4122 54.3494 26.7544L49.115 40.4247L56.6213 29.8247C57.5463 28.5184 59.326 28.1575 60.6869 28.9965C62.1307 29.8872 62.5635 31.7919 61.6416 33.22L53.79 45.3934L53.7354 45.5294L61.1791 39.6856C61.7229 39.259 62.3682 39.0528 63.0104 39.0528C63.8885 39.0528 64.7588 39.4419 65.3432 40.1856C66.3244 41.4309 66.1525 43.2294 64.9541 44.2653L51.7947 55.6419L37.94 65.4309C36.8263 66.2167 35.9471 67.2904 35.3963 68.5372L24.1989 67.1342L15.7432 60.6512Z" fill="#FFD8D8"/>
<path d="M61.5987 39.4106C61.4534 39.4894 61.3127 39.5813 61.1784 39.6866L53.7349 45.5303L25.2871 42.3092V45.9997C25.2871 46.3085 25.3786 46.6103 25.55 46.8671C25.7214 47.124 25.9651 47.3242 26.2502 47.4427L42.8459 54.337C43.0359 54.416 43.2396 54.4566 43.4453 54.4566C43.6511 54.4566 43.8548 54.416 44.0448 54.337L49.4507 52.0913L52.442 55.0825L53.6271 54.058L51.012 51.4428L60.6399 47.443C60.9252 47.3245 61.169 47.1241 61.3404 46.8671C61.5118 46.6101 61.6032 46.308 61.603 45.9991L61.5987 39.4106Z" fill="#FFB2B2"/>
<path d="M35.9838 52.2374C35.8276 52.2374 35.6749 52.1906 35.5455 52.1029C35.4161 52.0153 35.316 51.8909 35.258 51.7458C33.276 46.7827 29.248 43.9908 27.6082 43.021C27.5113 42.9637 27.4279 42.8861 27.3637 42.7935C27.2996 42.7009 27.2562 42.5956 27.2366 42.4847C27.2169 42.3738 27.2215 42.26 27.25 42.1511C27.2784 42.0421 27.3301 41.9406 27.4015 41.8535L32.4068 35.7407C32.4718 35.6613 32.5518 35.5955 32.6422 35.547C32.7326 35.4985 32.8317 35.4683 32.9338 35.4582C33.0359 35.448 33.139 35.4581 33.2372 35.4878C33.3354 35.5175 33.4268 35.5663 33.5062 35.6313C33.5855 35.6963 33.6514 35.7763 33.6998 35.8667C33.7483 35.9571 33.7785 36.0562 33.7887 36.1583C33.7988 36.2604 33.7888 36.3635 33.7591 36.4617C33.7294 36.5599 33.6807 36.6513 33.6157 36.7307L29.1722 42.1572C31.2271 43.5125 34.816 46.4254 36.7091 51.1661C36.7565 51.2847 36.7741 51.413 36.7604 51.5399C36.7467 51.6668 36.7022 51.7884 36.6306 51.8941C36.559 51.9998 36.4627 52.0864 36.3499 52.1462C36.2372 52.2061 36.1115 52.2374 35.9838 52.2374Z" fill="#FF9393"/>
<path d="M66.9456 57.9435H59.3753C59.2726 57.9436 59.171 57.9234 59.0762 57.8841C58.9814 57.8448 58.8953 57.7872 58.8228 57.7146L48.839 47.7309C48.6956 47.5838 48.6159 47.386 48.6172 47.1805C48.6185 46.9751 48.7007 46.7784 48.846 46.6331C48.9914 46.4878 49.1881 46.4056 49.3935 46.4043C49.599 46.403 49.7967 46.4827 49.9439 46.6262L59.6989 56.3812H66.9456C67.0491 56.3797 67.1519 56.3989 67.2479 56.4375C67.344 56.4761 67.4314 56.5334 67.5051 56.6061C67.5789 56.6787 67.6374 56.7654 67.6773 56.8609C67.7173 56.9564 67.7379 57.0588 67.7379 57.1624C67.7379 57.2659 67.7173 57.3684 67.6773 57.4639C67.6374 57.5594 67.5789 57.646 67.5051 57.7187C67.4314 57.7914 67.344 57.8487 67.2479 57.8873C67.1519 57.9259 67.0491 57.945 66.9456 57.9435Z" fill="#4D4DFF"/>
<path d="M61.6031 42.2493C61.6031 42.8821 61.2234 43.4509 60.6406 43.6931L44.0453 50.5884C44.0219 50.5978 43.9969 50.6071 43.9734 50.6165C43.8016 50.6774 43.625 50.7087 43.4453 50.7087L42.6641 35.4135L43.4453 20.8071H61.1891C61.2266 20.8478 61.2609 20.8915 61.2938 20.9353C61.4868 21.2009 61.5907 21.5209 61.5906 21.8493L61.6031 42.2493Z" fill="#FF4D4D"/>
<path d="M61.6016 38.7625C56.45 40.0344 50.1141 40.725 43.4453 40.725V39.1625C50.1578 39.1625 56.5094 38.4547 61.6 37.1516L61.6016 38.7625ZM60.6455 27.9969C56.0408 29.4203 49.9314 30.2047 43.4455 30.2047V28.6422C51.1142 28.6422 57.4814 27.5437 61.5939 26.0234V27.6875C61.2875 27.7922 60.9719 27.8953 60.6455 27.9969Z" fill="#FF2C2C"/>
<path d="M43.4449 20.8071V50.7087C43.2449 50.7087 43.0434 50.6696 42.8543 50.5915C42.8512 50.5899 42.8496 50.5899 42.8465 50.5884L26.2512 43.6931C25.9658 43.575 25.7219 43.375 25.5503 43.1183C25.3787 42.8616 25.2871 42.5597 25.2871 42.2509V21.8493C25.2871 21.5134 25.3949 21.1946 25.5855 20.9337C25.6168 20.8899 25.6512 20.8478 25.6871 20.8071H43.4449Z" fill="#FF6C6C"/>
<path d="M43.4449 39.1629V40.7254C36.7746 40.7254 30.4387 40.0348 25.2871 38.7614V37.152C30.3777 38.4551 36.7309 39.1629 43.4449 39.1629ZM43.4449 28.6426V30.2051C36.959 30.2051 30.8512 29.4208 26.2449 27.9973C25.9152 27.8958 25.5965 27.7911 25.2871 27.6848V26.0208C29.4012 27.5411 35.7699 28.6426 43.4449 28.6426Z" fill="#FF4D4D"/>
<path d="M61.2918 20.9349L43.4418 28.3521L25.584 20.9334C25.7283 20.732 25.9192 20.5686 26.1402 20.4568C26.1418 20.4568 26.1418 20.4552 26.1418 20.4552L42.8434 13.5162C42.8465 13.5146 42.848 13.5146 42.8512 13.5131C43.2074 13.3662 43.6059 13.3584 43.9699 13.4881C43.9934 13.4974 44.0184 13.5068 44.0418 13.5162L60.6262 20.4068C60.6309 20.4084 60.6371 20.4115 60.6418 20.4146C60.902 20.5253 61.1268 20.7053 61.2918 20.9349Z" fill="#FFB2B2"/>
<path d="M43.4456 21.6928C47.1672 21.6928 50.1842 20.9571 50.1842 20.0495C50.1842 19.142 47.1672 18.4062 43.4456 18.4062C39.724 18.4062 36.707 19.142 36.707 20.0495C36.707 20.9571 39.724 21.6928 43.4456 21.6928Z" fill="#FF9393"/>
<path d="M47.498 12.0668L43.4434 17.4793L39.3887 12.0668H40.3418V6.39185C40.3418 5.9606 40.6918 5.6106 41.123 5.6106H45.7621C46.1934 5.6106 46.5434 5.9606 46.5434 6.39185V12.0668H47.498Z" fill="#8282FF"/>
<path d="M42.8557 19.775L37.2401 13.3625C36.7979 12.8563 37.1557 12.0657 37.8276 12.0657H39.3885L43.4432 16.6969L47.4979 12.0657H49.0588C49.7291 12.0657 50.0885 12.8563 49.6463 13.3625L44.0307 19.775C43.9575 19.859 43.8672 19.9262 43.7659 19.9723C43.6645 20.0184 43.5545 20.0422 43.4432 20.0422C43.3319 20.0422 43.2218 20.0184 43.1205 19.9723C43.0191 19.9262 42.9288 19.859 42.8557 19.775Z" fill="#B2B2FF"/>
<path d="M35.2604 51.7447L18.1932 62.1181C17.6104 61.7931 17.0479 61.465 16.5104 61.1353C16.2494 60.9744 15.9947 60.8135 15.7432 60.6525L16.5166 58.2135C17.3682 55.5306 17.3932 52.6666 16.6666 49.9494C15.8791 46.9978 15.6947 42.5853 19.4666 38.5697C24.0729 33.6666 27.3447 30.1322 29.065 28.2635C29.2473 28.0653 29.4673 27.9055 29.7122 27.7936C29.957 27.6816 30.2217 27.6196 30.4908 27.6113C30.7599 27.603 31.028 27.6486 31.2793 27.7452C31.5305 27.8419 31.76 27.9878 31.9541 28.1744C34.0572 30.1916 34.2572 33.4869 32.4088 35.74L26.8072 42.5822C26.8072 42.5821 32.7244 45.3946 35.2604 51.7447Z" fill="#FFD8D8"/>
<path d="M34.3407 71.8962L35.0506 69.4727C35.1439 69.154 35.2582 68.8419 35.3928 68.5384C32.7693 67.9789 29.9454 67.1711 27.049 66.117C23.0376 64.6569 19.4315 62.9252 16.5081 61.1347C16.2506 60.9767 15.9948 60.8159 15.7407 60.6523L14.5811 64.3117C17.5045 66.102 21.1106 67.8339 25.122 69.2941C28.3425 70.4661 31.4759 71.3366 34.3407 71.8962Z" fill="#FFB2B2"/>
<path d="M43.4455 36.9759C35.6639 36.9759 28.3377 36.0359 22.8162 34.3294C16.9284 32.5094 13.8164 30.0708 13.8164 27.2775C13.8164 25.6089 14.9366 24.0614 17.1458 22.678C17.2327 22.6235 17.3296 22.5867 17.4307 22.5697C17.5319 22.5526 17.6354 22.5557 17.7354 22.5787C17.8354 22.6017 17.9299 22.6441 18.0135 22.7036C18.0971 22.7631 18.1681 22.8385 18.2226 22.9254C18.277 23.0124 18.3138 23.1092 18.3309 23.2103C18.3479 23.3115 18.3449 23.4151 18.3219 23.515C18.2989 23.615 18.2565 23.7095 18.197 23.7931C18.1375 23.8767 18.0621 23.9477 17.9752 24.0022C16.7908 24.7439 15.3791 25.9141 15.3791 27.2775C15.3791 29.2295 18.3319 31.3077 23.278 32.8364C28.6539 34.4983 35.8164 35.4134 43.4458 35.4134C51.0752 35.4134 58.2375 34.4983 63.6136 32.8364C68.5597 31.3077 71.5125 29.2295 71.5125 27.2775C71.5125 25.9141 70.1017 24.7438 68.9181 24.0022C68.7479 23.8897 68.6284 23.7152 68.5852 23.5158C68.5419 23.3164 68.5783 23.108 68.6866 22.9351C68.795 22.7623 68.9666 22.6386 69.1649 22.5905C69.3632 22.5425 69.5724 22.5739 69.7478 22.678C71.9555 24.0614 73.0748 25.6091 73.0748 27.2775C73.0748 30.0708 69.9628 32.5092 64.075 34.3294C58.5534 36.0361 51.227 36.9759 43.4455 36.9759Z" fill="#6C6CFF"/>
<path d="M43.4449 26.4543C36.9588 26.4543 30.8505 25.6702 26.2452 24.2468C21.2868 22.714 18.666 20.6423 18.666 18.2551C18.666 15.3174 22.8179 12.7827 30.057 11.3007C30.1575 11.2801 30.2611 11.2795 30.3618 11.2989C30.4626 11.3184 30.5585 11.3575 30.6441 11.414C30.7297 11.4705 30.8034 11.5434 30.8609 11.6284C30.9183 11.7134 30.9585 11.8089 30.979 11.9095C30.9996 12.01 31.0001 12.1135 30.9807 12.2143C30.9612 12.315 30.9221 12.4109 30.8656 12.4965C30.809 12.5822 30.7362 12.6558 30.6512 12.7133C30.5662 12.7708 30.4707 12.8109 30.3702 12.8315C24.2093 14.0926 20.2284 16.2215 20.2284 18.2551C20.2284 21.3941 29.7629 24.8918 43.4448 24.8918C57.1266 24.8918 66.6612 21.3941 66.6612 18.2551C66.6612 16.184 62.5755 14.0338 56.2524 12.7773C56.0519 12.7341 55.8764 12.6139 55.7638 12.4425C55.6511 12.2711 55.6104 12.0622 55.6504 11.8611C55.6903 11.6599 55.8078 11.4825 55.9774 11.3672C56.147 11.2518 56.3552 11.2078 56.557 11.2446C63.9713 12.718 68.2237 15.2732 68.2237 18.2549C68.2237 20.642 65.6029 22.7138 60.6445 24.2466C56.0393 25.6704 49.931 26.4543 43.4449 26.4543Z" fill="#6C6CFF"/>
<path d="M25.6861 20.8069C25.6502 20.8476 25.6158 20.8897 25.5846 20.9335C25.3904 21.1993 25.2859 21.52 25.2861 21.8491V22.2707C22.0663 21.0807 20.2279 19.6333 20.2279 18.2552C20.2279 16.2216 24.2088 14.0927 30.3697 12.8316C30.5693 12.7867 30.7433 12.6652 30.8543 12.4934C30.9654 12.3216 31.0046 12.1131 30.9636 11.9126C30.9226 11.7122 30.8046 11.5359 30.635 11.4215C30.4654 11.3071 30.2577 11.2638 30.0565 11.3008C22.8174 12.7827 18.6655 15.3176 18.6655 18.2552C18.6655 20.4833 20.9497 22.4366 25.2863 23.9335V32.3437C25.0322 32.6169 24.769 32.8996 24.4972 33.1915C24.0885 33.0795 23.6816 32.9612 23.2766 32.8365C18.3305 31.3077 15.3777 29.2296 15.3777 27.2776C15.3777 25.9141 16.7896 24.744 17.9738 24.0022C18.1494 23.8923 18.2741 23.717 18.3205 23.5151C18.3669 23.3132 18.3312 23.1011 18.2212 22.9254C18.1112 22.7498 17.936 22.6251 17.7341 22.5787C17.5321 22.5323 17.32 22.568 17.1444 22.678C14.9352 24.0615 13.8151 25.609 13.8151 27.2776C13.8151 30.0708 16.9271 32.5093 22.8149 34.3294C22.9747 34.3788 23.1371 34.4271 23.2999 34.4752C22.0239 35.8419 20.7458 37.2066 19.4657 38.5694C15.6929 42.5854 15.8776 46.9988 16.6654 49.9493C16.9334 50.9504 17.0987 51.9763 17.1585 53.011L17.1576 53.0107C11.7565 52.4015 7.85177 53.1397 7.06989 55.2872C6.21896 57.6254 9.27599 61.0635 14.5824 64.3124C17.5057 66.1027 21.1119 67.8346 25.1233 69.2947C28.3438 70.4668 31.4772 71.3372 34.3421 71.8969C41.5215 73.3001 47.0126 72.7613 47.9565 70.1696C48.7022 68.1196 46.4438 65.2233 42.2988 62.351L51.7938 55.6429L54.4524 53.3446L58.823 57.7152C58.8956 57.7878 58.9817 57.8453 59.0765 57.8846C59.1713 57.9239 59.2729 57.9441 59.3755 57.9441H66.9458C67.153 57.9441 67.3518 57.8618 67.4983 57.7153C67.6448 57.5688 67.7271 57.3701 67.7271 57.1629C67.7271 56.9557 67.6448 56.757 67.4983 56.6104C67.3518 56.4639 67.153 56.3816 66.9458 56.3816H59.6991L55.6376 52.3201L64.9519 44.2677C66.151 43.2307 66.3237 41.4329 65.3421 40.1872C64.7568 39.4429 63.8865 39.0543 63.0085 39.0543C62.5258 39.0543 62.0415 39.1713 61.6001 39.4104L61.5974 35.0137C62.4292 34.8095 63.2549 34.5814 64.0735 34.3297C69.9613 32.5097 73.0733 30.0712 73.0733 27.2779C73.0733 25.6094 71.954 24.0619 69.7463 22.6783C69.5709 22.5742 69.3616 22.5428 69.1634 22.5909C68.9651 22.6389 68.7935 22.7626 68.6851 22.9355C68.5768 23.1084 68.5404 23.3168 68.5836 23.5162C68.6269 23.7155 68.7464 23.8901 68.9166 24.0026C70.1001 24.7441 71.511 25.9144 71.511 27.2779C71.511 29.2299 68.5582 31.308 63.6121 32.8368C62.945 33.0422 62.2729 33.2312 61.5965 33.4035V33.2888L61.6401 33.2213C62.3235 32.1627 62.2608 30.8424 61.5944 29.8668L61.5908 23.9382C65.9351 22.4408 68.2233 20.486 68.2233 18.2558C68.2233 15.2741 63.971 12.7188 56.5566 11.2455C56.3534 11.2051 56.1424 11.2472 55.9701 11.3623C55.7979 11.4775 55.6784 11.6563 55.638 11.8596C55.5976 12.0628 55.6396 12.2738 55.7548 12.4461C55.87 12.6183 56.0488 12.7378 56.2521 12.7782C62.5751 14.0347 66.6608 16.1849 66.6608 18.256C66.6608 19.636 64.8176 21.0852 61.5897 22.2762L61.5894 21.8501C61.5894 21.5141 61.4816 21.1969 61.2926 20.936C61.2597 20.8922 61.2254 20.8485 61.1879 20.8079C61.0372 20.6386 60.851 20.5047 60.6426 20.4157L48.0536 15.1838L49.6477 13.3632C50.0899 12.8582 49.7313 12.0672 49.0599 12.0672H46.5449V6.39209C46.5449 6.18489 46.4626 5.98618 46.3161 5.83966C46.1696 5.69315 45.9708 5.61084 45.7636 5.61084H41.1251C40.9179 5.61084 40.7191 5.69315 40.5726 5.83966C40.4261 5.98618 40.3438 6.18489 40.3438 6.39209V12.0663H37.8288C37.1574 12.0663 36.7988 12.8571 37.241 13.3622L38.8344 15.1821C38.8344 15.1821 26.1426 20.4568 26.141 20.4568C25.9688 20.544 25.8145 20.6628 25.6861 20.8069Z" fill="url(#paint1_linear_1102_32289)"/>
<path d="M66.9455 61.179H65.0597C64.8525 61.179 64.6538 61.0966 64.5073 60.9501C64.3608 60.8036 64.2785 60.6049 64.2785 60.3977C64.2785 60.1905 64.3608 59.9918 64.5073 59.8453C64.6538 59.6988 64.8525 59.6165 65.0597 59.6165H66.9455C67.1527 59.6165 67.3514 59.6988 67.4979 59.8453C67.6444 59.9918 67.7268 60.1905 67.7268 60.3977C67.7268 60.6049 67.6444 60.8036 67.4979 60.9501C67.3514 61.0966 67.1527 61.179 66.9455 61.179ZM66.9455 63.8215H60.6846C60.4774 63.8215 60.2787 63.7391 60.1321 63.5926C59.9856 63.4461 59.9033 63.2474 59.9033 63.0402C59.9033 62.833 59.9856 62.6343 60.1321 62.4878C60.2787 62.3413 60.4774 62.259 60.6846 62.259H66.9455C67.1527 62.259 67.3514 62.3413 67.4979 62.4878C67.6444 62.6343 67.7268 62.833 67.7268 63.0402C67.7268 63.2474 67.6444 63.4461 67.4979 63.5926C67.3514 63.7391 67.1527 63.8215 66.9455 63.8215ZM66.9455 66.4641H60.6846C60.4774 66.4641 60.2787 66.3818 60.1321 66.2353C59.9856 66.0888 59.9033 65.8901 59.9033 65.6829C59.9033 65.4757 59.9856 65.2769 60.1321 65.1304C60.2787 64.9839 60.4774 64.9016 60.6846 64.9016H66.9455C67.1527 64.9016 67.3514 64.9839 67.4979 65.1304C67.6444 65.2769 67.7268 65.4757 67.7268 65.6829C67.7268 65.8901 67.6444 66.0888 67.4979 66.2353C67.3514 66.3818 67.1527 66.4641 66.9455 66.4641Z" fill="#FF9C33"/>
<path d="M8.67008 46.6003C8.56748 46.6004 8.46587 46.5803 8.37108 46.541C8.27629 46.5017 8.19019 46.4441 8.11773 46.3715C7.96523 46.2189 7.88883 46.019 7.88883 45.8192C7.88883 45.6193 7.96508 45.4192 8.11758 45.2667L8.35383 45.0303C8.4558 44.9289 8.53665 44.8083 8.59169 44.6755C8.64673 44.5427 8.67486 44.4003 8.67445 44.2565C8.67483 44.1127 8.64668 43.9703 8.59165 43.8375C8.53661 43.7046 8.45578 43.584 8.35383 43.4826L8.11758 43.2465C7.96508 43.0939 7.88867 42.894 7.88867 42.6942C7.88867 42.4943 7.96492 42.2942 8.11742 42.1417C8.26393 41.9952 8.46263 41.9129 8.66981 41.9128C8.877 41.9128 9.07571 41.9951 9.22227 42.1415L9.45852 42.3778C9.66523 42.5846 9.94008 42.6985 10.2324 42.6985C10.5248 42.6985 10.7995 42.5846 11.0062 42.3779L11.2424 42.1417C11.3146 42.0676 11.4008 42.0086 11.496 41.9681C11.5911 41.9276 11.6934 41.9064 11.7968 41.9058C11.9003 41.9051 12.0028 41.925 12.0985 41.9643C12.1942 42.0035 12.2811 42.0614 12.3542 42.1345C12.4274 42.2077 12.4853 42.2946 12.5245 42.3903C12.5638 42.486 12.5837 42.5885 12.5831 42.6919C12.5824 42.7953 12.5613 42.8976 12.5208 42.9928C12.4803 43.088 12.4213 43.1742 12.3473 43.2464L12.111 43.4826C12.0091 43.584 11.9282 43.7046 11.8732 43.8375C11.8182 43.9703 11.79 44.1127 11.7904 44.2565C11.7904 44.5487 11.9043 44.8235 12.1109 45.0301L12.3473 45.2668C12.4199 45.3393 12.4775 45.4254 12.5167 45.5203C12.556 45.6151 12.5761 45.7167 12.5759 45.8193C12.5756 45.9738 12.5297 46.1247 12.4438 46.253C12.3578 46.3814 12.2358 46.4814 12.0931 46.5404C11.9504 46.5995 11.7934 46.6149 11.6419 46.5848C11.4904 46.5547 11.3512 46.4804 11.242 46.3712L11.0057 46.1348C10.5793 45.7084 9.88492 45.7082 9.4582 46.1351L9.22211 46.3714C9.14977 46.4441 9.06374 46.5018 8.96899 46.541C8.87424 46.5803 8.77265 46.6005 8.67008 46.6003Z" fill="#6C6CFF"/>
<path d="M34.8057 9.54265C34.6057 9.54265 34.4057 9.4664 34.2532 9.31374L34.0169 9.07734C33.5904 8.65062 32.8961 8.65077 32.4694 9.07749L32.2333 9.31374C32.0858 9.45536 31.8887 9.53352 31.6842 9.53145C31.4798 9.52939 31.2843 9.44727 31.1397 9.3027C30.9951 9.15814 30.9129 8.96266 30.9108 8.7582C30.9086 8.55373 30.9867 8.35659 31.1283 8.20906L31.3646 7.97265C31.4665 7.8713 31.5474 7.75073 31.6024 7.61791C31.6575 7.48509 31.6856 7.34267 31.6852 7.1989C31.6856 7.05511 31.6574 6.91268 31.6024 6.77984C31.5474 6.647 31.4665 6.52639 31.3646 6.42499L31.1283 6.1889C30.9758 6.03624 30.8994 5.8364 30.8994 5.63656C30.8994 5.43671 30.9757 5.23656 31.1282 5.08406C31.2747 4.93756 31.4734 4.85525 31.6806 4.85522C31.8877 4.8552 32.0865 4.93745 32.233 5.0839L32.4693 5.32015C32.676 5.52702 32.9508 5.64093 33.2432 5.64093C33.5355 5.64093 33.8102 5.52702 34.0169 5.32031L34.2533 5.0839C34.4009 4.94233 34.598 4.86422 34.8025 4.86634C35.0069 4.86847 35.2024 4.95064 35.347 5.09525C35.4915 5.23985 35.5737 5.43536 35.5757 5.63982C35.5778 5.84428 35.4996 6.04141 35.358 6.1889L35.1218 6.42515C34.6952 6.85171 34.6952 7.54609 35.1218 7.97265L35.3582 8.20906C35.5107 8.36171 35.5869 8.56171 35.5869 8.76156C35.5869 8.9614 35.5105 9.1614 35.358 9.3139C35.2055 9.4664 35.0057 9.54265 34.8057 9.54265ZM57.31 73.4222C57.2074 73.4223 57.1058 73.4022 57.011 73.3629C56.9163 73.3237 56.8302 73.2661 56.7577 73.1934L56.5214 72.9572C56.3147 72.7503 56.0399 72.6364 55.7475 72.6364C55.4552 72.6364 55.1805 72.7503 54.9738 72.957L54.7374 73.1934C54.6649 73.2665 54.5788 73.3245 54.4839 73.3642C54.3889 73.4039 54.2871 73.4244 54.1842 73.4246C54.0813 73.4248 53.9794 73.4047 53.8843 73.3654C53.7892 73.3261 53.7029 73.2685 53.6301 73.1957C53.5574 73.1229 53.4997 73.0365 53.4605 72.9414C53.4212 72.8463 53.4011 72.7444 53.4014 72.6415C53.4016 72.5386 53.4222 72.4368 53.4619 72.3419C53.5016 72.247 53.5596 72.1609 53.6327 72.0884L53.8689 71.8522C53.9709 71.7508 54.0517 71.6302 54.1067 71.4974C54.1617 71.3646 54.1898 71.2222 54.1894 71.0784C54.1894 70.7862 54.0755 70.5114 53.8689 70.3048L53.6325 70.0683C53.48 69.9156 53.4038 69.7156 53.4038 69.5158C53.4038 69.3159 53.4802 69.1159 53.6327 68.9634C53.7793 68.817 53.978 68.7348 54.1851 68.7348C54.3923 68.7348 54.591 68.8171 54.7375 68.9636L54.9738 69.2C55.4002 69.6266 56.0946 69.6266 56.5213 69.2L56.7575 68.9636C56.905 68.822 57.1022 68.7438 57.3066 68.7459C57.5111 68.7479 57.7066 68.8301 57.8512 68.9746C57.9958 69.1192 58.078 69.3147 58.0801 69.5191C58.0822 69.7236 58.0041 69.9207 57.8625 70.0683L57.6263 70.3047C57.1996 70.7312 57.1996 71.4256 57.6263 71.8523L57.8624 72.0884C58.0149 72.2411 58.0913 72.4409 58.0913 72.6408C58.0913 72.8406 58.015 73.0408 57.8625 73.1933C57.71 73.3458 57.5099 73.4222 57.31 73.4222Z" fill="#FF9C33"/>
<path d="M70.0719 50.2909H68.5094C67.6479 50.2909 66.9469 49.59 66.9469 48.7284V47.1659C66.9469 46.3044 67.6479 45.6034 68.5094 45.6034H70.0719C70.9335 45.6034 71.6344 46.3044 71.6344 47.1659V48.7284C71.6344 49.59 70.9335 50.2909 70.0719 50.2909ZM68.5094 47.1659V48.7294L70.0719 48.7284V47.1659H68.5094ZM11.4268 37.5017H9.86426C9.0027 37.5017 8.30176 36.8008 8.30176 35.9392V34.3767C8.30176 33.5151 9.0027 32.8142 9.86426 32.8142H11.4268C12.2883 32.8142 12.9893 33.5151 12.9893 34.3767V35.9392C12.9893 36.8006 12.2883 37.5017 11.4268 37.5017ZM9.86426 34.3767V35.9403L11.4268 35.9392V34.3767H9.86426Z" fill="#FF6C6C"/>
</g>
<defs>
<linearGradient id="paint0_linear_1102_32289" x1="10.0168" y1="63.5619" x2="44.6407" y2="17.8347" gradientUnits="userSpaceOnUse">
<stop stop-color="white" stop-opacity="0"/>
<stop offset="0.262" stop-color="#EDEDFF" stop-opacity="0.416"/>
<stop offset="0.629" stop-color="#D8D8FF"/>
</linearGradient>
<linearGradient id="paint1_linear_1102_32289" x1="40.0011" y1="73.1827" x2="40.0011" y2="4.50178" gradientUnits="userSpaceOnUse">
<stop stop-color="#FF4D4D" stop-opacity="0.4"/>
<stop offset="0.146" stop-color="#FF4D4D" stop-opacity="0.342"/>
<stop offset="1" stop-color="#FF4D4D" stop-opacity="0"/>
</linearGradient>
<clipPath id="clip0_1102_32289">
<rect width="80" height="80" fill="white"/>
</clipPath>
</defs>
</svg>
