<svg width="80" height="80" viewBox="0 0 80 80" fill="none" xmlns="http://www.w3.org/2000/svg">
<g clip-path="url(#clip0_1102_32541)">
<path d="M79.835 24.9524C74.1013 -17.8231 49.9402 6.70818 22.1958 19.9802C14.303 23.756 3.50047 23.7869 0.652818 33.7051C-2.64 45.1738 7.19626 52.408 15.1124 58.5207C24.6425 65.8796 23.2919 80.3538 38.8656 79.0663C41.8024 78.8235 45.3231 79.1174 47.2205 76.8624C55.073 67.5294 57.2539 53.496 67.4663 46.0522C74.6688 40.8022 81.1231 34.5622 79.835 24.9524Z" fill="url(#paint0_linear_1102_32541)"/>
<path d="M65.5109 16.2637V63.7355C65.5109 64.598 64.8125 65.298 63.9484 65.298H16.0547C15.1906 65.298 14.4922 64.598 14.4922 63.7355V16.2637C14.4922 15.4012 15.1906 14.7012 16.0547 14.7012H63.9484C64.8125 14.7012 65.5109 15.4012 65.5109 16.2637Z" fill="#FFE7DB"/>
<path d="M30.5569 29.4013V29.3028C30.5732 29.3195 30.5883 29.3371 30.6046 29.3537L30.5569 29.4013ZM48.3096 14.7017H16.0518C15.1877 14.7017 14.4893 15.4017 14.4893 16.2642V45.0501C15.1455 45.3657 15.8799 45.6313 16.7033 45.8376C22.6752 47.3392 28.8018 46.2235 29.0002 39.1876C29.8627 39.1704 30.5564 38.4673 30.5564 37.6017V32.8017H38.6549C45.1268 32.8017 50.4658 27.547 50.358 21.0751C50.3189 18.7079 49.5674 16.5157 48.3096 14.7017ZM65.508 45.5423V63.736C65.508 64.5985 64.8096 65.2985 63.9455 65.2985H49.0861V63.661H41.4408C34.9674 63.661 29.6299 58.4063 29.7377 51.9329C29.8424 45.5767 35.0908 40.4704 41.5018 40.597C45.2033 40.6704 48.4986 42.5204 50.5627 45.3251C53.9939 43.211 60.4033 43.5157 65.508 45.5423Z" fill="#FFD5BA"/>
<path d="M29.0061 35.0826L27.5436 37.2076L28.0795 39.2467C26.1232 42.8357 21.367 43.2592 16.7045 42.0873C11.6186 40.8107 9.88418 37.2576 9.32324 34.1529C8.97012 34.2639 8.59355 34.3248 8.20293 34.3248C6.15605 34.3248 4.49512 32.6654 4.49512 30.617C4.49512 28.5701 6.15605 26.9092 8.20293 26.9092C8.50293 26.9092 8.79512 26.9467 9.0748 27.0139V21.3232H29.0061V35.0826Z" fill="#FFD8D8"/>
<path d="M9.32324 34.1519C9.63246 35.867 10.3017 37.7184 11.6951 39.2481L28.0782 39.2478C28.6698 38.1629 29.0061 36.7894 29.0061 35.0825L9.32324 34.1519Z" fill="#FFB2B2"/>
<path d="M8.20248 26.9089C9.50576 26.9089 10.6514 27.5816 11.3123 28.5984C11.4926 28.8758 11.7934 29.0509 12.1242 29.0509C12.2562 29.0509 12.3868 29.0236 12.5077 28.9705C12.6286 28.9175 12.7372 28.8399 12.8266 28.7428C12.916 28.6457 12.9843 28.5311 13.0272 28.4062C13.07 28.2813 13.0865 28.1489 13.0756 28.0173L12.4072 19.9492H6.84983C6.84983 19.9492 4.5117 22.9816 5.94155 27.6787C6.58909 27.1787 7.38436 26.9079 8.20248 26.9089Z" fill="#6C6CFF"/>
<path d="M12.9887 26.9421L12.4095 19.9502H7.64529C6.82857 21.0849 6.48248 22.3879 6.62185 23.7563C6.72857 24.8052 7.1356 26.2168 8.88951 26.9736C9.20934 27.0333 9.51986 27.1352 9.81294 27.2764C9.98248 27.3171 10.1611 27.353 10.349 27.3835C11.6076 27.588 12.4423 27.3211 12.9887 26.9421Z" fill="#4D4DFF"/>
<path d="M13.6378 35.4395H10.1809C9.30484 35.4395 8.59375 34.7284 8.59375 33.8523V23.2845C8.59375 22.4084 9.30484 21.6973 10.1809 21.6973H13.638L13.6378 35.4395Z" fill="#FF6C6C"/>
<path d="M27.1011 28.3826C24.9616 27.8207 22.9647 26.4826 22.8853 26.4302C23.4805 27.662 21.9933 29.0301 18.7077 28.581C15.4189 28.1334 13.9491 25.6716 13.9491 25.6716C13.9491 25.6716 13.3555 27.873 10.3477 27.3843C9.63656 27.2684 9.06047 27.0763 8.59375 26.8351V23.2845C8.59375 22.4084 9.30484 21.6973 10.1809 21.6973H25.5137C26.3916 21.6973 27.1009 22.4084 27.1009 23.2845V28.3826H27.1011Z" fill="#FF4D4D"/>
<path d="M30.5586 23.2843V33.8515C30.5586 34.728 29.8477 35.439 28.9711 35.439H13.6383C12.7617 35.439 12.0508 34.728 12.0508 33.8515V23.2843C12.0508 22.4077 12.7617 21.6968 13.6383 21.6968H28.9711C29.8475 21.6968 30.5586 22.4077 30.5586 23.2843Z" fill="#D8D8FF"/>
<path d="M28.4911 31.4685L30.5583 29.4013V32.8013H29.0442C28.3472 32.8013 27.9987 31.9607 28.4911 31.4685ZM28.9714 21.6968H13.638C12.7614 21.6968 12.0508 22.4074 12.0508 23.284V27.3549C13.5942 26.981 13.9486 25.6713 13.9486 25.6713C13.9486 25.6713 15.4184 28.1333 18.7069 28.5813C21.9953 29.0293 23.4814 27.6596 22.8844 26.429C22.8844 26.429 27.8145 29.7732 30.5588 28.2101V23.284C30.5586 22.4074 29.848 21.6968 28.9714 21.6968Z" fill="#B2B2FF"/>
<path d="M16.1332 33.204H15.0654C14.8582 33.204 14.6595 33.1217 14.513 32.9752C14.3665 32.8287 14.2842 32.63 14.2842 32.4228V31.355C14.2842 31.1478 14.3665 30.9491 14.513 30.8026C14.6595 30.656 14.8582 30.5737 15.0654 30.5737C15.2726 30.5737 15.4713 30.656 15.6179 30.8026C15.7644 30.9491 15.8467 31.1478 15.8467 31.355V31.6415H16.1332C16.3404 31.6415 16.5392 31.7239 16.6857 31.8704C16.8322 32.0169 16.9145 32.2156 16.9145 32.4228C16.9145 32.63 16.8322 32.8287 16.6857 32.9752C16.5392 33.1217 16.3404 33.204 16.1332 33.204Z" fill="#8282FF"/>
<path d="M6.62197 19.9469C6.75354 21.2405 7.34135 23.0855 10.3492 23.5741C13.357 24.0628 13.9501 21.8619 13.9501 21.8619C13.9501 21.8619 15.4199 24.3239 18.7084 24.7719C21.9968 25.2199 23.4829 23.8502 22.8859 22.6197C22.8859 22.6197 29.3009 26.9716 31.5688 23.4272C33.3704 20.6117 29.8176 12.3783 19.0349 12.2036C10.4163 12.0639 6.18916 15.6939 6.62197 19.9469Z" fill="#4D4DFF"/>
<path d="M31.5673 23.4271C32.627 21.771 31.8332 18.2411 28.8064 15.5786C27.9114 17.1428 27.372 18.9335 27.3028 20.8392C27.2542 22.1566 27.4318 23.4725 27.8279 24.7299C29.286 24.9744 30.7176 24.7547 31.5673 23.4271Z" fill="#2C27FF"/>
<path d="M23.0459 33.2045C22.8387 33.2045 22.64 33.1222 22.4935 32.9757C22.347 32.8292 22.2646 32.6305 22.2646 32.4233V31.8433C22.2646 31.6361 22.347 31.4373 22.4935 31.2908C22.64 31.1443 22.8387 31.062 23.0459 31.062C23.2531 31.062 23.4518 31.1443 23.5983 31.2908C23.7448 31.4373 23.8271 31.6361 23.8271 31.8433V32.4233C23.8271 32.6305 23.7448 32.8292 23.5983 32.9757C23.4518 33.1222 23.2531 33.2045 23.0459 33.2045ZM25.2943 33.2045C25.0871 33.2045 24.8884 33.1222 24.7419 32.9757C24.5954 32.8292 24.5131 32.6305 24.5131 32.4233V31.8433C24.5131 31.6361 24.5954 31.4373 24.7419 31.2908C24.8884 31.1443 25.0871 31.062 25.2943 31.062C25.5015 31.062 25.7003 31.1443 25.8468 31.2908C25.9933 31.4373 26.0756 31.6361 26.0756 31.8433V32.4233C26.0756 32.6305 25.9933 32.8292 25.8468 32.9757C25.7003 33.1222 25.5015 33.2045 25.2943 33.2045ZM27.5426 33.2045C27.3354 33.2045 27.1367 33.1222 26.9902 32.9757C26.8437 32.8292 26.7614 32.6305 26.7614 32.4233V31.8433C26.7614 31.6361 26.8437 31.4373 26.9902 31.2908C27.1367 31.1443 27.3354 31.062 27.5426 31.062C27.7498 31.062 27.9485 31.1443 28.095 31.2908C28.2416 31.4373 28.3239 31.6361 28.3239 31.8433V32.4233C28.3239 32.6305 28.2416 32.8292 28.095 32.9757C27.9485 33.1222 27.7498 33.2045 27.5426 33.2045Z" fill="#8282FF"/>
<path d="M30.6059 25.6033C28.4665 23.4277 27.1821 20.4086 27.3027 17.0892C27.5234 11.0147 32.5171 6.10797 38.5945 5.98766C45.0057 5.86094 50.2544 10.9667 50.3596 17.3241C50.4666 23.7964 45.1287 29.0517 38.6555 29.0517H29.0437C28.3476 29.0517 27.9991 28.2102 28.4912 27.718L30.6059 25.6033Z" fill="#FF6C6C"/>
<path d="M37.7456 16.7203H34.0459C33.8387 16.7203 33.64 16.638 33.4935 16.4915C33.347 16.345 33.2646 16.1463 33.2646 15.9391C33.2646 15.7319 33.347 15.5331 33.4935 15.3866C33.64 15.2401 33.8387 15.1578 34.0459 15.1578H37.7456C37.9528 15.1578 38.1515 15.2401 38.298 15.3866C38.4445 15.5331 38.5268 15.7319 38.5268 15.9391C38.5268 16.1463 38.4445 16.345 38.298 16.4915C38.1515 16.638 37.9528 16.7203 37.7456 16.7203ZM43.3203 19.8781H34.0461C33.8389 19.8781 33.6401 19.7958 33.4936 19.6493C33.3471 19.5028 33.2648 19.3041 33.2648 19.0969C33.2648 18.8897 33.3471 18.691 33.4936 18.5444C33.6401 18.3979 33.8389 18.3156 34.0461 18.3156H43.3203C43.5275 18.3156 43.7262 18.3979 43.8727 18.5444C44.0192 18.691 44.1015 18.8897 44.1015 19.0969C44.1015 19.3041 44.0192 19.5028 43.8727 19.6493C43.7262 19.7958 43.5275 19.8781 43.3203 19.8781ZM41.269 23.0359H34.0459C33.8387 23.0359 33.64 22.9536 33.4935 22.8071C33.347 22.6606 33.2646 22.4619 33.2646 22.2547C33.2646 22.0475 33.347 21.8488 33.4935 21.7023C33.64 21.5557 33.8387 21.4734 34.0459 21.4734H41.269C41.4762 21.4734 41.6749 21.5557 41.8214 21.7023C41.968 21.8488 42.0503 22.0475 42.0503 22.2547C42.0503 22.4619 41.968 22.6606 41.8214 22.8071C41.6749 22.9536 41.4762 23.0359 41.269 23.0359ZM43.3203 13.5625H34.0461C33.9435 13.5625 33.8419 13.5423 33.7471 13.503C33.6523 13.4638 33.5662 13.4062 33.4936 13.3337C33.4211 13.2611 33.3635 13.175 33.3243 13.0802C33.285 12.9854 33.2648 12.8838 33.2648 12.7812C33.2648 12.6787 33.285 12.5771 33.3243 12.4823C33.3635 12.3875 33.4211 12.3014 33.4936 12.2288C33.5662 12.1563 33.6523 12.0987 33.7471 12.0595C33.8419 12.0202 33.9435 12 34.0461 12H43.3203C43.4229 12 43.5245 12.0202 43.6192 12.0595C43.714 12.0987 43.8002 12.1563 43.8727 12.2288C43.9452 12.3014 44.0028 12.3875 44.0421 12.4823C44.0813 12.5771 44.1015 12.6787 44.1015 12.7812C44.1015 12.8838 44.0813 12.9854 44.0421 13.0802C44.0028 13.175 43.9452 13.2611 43.8727 13.3337C43.8002 13.4062 43.714 13.4638 43.6192 13.503C43.5245 13.5423 43.4229 13.5625 43.3203 13.5625Z" fill="white"/>
<path d="M69.3133 62.5147C72.7327 62.5147 75.5046 59.2777 75.5046 55.2847C75.5046 51.2917 72.7327 48.0547 69.3133 48.0547C65.894 48.0547 63.1221 51.2917 63.1221 55.2847C63.1221 59.2777 65.894 62.5147 69.3133 62.5147Z" fill="#FF9C33"/>
<path d="M63.1221 55.2848C63.1221 56.9219 63.5886 58.4314 64.3739 59.6433C70.3804 59.2198 73.0757 57.3244 73.0757 53.7217C73.0757 51.5381 71.8782 49.6363 70.0082 48.1013C69.7778 48.0707 69.5457 48.0551 69.3133 48.0547C65.8939 48.0548 63.1221 51.2919 63.1221 55.2848Z" fill="#FF8A00"/>
<path d="M70.5712 52.667V58.3565C70.8564 58.2876 71.1487 58.2527 71.4421 58.2526C73.4898 58.2526 75.1498 59.9126 75.1498 61.9603C75.1498 64.0079 73.4898 65.6679 71.4421 65.6679C71.0515 65.6679 70.6751 65.6071 70.3215 65.4951C69.7618 68.5998 68.0274 72.1531 62.941 73.4309C56.8698 74.9561 50.6387 73.7787 50.6387 66.4257V52.667H70.5712Z" fill="#FFD8D8"/>
<path d="M70.3215 65.4951C70.0123 67.2103 69.343 69.0617 67.9496 70.5914L51.5665 70.5909C50.9749 69.5061 50.6387 68.1325 50.6387 66.4256L70.3215 65.4951Z" fill="#FFB2B2"/>
<path d="M71.0525 54.6271V65.1942C71.0525 66.071 70.3418 66.7817 69.465 66.7817H66.0088V53.0396H69.465C70.3418 53.0396 71.0525 53.7503 71.0525 54.6271Z" fill="#FF6C6C"/>
<path d="M71.0512 54.6271V57.8239C69.1074 59.202 65.7137 59.8099 60.6621 59.7286C57.0184 59.6692 54.4074 59.552 52.5449 59.0645V54.6271C52.5449 53.7505 53.2543 53.0396 54.1309 53.0396H69.4637C70.3402 53.0396 71.0512 53.7505 71.0512 54.6271Z" fill="#FF4D4D"/>
<path d="M67.5967 54.6271V65.1942C67.5967 66.0708 66.8857 66.7817 66.0092 66.7817H50.6748C49.7982 66.7817 49.0889 66.0708 49.0889 65.1942V54.6271C49.0889 53.7505 49.7982 53.0396 50.6748 53.0396H66.0092C66.8857 53.0396 67.5967 53.7505 67.5967 54.6271Z" fill="#D8D8FF"/>
<path d="M51.6092 62.3271C52.1014 62.8192 51.7529 63.6614 51.0561 63.6614H49.0889V54.6271C49.0889 53.7505 49.7982 53.0396 50.6748 53.0396H52.7686C52.5514 55.8271 51.342 58.3333 49.4936 60.213L51.6092 62.3271Z" fill="#B2B2FF"/>
<path d="M67.5967 54.6271V59.2083C65.7764 59.6052 63.4764 59.7739 60.6639 59.7286C53.6592 59.6146 50.4654 59.288 49.0889 56.5161V54.6271C49.0889 53.7505 49.7982 53.0396 50.6748 53.0396H66.0092C66.8857 53.0396 67.5967 53.7505 67.5967 54.6271Z" fill="#B2B2FF"/>
<path d="M64.5805 64.5473H63.5127C63.3055 64.5473 63.1068 64.465 62.9603 64.3185C62.8138 64.172 62.7314 63.9733 62.7314 63.7661C62.7314 63.5589 62.8138 63.3601 62.9603 63.2136C63.1068 63.0671 63.3055 62.9848 63.5127 62.9848H63.7993V62.6982C63.7993 62.491 63.8816 62.2923 64.0281 62.1458C64.1746 61.9993 64.3733 61.917 64.5805 61.917C64.7877 61.917 64.9864 61.9993 65.1329 62.1458C65.2794 62.2923 65.3618 62.491 65.3618 62.6982V63.7661C65.3618 63.9733 65.2794 64.172 65.1329 64.3185C64.9864 64.465 64.7877 64.5473 64.5805 64.5473Z" fill="#8282FF"/>
<path d="M73.0758 49.9717C73.0758 40.0045 48.1289 35.9047 48.1289 45.8042C48.1289 55.1226 49.8802 55.8036 60.6628 55.9783C69.2814 56.118 73.0758 54.2467 73.0758 49.9717Z" fill="#FFAA66"/>
<path d="M56.5994 64.5472C56.3922 64.5472 56.1934 64.4649 56.0469 64.3183C55.9004 64.1718 55.8181 63.9731 55.8181 63.7659V63.1859C55.8181 62.9787 55.9004 62.78 56.0469 62.6335C56.1934 62.487 56.3922 62.4047 56.5994 62.4047C56.8066 62.4047 57.0053 62.487 57.1518 62.6335C57.2983 62.78 57.3806 62.9787 57.3806 63.1859V63.7659C57.3806 63.9731 57.2983 64.1718 57.1518 64.3183C57.0053 64.4649 56.8066 64.5472 56.5994 64.5472ZM54.3511 64.5472C54.1439 64.5472 53.9452 64.4649 53.7987 64.3183C53.6521 64.1718 53.5698 63.9731 53.5698 63.7659V63.1859C53.5698 62.9787 53.6521 62.78 53.7987 62.6335C53.9452 62.487 54.1439 62.4047 54.3511 62.4047C54.5583 62.4047 54.757 62.487 54.9035 62.6335C55.05 62.78 55.1323 62.9787 55.1323 63.1859V63.7659C55.1323 63.9731 55.05 64.1718 54.9035 64.3183C54.757 64.4649 54.5583 64.5472 54.3511 64.5472ZM52.1025 64.5472C51.8953 64.5472 51.6966 64.4649 51.5501 64.3183C51.4035 64.1718 51.3212 63.9731 51.3212 63.7659V63.1859C51.3212 62.9787 51.4035 62.78 51.5501 62.6335C51.6966 62.487 51.8953 62.4047 52.1025 62.4047C52.3097 62.4047 52.5084 62.487 52.6549 62.6335C52.8014 62.78 52.8837 62.9787 52.8837 63.1859V63.7659C52.8837 63.9731 52.8014 64.1718 52.6549 64.3183C52.5084 64.4649 52.3097 64.5472 52.1025 64.5472ZM49.4926 56.4622C51.632 54.2865 52.9162 51.2675 52.7958 47.9481C52.5751 41.8736 47.5814 36.9669 41.504 36.8465C35.0928 36.7198 29.844 41.8256 29.7389 48.183C29.6319 54.6553 34.9698 59.9106 41.443 59.9106H51.0548C51.7509 59.9106 52.0994 59.069 51.6073 58.5769L49.4926 56.4622Z" fill="#8282FF"/>
<path d="M45.9082 47.5147H38.8291C38.6219 47.5147 38.4232 47.4324 38.2767 47.2858C38.1302 47.1393 38.0479 46.9406 38.0479 46.7334C38.0479 46.5262 38.1302 46.3275 38.2767 46.181C38.4232 46.0345 38.6219 45.9522 38.8291 45.9522H45.9082C46.1154 45.9522 46.3141 46.0345 46.4606 46.181C46.6071 46.3275 46.6894 46.5262 46.6894 46.7334C46.6894 46.9406 46.6071 47.1393 46.4606 47.2858C46.3141 47.4324 46.1154 47.5147 45.9082 47.5147ZM45.9082 50.8033H36.6339C36.4267 50.8033 36.228 50.721 36.0815 50.5744C35.935 50.4279 35.8527 50.2292 35.8527 50.022C35.8527 49.8148 35.935 49.6161 36.0815 49.4696C36.228 49.3231 36.4267 49.2408 36.6339 49.2408H45.9082C46.1154 49.2408 46.3141 49.3231 46.4606 49.4696C46.6071 49.6161 46.6894 49.8148 46.6894 50.022C46.6894 50.2292 46.6071 50.4279 46.4606 50.5744C46.3141 50.721 46.1154 50.8033 45.9082 50.8033ZM45.9082 54.0919H36.6339C36.4267 54.0919 36.228 54.0095 36.0815 53.863C35.935 53.7165 35.8527 53.5178 35.8527 53.3106C35.8527 53.1034 35.935 52.9047 36.0815 52.7582C36.228 52.6117 36.4267 52.5294 36.6339 52.5294H45.9082C46.1154 52.5294 46.3141 52.6117 46.4606 52.7582C46.6071 52.9047 46.6894 53.1034 46.6894 53.3106C46.6894 53.5178 46.6071 53.7165 46.4606 53.863C46.3141 54.0095 46.1154 54.0919 45.9082 54.0919ZM38.8291 44.2261H36.6338C36.4266 44.2261 36.2279 44.1438 36.0814 43.9972C35.9348 43.8507 35.8525 43.652 35.8525 43.4448C35.8525 43.2376 35.9348 43.0389 36.0814 42.8924C36.2279 42.7459 36.4266 42.6636 36.6338 42.6636H38.8291C39.0363 42.6636 39.235 42.7459 39.3815 42.8924C39.528 43.0389 39.6104 43.2376 39.6104 43.4448C39.6104 43.652 39.528 43.8507 39.3815 43.9972C39.235 44.1438 39.0363 44.2261 38.8291 44.2261ZM45.9082 44.2261H42.2085C42.0013 44.2261 41.8026 44.1438 41.6561 43.9972C41.5095 43.8507 41.4272 43.652 41.4272 43.4448C41.4272 43.2376 41.5095 43.0389 41.6561 42.8924C41.8026 42.7459 42.0013 42.6636 42.2085 42.6636H45.9082C46.1154 42.6636 46.3141 42.7459 46.4606 42.8924C46.6071 43.0389 46.6894 43.2376 46.6894 43.4448C46.6894 43.652 46.6071 43.8507 46.4606 43.9972C46.3141 44.1438 46.1154 44.2261 45.9082 44.2261Z" fill="white"/>
<path d="M69.6173 49.9132C69.4806 49.9133 69.3462 49.8776 69.2276 49.8094C69.109 49.7413 69.0104 49.6433 68.9416 49.5251C66.4814 45.301 61.1452 45.2321 61.0914 45.2319C60.6606 45.2304 60.3117 44.8802 60.3125 44.4493C60.3133 44.0183 60.662 43.6694 61.093 43.6694C61.348 43.6694 67.3728 43.7271 70.2917 48.7387C70.3609 48.8573 70.3975 48.9921 70.3979 49.1295C70.3984 49.2668 70.3626 49.4018 70.2942 49.5209C70.2258 49.64 70.1272 49.739 70.0084 49.8079C69.8896 49.8767 69.7547 49.9131 69.6173 49.9132Z" fill="#FF8A00"/>
<path d="M61.0848 30.2822H58.4443C58.2371 30.2822 58.0384 30.1999 57.8919 30.0534C57.7454 29.9069 57.6631 29.7082 57.6631 29.501C57.6631 29.2938 57.7454 29.0951 57.8919 28.9485C58.0384 28.802 58.2371 28.7197 58.4443 28.7197H61.0848C61.292 28.7197 61.4907 28.802 61.6372 28.9485C61.7837 29.0951 61.8661 29.2938 61.8661 29.501C61.8661 29.7082 61.7837 29.9069 61.6372 30.0534C61.4907 30.1999 61.292 30.2822 61.0848 30.2822Z" fill="#FF6C6C"/>
<path d="M61.0866 33.2266H54.4676C54.2604 33.2266 54.0617 33.1443 53.9151 32.9977C53.7686 32.8512 53.6863 32.6525 53.6863 32.4453C53.6863 32.2381 53.7686 32.0394 53.9151 31.8929C54.0617 31.7464 54.2604 31.6641 54.4676 31.6641H61.0866C61.2938 31.6641 61.4926 31.7464 61.6391 31.8929C61.7856 32.0394 61.8679 32.2381 61.8679 32.4453C61.8679 32.6525 61.7856 32.8512 61.6391 32.9977C61.4926 33.1443 61.2938 33.2266 61.0866 33.2266ZM61.0866 36.1713H54.4676C54.2604 36.1713 54.0617 36.0889 53.9151 35.9424C53.7686 35.7959 53.6863 35.5972 53.6863 35.39C53.6863 35.1828 53.7686 34.9841 53.9151 34.8376C54.0617 34.6911 54.2604 34.6088 54.4676 34.6088H61.0866C61.2938 34.6088 61.4926 34.6911 61.6391 34.8376C61.7856 34.9841 61.8679 35.1828 61.8679 35.39C61.8679 35.5972 61.7856 35.7959 61.6391 35.9424C61.4926 36.0889 61.2938 36.1713 61.0866 36.1713ZM21.5565 55.4275H18.916C18.7088 55.4275 18.5101 55.3452 18.3636 55.1987C18.2171 55.0522 18.1348 54.8535 18.1348 54.6462C18.1348 54.439 18.2171 54.2403 18.3636 54.0938C18.5101 53.9473 18.7088 53.865 18.916 53.865H21.5565C21.7637 53.865 21.9624 53.9473 22.1089 54.0938C22.2554 54.2403 22.3377 54.439 22.3377 54.6462C22.3377 54.8535 22.2554 55.0522 22.1089 55.1987C21.9624 55.3452 21.7637 55.4275 21.5565 55.4275ZM25.5351 58.3722H18.916C18.7088 58.3722 18.5101 58.2899 18.3636 58.1434C18.2171 57.9969 18.1348 57.7981 18.1348 57.5909C18.1348 57.3837 18.2171 57.185 18.3636 57.0385C18.5101 56.892 18.7088 56.8097 18.916 56.8097H25.5351C25.7423 56.8097 25.941 56.892 26.0875 57.0385C26.234 57.185 26.3163 57.3837 26.3163 57.5909C26.3163 57.7981 26.234 57.9969 26.0875 58.1434C25.941 58.2899 25.7423 58.3722 25.5351 58.3722ZM25.5351 61.3169H18.916C18.7088 61.3169 18.5101 61.2346 18.3636 61.0881C18.2171 60.9415 18.1348 60.7428 18.1348 60.5356C18.1348 60.3284 18.2171 60.1297 18.3636 59.9832C18.5101 59.8367 18.7088 59.7544 18.916 59.7544H25.5351C25.7423 59.7544 25.941 59.8367 26.0875 59.9832C26.234 60.1297 26.3163 60.3284 26.3163 60.5356C26.3163 60.7428 26.234 60.9415 26.0875 61.0881C25.941 61.2346 25.7423 61.3169 25.5351 61.3169Z" fill="#9393FF"/>
<path d="M75.5047 55.2847C75.5047 52.9358 74.5448 50.8494 73.0589 49.5288C72.8014 46.0956 69.5675 43.4002 65.5098 41.7913V16.2638C65.5098 15.4013 64.8114 14.7013 63.9473 14.7013H50.0116C48.7358 9.62204 44.0948 5.87891 38.595 5.98766C33.345 6.09141 28.9066 9.76844 27.6523 14.6833C25.5794 13.2713 22.732 12.2633 19.0339 12.2033C10.4153 12.0636 6.18828 15.6936 6.62094 19.9466C6.63062 20.0413 6.64297 20.1391 6.65828 20.2388C6.13 21.0984 4.77062 23.8288 5.94281 27.6792H5.94297C5.06344 28.3572 4.49609 29.4205 4.49609 30.6169C4.49609 32.6645 6.15609 34.3245 8.20375 34.3245C8.35781 34.3245 8.50891 34.3125 8.65797 34.2941C8.72545 34.5252 8.84453 34.738 9.00622 34.9164C9.16791 35.0949 9.368 35.2342 9.59141 35.3241C10.2234 37.5905 11.5927 39.9128 14.4908 41.2999V63.7356C14.4908 64.5981 15.1892 65.2981 16.0533 65.2981H49.0925C49.1456 66.1161 49.8159 66.7649 50.6439 66.78C50.842 73.8159 56.9688 74.9309 62.9411 73.4306C67.3961 72.3114 69.2795 69.4467 70.0545 66.6666C70.2778 66.5768 70.4777 66.4374 70.6393 66.2591C70.8009 66.0808 70.9199 65.8682 70.9873 65.6372C71.1366 65.6556 71.2878 65.6677 71.442 65.6677C73.4897 65.6677 75.1497 64.0077 75.1497 61.96C75.1497 61.0566 74.8262 60.2291 74.2894 59.5858C75.0528 58.3839 75.5047 56.8961 75.5047 55.2847Z" fill="url(#paint1_linear_1102_32541)"/>
<path d="M8.54102 59.3921H6.97852C6.11695 59.3921 5.41602 58.6912 5.41602 57.8296V56.2671C5.41602 55.4055 6.11695 54.7046 6.97852 54.7046H8.54102C9.40258 54.7046 10.1035 55.4055 10.1035 56.2671V57.8296C10.1035 58.6913 9.40258 59.3921 8.54102 59.3921ZM6.97852 56.2671V57.8305L8.54102 57.8296V56.2671H6.97852Z" fill="#FF9C33"/>
<path d="M71.9697 23.8931H70.4072C69.5457 23.8931 68.8447 23.1921 68.8447 22.3306V20.7681C68.8447 19.9065 69.5457 19.2056 70.4072 19.2056H71.9697C72.8313 19.2056 73.5322 19.9065 73.5322 20.7681V22.3306C73.5322 23.1921 72.8313 23.8931 71.9697 23.8931ZM70.4072 20.7681V22.3315L71.9697 22.3306V20.7681H70.4072Z" fill="#FF6C6C"/>
<path d="M73.1895 34.1138H71.627C70.7654 34.1138 70.0645 33.4128 70.0645 32.5513V30.9888C70.0645 30.1272 70.7654 29.4263 71.627 29.4263H73.1895C74.051 29.4263 74.752 30.1272 74.752 30.9888V32.5513C74.752 33.4128 74.051 34.1138 73.1895 34.1138ZM71.627 30.9888V32.5522L73.1895 32.5513V30.9888H71.627Z" fill="#6C6CFF"/>
<path d="M25.4629 8.38476C25.3603 8.38489 25.2587 8.36475 25.1639 8.3255C25.0691 8.28624 24.983 8.22864 24.9105 8.15601L24.6741 7.91976C24.2474 7.49288 23.5529 7.49304 23.1265 7.91976L22.8904 8.15585C22.7437 8.30132 22.5453 8.38276 22.3387 8.38234C22.1321 8.38191 21.9341 8.29967 21.788 8.15359C21.6418 8.00752 21.5595 7.80951 21.5591 7.60291C21.5586 7.3963 21.64 7.19791 21.7854 7.05116L22.0216 6.81491C22.2285 6.60819 22.3424 6.33335 22.3424 6.04101C22.3424 5.74866 22.2285 5.47397 22.0218 5.26726L21.7854 5.03085C21.7127 4.95838 21.6551 4.87225 21.6159 4.77744C21.5766 4.68262 21.5565 4.58097 21.5566 4.47835C21.5567 4.32384 21.6025 4.17281 21.6884 4.04435C21.7743 3.9159 21.8963 3.81579 22.039 3.75668C22.1818 3.69758 22.3389 3.68213 22.4904 3.7123C22.642 3.74247 22.7811 3.81689 22.8904 3.92616L23.1266 4.16241C23.553 4.58882 24.2471 4.58913 24.6741 4.16241L24.9105 3.92601C25.0198 3.81676 25.159 3.74237 25.3106 3.71225C25.4622 3.68213 25.6192 3.69763 25.762 3.75679C25.9047 3.81594 26.0267 3.9161 26.1126 4.04459C26.1984 4.17309 26.2442 4.32414 26.2441 4.47866C26.2443 4.58127 26.2241 4.6829 26.1848 4.77769C26.1456 4.87249 26.0879 4.95857 26.0152 5.03101L25.7788 5.26726C25.5723 5.47382 25.4584 5.74866 25.4584 6.04101C25.4584 6.33335 25.5723 6.60804 25.7788 6.81476L26.0152 7.05101C26.0879 7.12344 26.1456 7.20953 26.1848 7.30432C26.2241 7.39911 26.2443 7.50074 26.2441 7.60335C26.2441 7.80335 26.168 8.00335 26.0154 8.15585C25.8627 8.30835 25.6627 8.38476 25.4629 8.38476Z" fill="#FF9C33"/>
<path d="M41.5625 74.5586C41.3625 74.5586 41.1625 74.4823 41.01 74.3297L40.7737 74.0934C40.3472 73.6669 39.653 73.6667 39.2261 74.0934L38.99 74.3297C38.8433 74.4751 38.6449 74.5566 38.4383 74.5561C38.2317 74.5557 38.0337 74.4735 37.8876 74.3274C37.7415 74.1813 37.6592 73.9833 37.6587 73.7767C37.6582 73.5701 37.7396 73.3717 37.885 73.225L38.1212 72.9887C38.3281 72.782 38.442 72.5072 38.442 72.2148C38.442 71.9225 38.3281 71.6478 38.1214 71.4411L37.8852 71.2048C37.7325 71.0522 37.6562 70.8523 37.6562 70.6523C37.6562 70.4523 37.7325 70.2525 37.8852 70.0998C38.0317 69.9534 38.2303 69.8711 38.4375 69.8711C38.6447 69.8711 38.8433 69.9534 38.9898 70.0998L39.2261 70.3361C39.6527 70.7626 40.347 70.7626 40.7739 70.3361L41.0102 70.0998C41.0826 70.0268 41.1688 69.9687 41.2637 69.9291C41.3586 69.8894 41.4604 69.8689 41.5633 69.8687C41.6662 69.8684 41.7681 69.8886 41.8632 69.9278C41.9583 69.9671 42.0447 70.0248 42.1174 70.0976C42.1902 70.1703 42.2478 70.2567 42.2871 70.3518C42.3263 70.4469 42.3464 70.5488 42.3462 70.6517C42.3459 70.7546 42.3254 70.8564 42.2857 70.9513C42.246 71.0463 42.1879 71.1324 42.1148 71.2048L41.8786 71.4411C41.7767 71.5424 41.6958 71.663 41.6408 71.7958C41.5858 71.9287 41.5576 72.0711 41.558 72.2148C41.5576 72.3586 41.5857 72.501 41.6408 72.6339C41.6958 72.7667 41.7766 72.8873 41.8786 72.9887L42.115 73.2251C42.1877 73.2976 42.2453 73.3837 42.2845 73.4785C42.3238 73.5734 42.3439 73.675 42.3438 73.7776C42.3438 73.9775 42.2675 74.1775 42.1148 74.33C41.9622 74.4825 41.7623 74.5586 41.5625 74.5586Z" fill="#6C6CFF"/>
</g>
<defs>
<linearGradient id="paint0_linear_1102_32541" x1="10.0158" y1="66.1834" x2="49.7313" y2="19.3192" gradientUnits="userSpaceOnUse">
<stop stop-color="white" stop-opacity="0"/>
<stop offset="0.262" stop-color="#EDEDFF" stop-opacity="0.416"/>
<stop offset="0.629" stop-color="#D8D8FF"/>
</linearGradient>
<linearGradient id="paint1_linear_1102_32541" x1="40.0005" y1="74.955" x2="40.0005" y2="3.94657" gradientUnits="userSpaceOnUse">
<stop stop-color="#FF4D4D" stop-opacity="0.4"/>
<stop offset="0.146" stop-color="#FF4D4D" stop-opacity="0.342"/>
<stop offset="1" stop-color="#FF4D4D" stop-opacity="0"/>
</linearGradient>
<clipPath id="clip0_1102_32541">
<rect width="80" height="80" fill="white"/>
</clipPath>
</defs>
</svg>
