<svg width="256" height="67" viewBox="0 0 256 67" fill="none" xmlns="http://www.w3.org/2000/svg">
<path d="M0 51.1506V42.7956L32.0272 0.928223H44.9309L13.3679 42.7956L7.33376 40.939H58.8558V51.1506H0ZM35.6476 65.9109V51.1506L36.019 40.939V27.8496H47.3445V65.9109H35.6476Z" fill="#2A8DFF"/>
<path d="M91.8493 66.8393C86.7125 66.8393 82.0709 65.5397 77.9244 62.9404C73.8398 60.3411 70.6216 56.5659 68.2698 51.6148C65.9181 46.6019 64.7422 40.5368 64.7422 33.4197C64.7422 26.3025 65.9181 20.2684 68.2698 15.3174C70.6216 10.3044 73.8398 6.49827 77.9244 3.89896C82.0709 1.29965 86.7125 0 91.8493 0C97.0479 0 101.689 1.29965 105.774 3.89896C109.859 6.49827 113.077 10.3044 115.429 15.3174C117.842 20.2684 119.049 26.3025 119.049 33.4197C119.049 40.5368 117.842 46.6019 115.429 51.6148C113.077 56.5659 109.859 60.3411 105.774 62.9404C101.689 65.5397 97.0479 66.8393 91.8493 66.8393ZM91.8493 56.3493C94.8818 56.3493 97.512 55.5447 99.74 53.9356C101.968 52.2647 103.701 49.7272 104.939 46.3234C106.238 42.9195 106.888 38.6183 106.888 33.4197C106.888 28.1592 106.238 23.8579 104.939 20.516C103.701 17.1121 101.968 14.6056 99.74 12.9965C97.512 11.3256 94.8818 10.4901 91.8493 10.4901C88.9405 10.4901 86.3412 11.3256 84.0513 12.9965C81.8234 14.6056 80.0595 17.1121 78.7599 20.516C77.5221 23.8579 76.9032 28.1592 76.9032 33.4197C76.9032 38.6183 77.5221 42.9195 78.7599 46.3234C80.0595 49.7272 81.8234 52.2647 84.0513 53.9356C86.3412 55.5447 88.9405 56.3493 91.8493 56.3493Z" fill="#2A8DFF"/>
<path d="M124.938 51.1506V42.7956L156.965 0.928223H169.868L138.305 42.7956L132.271 40.939H183.793V51.1506H124.938ZM160.585 65.9109V51.1506L160.956 40.939V27.8496H172.282V65.9109H160.585Z" fill="#2A8DFF"/>
<path d="M223.642 26.2509C222.025 26.2509 220.646 25.7041 219.505 24.6103C218.364 23.4689 217.793 22.0422 217.793 20.3302C217.793 18.5231 218.364 17.0964 219.505 16.0502C220.646 14.9564 222.025 14.4095 223.642 14.4095C225.259 14.4095 226.638 14.9564 227.78 16.0502C228.921 17.0964 229.492 18.5231 229.492 20.3302C229.492 22.0422 228.921 23.4689 227.78 24.6103C226.638 25.7041 225.259 26.2509 223.642 26.2509ZM223.642 53.4292C222.025 53.4292 220.646 52.8823 219.505 51.7886C218.364 50.6472 217.793 49.2205 217.793 47.5085C217.793 45.7014 218.364 44.2747 219.505 43.2285C220.646 42.1347 222.025 41.5878 223.642 41.5878C225.259 41.5878 226.638 42.1347 227.78 43.2285C228.921 44.2747 229.492 45.7014 229.492 47.5085C229.492 49.2205 228.921 50.6472 227.78 51.7886C226.638 52.8823 225.259 53.4292 223.642 53.4292Z" fill="#2A8DFF"/>
<path d="M247.05 66.7687C244.244 62.4411 242.08 57.4477 240.559 51.7886C239.084 46.0818 238.347 39.9471 238.347 33.3843C238.347 26.8216 239.084 20.6869 240.559 14.9802C242.08 9.22588 244.244 4.23249 247.05 0H255.539C252.638 5.23117 250.498 10.5812 249.119 16.0502C247.787 21.4716 247.121 27.2496 247.121 33.3843C247.121 39.5191 247.787 45.3209 249.119 50.7899C250.498 56.2113 252.638 61.5375 255.539 66.7687H247.05Z" fill="#2A8DFF"/>
</svg>
