<svg width="64" height="65" viewBox="0 0 64 65" fill="none" xmlns="http://www.w3.org/2000/svg">
<g clip-path="url(#clip0_2211_51775)">
<path d="M61.7518 8.67113C57.1928 -6.86449 43.5571 8.12001 34.1916 8.75401C26.2415 9.29213 21.3823 0.0986328 14.2173 0.0986328C-3.52778 0.0986328 -6.14441 27.4986 14.8735 36.9229C25.7116 41.7826 26.4918 57.3538 36.5622 62.505C41.4536 65.007 51.1228 64.4314 53.0468 58.5221C53.8285 56.1215 52.1748 53.5246 52.5095 51.0226C53.0995 46.6115 55.0385 42.3916 57.7781 38.6268C66.0272 27.291 64.6411 18.5169 61.7518 8.67113Z" fill="url(#paint0_linear_2211_51775)"/>
<path d="M22.5658 21.4647C24.5878 20.9031 27.0695 20.4801 29.8304 20.2482C30.0177 20.2326 30.1924 20.1471 30.3197 20.0088C30.447 19.8705 30.5177 19.6894 30.5179 19.5014V10.0347C30.5179 9.59562 30.1416 9.24925 29.7041 9.287C22.4305 9.91537 17.125 11.8732 17.125 14.1925L17.7181 21.4647H22.5658Z" fill="#9393FF"/>
<path d="M23.6303 18.6933C25.3527 18.6933 26.749 17.297 26.749 15.5747C26.749 13.8523 25.3527 12.4561 23.6303 12.4561C21.908 12.4561 20.5117 13.8523 20.5117 15.5747C20.5117 17.297 21.908 18.6933 23.6303 18.6933Z" fill="#FF6C6C"/>
<path d="M23.2208 17.0124C23.1387 17.0125 23.0575 16.9964 22.9816 16.965C22.9058 16.9336 22.8369 16.8875 22.7789 16.8294L21.9817 16.0321C21.9224 15.9744 21.8753 15.9054 21.8429 15.8293C21.8105 15.7532 21.7935 15.6714 21.793 15.5886C21.7925 15.5059 21.8084 15.4238 21.8398 15.3473C21.8712 15.2708 21.9175 15.2012 21.976 15.1427C22.0345 15.0842 22.104 15.0379 22.1806 15.0064C22.2571 14.975 22.3391 14.9591 22.4219 14.9596C22.5046 14.9601 22.5864 14.9771 22.6626 15.0095C22.7387 15.0418 22.8077 15.089 22.8654 15.1483L23.2208 15.5035L24.4034 14.321C24.5212 14.2063 24.6793 14.1425 24.8437 14.1436C25.0081 14.1446 25.1655 14.2104 25.2817 14.3266C25.3979 14.4429 25.4637 14.6003 25.4647 14.7646C25.4657 14.929 25.402 15.0872 25.2872 15.2049L23.6627 16.8294C23.6047 16.8875 23.5358 16.9336 23.46 16.965C23.3842 16.9964 23.3029 17.0125 23.2208 17.0124Z" fill="white"/>
<path d="M22.5669 18.4538V27.8546C22.5669 28.3656 22.0667 28.7255 21.581 28.567C18.8097 27.6626 17.125 26.4698 17.125 25.1633V14.1924C17.125 15.5681 18.9931 16.8168 22.0309 17.7353C22.3481 17.8313 22.5669 18.1223 22.5669 18.4538Z" fill="#D8D8FF"/>
<path d="M41.4326 21.4647C39.4106 20.9031 36.9288 20.4801 34.168 20.2482C33.9806 20.2326 33.806 20.1471 33.6787 20.0088C33.5513 19.8705 33.4806 19.6894 33.4805 19.5014V10.0347C33.4805 9.59562 33.8567 9.24925 34.2942 9.287C41.5678 9.91537 46.8733 11.8732 46.8733 14.1925L46.2802 21.4647H41.4326Z" fill="#9393FF"/>
<path d="M38.6683 9.86426L36.4202 10.8678H36.418V15.5428C36.418 15.74 36.534 15.9189 36.7142 15.9994L39.972 17.4534C40.0361 17.482 40.1055 17.4968 40.1757 17.4968C40.2459 17.4968 40.3154 17.482 40.3795 17.4534L43.6372 15.9994C43.7254 15.96 43.8004 15.8959 43.8529 15.8149C43.9055 15.7339 43.9335 15.6394 43.9335 15.5428V11.3595C42.5606 10.76 40.764 10.2496 38.6683 9.86426Z" fill="#8282FF"/>
<path d="M41.4375 18.4539V27.8548C41.4375 28.3658 41.9376 28.7256 42.4234 28.5671C45.1946 27.6628 46.8794 26.4699 46.8794 25.1634V23.5624L46.2544 21.3986L46.8794 19.1029V14.1924C46.8794 15.5681 45.0112 16.8168 41.9735 17.7353C41.6562 17.8314 41.4375 18.1224 41.4375 18.4539Z" fill="#D8D8FF"/>
<path d="M44.6445 21.3313C44.6445 22.5628 45.6428 23.5611 46.8743 23.5611V19.1016C45.6428 19.1016 44.6445 20.0999 44.6445 21.3313Z" fill="#FFAA66"/>
<path d="M37.6675 54.2373C41.0261 53.6162 43.2838 52.4598 43.2838 51.1357C43.2838 49.1552 38.2324 47.5498 32.0012 47.5498C25.7701 47.5498 20.7188 49.1553 20.7188 51.1357C20.7188 52.4597 22.9765 53.6161 26.335 54.2373H37.6675Z" fill="#6C6CFF"/>
<path d="M37.6627 54.2368C39.0447 53.9811 40.2403 53.6349 41.169 53.2235C40.4143 51.8304 36.5951 50.7705 31.9966 50.7705C27.398 50.7705 23.5788 51.8304 22.8242 53.2235C23.7528 53.6348 24.9485 53.9811 26.3305 54.2368H37.6627Z" fill="#4D4DFF"/>
<path d="M59.6519 34.6799L56.0557 36.4624C55.3729 36.7998 54.6348 37.0111 53.8769 37.0861L43.5219 38.1011L40.4885 38.205C39.314 38.2453 38.367 39.1803 38.3119 40.3543L37.6607 54.2375C35.9957 54.545 34.0594 54.7213 31.9944 54.7213C29.9294 54.7213 27.9932 54.545 26.3282 54.2375L25.6769 40.3505C25.6218 39.1755 24.6733 38.24 23.4975 38.2011L20.4668 38.1011L10.1118 37.0861C9.35428 37.0111 8.61553 36.7999 7.93303 36.4624L4.33678 34.6799C3.38678 34.2086 2.97803 33.0711 3.41053 32.1036L3.73678 31.3749C4.11803 30.5211 5.11178 30.1274 5.97428 30.4886L7.41803 31.0911L7.41678 29.2811C7.41678 28.9261 7.63053 28.5949 7.96803 28.4861C8.37553 28.3536 8.80928 28.5649 8.96053 28.9574L10.423 32.7374C10.6468 33.3161 11.1868 33.7124 11.8055 33.7511L19.163 34.2211L29.1805 32.9724C29.6567 32.9128 30.0623 32.5663 30.1798 32.0695C30.2009 31.9803 30.208 31.888 30.208 31.7961V28.0674H33.7805V31.8086C33.7805 32.2061 33.9818 32.5886 34.343 32.8111C34.4905 32.9024 34.6593 32.9536 34.8305 32.9749L44.8255 34.2211L52.183 33.7511C52.8018 33.7124 53.3418 33.3161 53.5655 32.7374L55.028 28.9574C55.1017 28.7667 55.2457 28.6116 55.4303 28.5239C55.615 28.4362 55.8262 28.4227 56.0205 28.4861C56.358 28.5949 56.5718 28.9261 56.5718 29.2811L56.5705 31.0911L58.0143 30.4886C58.8768 30.1274 59.8705 30.5211 60.2518 31.3749L60.578 32.1036C61.0107 33.0711 60.6019 34.2086 59.6519 34.6799Z" fill="#FFB2B2"/>
<path d="M27.7844 46.7285C27.7844 45.693 26.9449 44.8535 25.9094 44.8535C25.9044 44.8535 25.8995 44.8543 25.8945 44.8543L26.0699 48.5954C27.0302 48.5138 27.7844 47.7099 27.7844 46.7285Z" fill="#FF9393"/>
<path d="M26.014 47.3868C28.0981 46.3286 30.2757 45.1099 32.4846 43.7614C34.3711 44.7773 36.231 45.7048 38.0292 46.5303L38.0925 45.1816C36.6147 44.4913 35.1546 43.7637 33.7136 42.9994C35.2984 42.0031 36.8577 40.967 38.3901 39.892C38.6362 38.9438 39.4801 38.2399 40.4954 38.2051L40.7375 38.1969C42.5525 36.8469 44.247 35.4906 45.7812 34.1608L44.8325 34.2214L43.9165 34.1071C41.2774 36.311 38.2169 38.571 34.9234 40.7359C34.1048 41.274 33.279 41.8011 32.4464 42.3173C31.5912 41.8498 30.7423 41.371 29.8999 40.881C26.1606 38.7039 22.6957 36.3973 19.7646 34.1471L19.1699 34.2213L17.7188 34.1285C19.3821 35.468 21.2465 36.8359 23.2571 38.1931L23.5044 38.2013C24.4521 38.2325 25.2514 38.8469 25.555 39.6993C26.7787 40.4776 28.0176 41.2316 29.271 41.961C29.9162 42.3362 30.5651 42.7049 31.2176 43.0673C29.4235 44.1459 27.6561 45.1341 25.9494 46.0156L26.014 47.3868ZM32.7549 32.7854C33.2319 32.7761 33.7015 32.7328 34.1499 32.6535C34.0356 32.5444 33.9447 32.4133 33.8824 32.2681C33.8202 32.1229 33.788 31.9666 33.7878 31.8086V28.0674H30.2153V31.7961C30.2153 31.8879 30.2082 31.9801 30.187 32.0695C30.1826 32.0881 30.175 32.1051 30.1699 32.1234C30.8249 32.541 31.6669 32.8065 32.7549 32.7854Z" fill="#FF9393"/>
<path d="M30.0507 25.371L28.862 21L25.5302 21.9061C25.5302 21.9061 24.373 24.0581 26.0276 26.4653L30.0507 25.371Z" fill="#8282FF"/>
<path d="M26.8828 22.6892L27.5737 25.2297C27.4407 25.2336 27.3062 25.2527 27.1722 25.2891C26.2578 25.5377 25.7182 26.4806 25.9668 27.3949C26.2154 28.3093 27.1583 28.8489 28.0727 28.6003C28.2425 28.5542 28.4041 28.4823 28.552 28.3871C29.179 29.7054 30.3849 31.0814 32.8114 31.0343C35.7077 30.9781 38.347 29.6957 37.454 26.4123L35.7832 20.2686L26.8828 22.6892Z" fill="#FFD8D8"/>
<path d="M37.453 26.4115L36.0762 21.3486L27.1758 23.7691L27.5728 25.2288L28.5512 28.3861C28.8958 29.1108 29.416 29.8524 30.217 30.3659L37.5454 28.3729C37.6752 27.819 37.6592 27.1691 37.453 26.4115Z" fill="#FFB2B2"/>
<path d="M31.0297 28.3311L29.0973 28.8566C28.9094 28.9077 28.7088 28.882 28.5397 28.7853C28.3707 28.6885 28.247 28.5285 28.1958 28.3406L26.9125 23.6217C26.8613 23.4337 26.887 23.2331 26.9838 23.0641C27.0805 22.895 27.2405 22.7713 27.4285 22.7202L29.1108 22.2627L31.0297 28.3311Z" fill="#FF6C6C"/>
<path d="M35.9439 24.1971L35.1764 21.3748C35.1511 21.2817 35.1077 21.1945 35.0487 21.1182C34.9897 21.0419 34.9163 20.9779 34.8326 20.93C34.7489 20.8821 34.6565 20.8511 34.5608 20.8389C34.4651 20.8267 34.368 20.8335 34.2749 20.8588L27.4284 22.7208C27.2405 22.772 27.0805 22.8957 26.9838 23.0647C26.887 23.2338 26.8614 23.4343 26.9124 23.6223L27.521 25.8604C27.596 25.8577 27.6709 25.8526 27.7455 25.8451C29.1699 25.6957 29.1674 24.6244 29.1674 24.6244C29.1674 24.6244 30.1377 25.5597 31.6843 25.3573C33.2309 25.1548 33.7359 24.3504 33.3134 23.8661C33.3135 23.8658 34.7635 24.3627 35.9439 24.1971Z" fill="#FF4D4D"/>
<path d="M37.4811 26.5731L31.023 28.3295C30.835 28.3806 30.6344 28.355 30.4654 28.2582C30.2963 28.1614 30.1726 28.0015 30.1215 27.8135L28.8382 23.0948C28.7871 22.9068 28.8128 22.7062 28.9095 22.5371C29.0063 22.3681 29.1663 22.2444 29.3542 22.1932L35.8124 20.4369C36.0003 20.3858 36.2009 20.4114 36.37 20.5082C36.539 20.6049 36.6627 20.7649 36.7139 20.9529L37.9971 25.6716C38.0482 25.8596 38.0226 26.0602 37.9258 26.2292C37.8291 26.3983 37.6691 26.522 37.4811 26.5731Z" fill="#D8D8FF"/>
<path d="M36.7139 20.9529C36.6627 20.7649 36.539 20.6049 36.37 20.5082C36.2009 20.4114 36.0003 20.3858 35.8124 20.4369L29.3542 22.1932C29.1663 22.2444 29.0063 22.3681 28.9095 22.5371C28.8128 22.7062 28.7871 22.9068 28.8382 23.0948L29.281 24.7229C29.5832 24.9581 30.447 25.5164 31.6777 25.3553C33.2244 25.1528 33.7294 24.3484 33.3069 23.864C33.3069 23.864 36.6915 25.0241 37.3266 23.2061L36.7139 20.9529Z" fill="#B2B2FF"/>
<path d="M25.6233 22.3713C25.8391 22.9329 26.3256 23.6854 27.728 23.5383C29.1304 23.3912 29.128 22.3364 29.128 22.3364C29.128 22.3364 30.0833 23.2573 31.6061 23.0579C33.1289 22.8585 33.6261 22.0665 33.2101 21.5895C33.2101 21.5895 36.6031 22.7538 37.1854 20.8957C37.648 19.4197 35.0616 16.1747 30.2256 17.406C26.3603 18.3905 24.9135 20.5248 25.6233 22.3713Z" fill="#2C27FF"/>
<path d="M33.4505 36.5148C33.3624 36.5149 33.2752 36.4963 33.1947 36.4603C33.1143 36.4244 33.0423 36.3718 32.9836 36.306C32.9249 36.2403 32.8808 36.1629 32.8541 36.0789C32.8274 35.9949 32.8188 35.9062 32.8289 35.8186C32.8936 35.2529 33.3979 34.4111 34.5224 34.4111C34.6881 34.4111 34.8471 34.477 34.9643 34.5942C35.0815 34.7114 35.1474 34.8704 35.1474 35.0361C35.1474 35.2019 35.0815 35.3609 34.9643 35.4781C34.8471 35.5953 34.6881 35.6611 34.5224 35.6611C34.1351 35.6611 34.0789 35.8904 34.0709 35.9606C34.0534 36.113 33.9805 36.2536 33.8661 36.3558C33.7518 36.4579 33.6039 36.5145 33.4505 36.5148ZM29.9223 35.9755C29.887 35.767 29.7344 35.6613 29.4688 35.6613C29.303 35.6613 29.144 35.5954 29.0268 35.4782C28.9096 35.361 28.8438 35.202 28.8438 35.0363C28.8438 34.8705 28.9096 34.7115 29.0268 34.5943C29.144 34.4771 29.303 34.4113 29.4688 34.4113C30.5933 34.4113 31.0975 35.253 31.1623 35.8188L29.9202 35.9608L29.9223 35.9755ZM31.9955 50.7914C31.8297 50.7914 31.6708 50.7255 31.5536 50.6083C31.4363 50.4911 31.3705 50.3321 31.3705 50.1664V49.9164C31.3705 49.7506 31.4363 49.5917 31.5536 49.4744C31.6708 49.3572 31.8297 49.2914 31.9955 49.2914C32.1613 49.2914 32.3202 49.3572 32.4374 49.4744C32.5547 49.5917 32.6205 49.7506 32.6205 49.9164V50.1664C32.6205 50.3321 32.5547 50.4911 32.4374 50.6083C32.3202 50.7255 32.1613 50.7914 31.9955 50.7914Z" fill="#FF9393"/>
<path d="M13.4146 48.6676C12.0911 48.6676 11.1858 48.3029 10.706 47.5729C9.67071 45.9979 10.9838 43.2752 14.6088 39.4805C14.6652 39.4198 14.733 39.3709 14.8085 39.3366C14.8839 39.3024 14.9653 39.2835 15.0481 39.281C15.1309 39.2785 15.2134 39.2925 15.2907 39.3222C15.3681 39.3518 15.4387 39.3966 15.4986 39.4538C15.5585 39.511 15.6064 39.5796 15.6396 39.6555C15.6728 39.7314 15.6905 39.8131 15.6918 39.8959C15.6931 39.9787 15.6779 40.061 15.6472 40.1379C15.6164 40.2148 15.5706 40.2848 15.5126 40.3439C11.9912 44.0302 11.2602 46.1406 11.7503 46.8862C12.2228 47.605 14.496 47.8012 19.347 45.9902C23.8441 44.3112 29.3745 41.3792 34.9196 37.7342C40.4646 34.0892 45.3495 30.1749 48.674 26.7122C52.2605 22.977 52.9813 20.8124 52.5091 20.0939C52.1502 19.548 50.9326 19.4206 49.1678 19.7442C49.0048 19.7741 48.8365 19.7381 48.7001 19.6439C48.5637 19.5498 48.4702 19.4053 48.4403 19.2422C48.4104 19.0792 48.4465 18.911 48.5407 18.7745C48.6348 18.6381 48.7793 18.5446 48.9423 18.5147C51.3258 18.0779 52.8772 18.378 53.5537 19.4072C54.5967 20.9937 53.2583 23.7429 49.576 27.578C46.1885 31.1061 41.2273 35.0839 35.6063 38.7787C29.9855 42.4736 24.3665 45.4506 19.7843 47.1612C17.0952 48.1652 14.9672 48.6675 13.4146 48.6676Z" fill="#FFC498"/>
<path d="M51.5368 47.6415C50.0272 47.6415 48.0204 47.2516 45.5259 46.4717C40.8577 45.0122 35.0855 42.3446 29.2722 38.9601C23.4591 35.5757 18.2895 31.873 14.7156 28.5339C10.8306 24.904 9.34497 22.2317 10.3002 20.591C10.8847 19.5871 12.281 19.1877 14.4521 19.4035C14.5338 19.4116 14.613 19.4358 14.6854 19.4745C14.7577 19.5133 14.8217 19.5659 14.8737 19.6294C14.9257 19.6929 14.9647 19.7661 14.9885 19.8446C15.0122 19.9232 15.0202 20.0057 15.0121 20.0874C15.0041 20.1691 14.9801 20.2485 14.9414 20.3209C14.9027 20.3933 14.85 20.4574 14.7865 20.5094C14.7229 20.5614 14.6497 20.6004 14.5711 20.6241C14.4925 20.6478 14.4099 20.6557 14.3282 20.6474C12.7577 20.4911 11.6833 20.6997 11.3805 21.2199C10.9477 21.963 11.7851 24.0852 15.569 27.6205C19.0766 30.8976 24.1665 34.5411 29.9011 37.8799C35.6358 41.2186 41.3174 43.8462 45.8987 45.2787C50.8416 46.8239 53.1002 46.5042 53.5327 45.7612C53.6961 45.4807 54.012 44.3264 51.2204 41.2506L50.0531 39.9646C49.9979 39.9038 49.9553 39.8328 49.9276 39.7556C49.8999 39.6783 49.8877 39.5964 49.8916 39.5144C49.8956 39.4324 49.9157 39.352 49.9507 39.2778C49.9858 39.2036 50.0351 39.137 50.0959 39.0819C50.1566 39.0267 50.2276 38.984 50.3049 38.9563C50.3821 38.9286 50.4641 38.9164 50.5461 38.9203C50.6281 38.9243 50.7085 38.9444 50.7827 38.9794C50.8569 39.0145 50.9235 39.0638 50.9786 39.1246L52.1459 40.4106C54.5505 43.06 55.3806 45.0719 54.613 46.3902C54.1275 47.2242 53.0982 47.6414 51.5368 47.6415Z" fill="#FFC498"/>
<path d="M47.6055 48.4111C48.641 48.4111 49.4805 47.5717 49.4805 46.5361C49.4805 45.5006 48.641 44.6611 47.6055 44.6611C46.5699 44.6611 45.7305 45.5006 45.7305 46.5361C45.7305 47.5717 46.5699 48.4111 47.6055 48.4111Z" fill="#FF4D4D"/>
<path d="M25.9062 45.6016C26.9418 45.6016 27.7812 44.7621 27.7812 43.7266C27.7812 42.691 26.9418 41.8516 25.9062 41.8516C24.8707 41.8516 24.0312 42.691 24.0312 43.7266C24.0312 44.7621 24.8707 45.6016 25.9062 45.6016Z" fill="#FF4D4D"/>
<path d="M51.6992 25.6641C52.7348 25.6641 53.5742 24.8246 53.5742 23.7891C53.5742 22.7535 52.7348 21.9141 51.6992 21.9141C50.6637 21.9141 49.8242 22.7535 49.8242 23.7891C49.8242 24.8246 50.6637 25.6641 51.6992 25.6641Z" fill="#FF4D4D"/>
<path d="M27.8741 12.7711C27.7147 12.7709 27.5615 12.7098 27.4457 12.6003C27.3298 12.4908 27.2602 12.3412 27.251 12.1821C27.2419 12.023 27.2938 11.8664 27.3963 11.7443C27.4987 11.6223 27.644 11.5439 27.8022 11.5254C27.9185 11.5119 28.0354 11.4986 28.153 11.4856C28.2348 11.4761 28.3178 11.4829 28.397 11.5055C28.4762 11.5282 28.5502 11.5663 28.6146 11.6177C28.6791 11.669 28.7327 11.7326 28.7725 11.8048C28.8123 11.877 28.8374 11.9563 28.8464 12.0382C28.8554 12.1201 28.8481 12.203 28.825 12.2821C28.8018 12.3612 28.7632 12.4349 28.7115 12.499C28.6597 12.5631 28.5958 12.6164 28.5234 12.6557C28.4509 12.695 28.3715 12.7196 28.2895 12.7281C28.1749 12.7407 28.0609 12.7536 27.9476 12.7669C27.9232 12.7697 27.8987 12.7711 27.8741 12.7711ZM27.8741 14.6472C27.7149 14.6467 27.5619 14.5854 27.4464 14.4759C27.3309 14.3663 27.2614 14.2169 27.2523 14.0579C27.2432 13.899 27.2951 13.7426 27.3973 13.6206C27.4996 13.4986 27.6445 13.4202 27.8026 13.4014C27.9187 13.3879 28.0356 13.3745 28.1532 13.3617C28.2348 13.3528 28.3174 13.36 28.3962 13.383C28.475 13.406 28.5485 13.4443 28.6125 13.4956C28.6765 13.547 28.7298 13.6105 28.7692 13.6825C28.8087 13.7544 28.8336 13.8335 28.8426 13.9151C28.8515 13.9967 28.8443 14.0792 28.8213 14.158C28.7983 14.2368 28.76 14.3103 28.7087 14.3743C28.6573 14.4383 28.5938 14.4916 28.5218 14.5311C28.4499 14.5705 28.3708 14.5954 28.2892 14.6044C28.1746 14.617 28.0606 14.6299 27.9472 14.6431C27.923 14.6459 27.8986 14.6472 27.8741 14.6472Z" fill="#B2B2FF"/>
<path d="M44.6445 25.28C44.4788 25.28 44.3198 25.2142 44.2026 25.0969C44.0854 24.9797 44.0195 24.8208 44.0195 24.655V24.6406C44.0195 24.4749 44.0854 24.3159 44.2026 24.1987C44.3198 24.0815 44.4788 24.0156 44.6445 24.0156C44.8103 24.0156 44.9693 24.0815 45.0865 24.1987C45.2037 24.3159 45.2695 24.4749 45.2695 24.6406V24.655C45.2695 24.8208 45.2037 24.9797 45.0865 25.0969C44.9693 25.2142 44.8103 25.28 44.6445 25.28Z" fill="#FF9C33"/>
<path d="M40.1767 8.36914L40.8017 11.6835L40.1767 14.9979C40.1067 14.9979 40.038 14.9829 39.973 14.9541L36.7142 13.5004C36.713 13.5004 36.713 13.4991 36.7117 13.4991C36.6241 13.4597 36.5498 13.3957 36.4977 13.315C36.4456 13.2343 36.4179 13.1402 36.418 13.0441V8.69289C36.418 8.58914 36.4505 8.49039 36.5092 8.40914C36.518 8.39539 36.5292 8.38164 36.5405 8.36914H40.1767Z" fill="#FFD5BA"/>
<path d="M43.9333 13.0451C43.9333 13.2414 43.8183 13.4201 43.6395 13.5001C43.6383 13.5001 43.6383 13.5014 43.637 13.5014L40.3795 14.9551C40.3145 14.9839 40.2445 14.9989 40.1758 14.9989V8.37012H43.8083C43.8871 8.45954 43.9307 8.57464 43.9308 8.69387L43.9333 13.0451Z" fill="#FFC498"/>
<path d="M43.8442 8.40957L40.178 10.0458L36.5117 8.40832C36.5605 8.33582 36.6305 8.27707 36.7142 8.23707C36.7155 8.23707 36.7167 8.23582 36.718 8.23582L39.9742 6.78332C40.1042 6.72457 40.253 6.72457 40.3817 6.78332L43.638 8.23582C43.723 8.27457 43.7942 8.33582 43.8442 8.40957Z" fill="#FFF2ED"/>
<path d="M60.5783 32.1028L60.252 31.3741C59.8708 30.5203 58.877 30.1266 58.0145 30.4878L56.5708 31.0903L56.572 29.2803C56.572 28.9253 56.3583 28.5941 56.0208 28.4853C55.8265 28.4219 55.6152 28.4354 55.4306 28.5231C55.2459 28.6107 55.1019 28.7659 55.0283 28.9566L53.5658 32.7366C53.342 33.3153 52.802 33.7116 52.1833 33.7503L44.8258 34.2203L42.409 33.9189C45.1957 31.7498 47.6405 29.5911 49.5728 27.5786C50.2317 26.8923 50.8142 26.2416 51.3227 25.6253C51.443 25.6496 51.5675 25.6626 51.695 25.6626C52.7305 25.6626 53.57 24.8231 53.57 23.7876C53.57 23.4137 53.4594 23.0662 53.2708 22.7737C53.9915 21.3507 54.0875 20.2247 53.5505 19.4077C52.874 18.3784 51.3228 18.0783 48.9392 18.5152C48.7761 18.5451 48.6316 18.6385 48.5375 18.775C48.4433 18.9114 48.4072 19.0797 48.4372 19.2427C48.4671 19.4057 48.5605 19.5502 48.6969 19.6444C48.8334 19.7385 49.0016 19.7746 49.1647 19.7447C50.9294 19.4211 52.147 19.5484 52.5059 20.0943C52.7215 20.4223 52.6872 21.0527 52.2464 21.9952C52.0677 21.9402 51.8818 21.9124 51.6949 21.9124C50.6594 21.9124 49.8199 22.7519 49.8199 23.7874C49.8199 24.2348 49.9772 24.6452 50.2387 24.9676C49.7908 25.5059 49.2719 26.0867 48.6709 26.7127C46.5517 28.9201 43.7975 31.3109 40.6433 33.6986L34.8307 32.9738C34.6594 32.9526 34.4907 32.9013 34.3432 32.8101C34.1713 32.7052 34.0293 32.5579 33.9308 32.3824C33.8323 32.2068 33.7806 32.0089 33.7807 31.8076V30.9638C36.2118 30.6634 38.1657 29.3687 37.4897 26.5701C37.6747 26.5166 37.8314 26.3925 37.9258 26.2245C38.0202 26.0566 38.0448 25.8582 37.9943 25.6723L36.8465 21.4519C36.9922 21.3069 37.107 21.1242 37.1788 20.8951C37.2077 20.8029 37.2247 20.7038 37.2299 20.5994C38.7747 20.8276 40.1887 21.1196 41.4292 21.4642V27.8537C41.4292 28.3647 41.9293 28.7246 42.415 28.5661C45.1863 27.6617 46.871 26.4688 46.871 25.1624V14.1916C46.871 14.2014 46.8699 14.2113 46.8698 14.2212V14.1919C46.8698 13.1443 45.787 12.1706 43.9295 11.3596L43.928 8.69207C43.928 8.58957 43.8955 8.49082 43.838 8.40957C43.788 8.33582 43.7168 8.27457 43.6318 8.23582L40.3755 6.78332C40.3115 6.75428 40.2421 6.73926 40.1718 6.73926C40.1015 6.73926 40.032 6.75428 39.968 6.78332L36.7118 8.23582C36.7105 8.23582 36.7093 8.23707 36.708 8.23707C36.6404 8.26932 36.5513 8.35432 36.5055 8.40832C36.4468 8.48957 36.4143 8.58832 36.4143 8.69207V9.51469C35.7081 9.42361 35.0001 9.34751 34.2907 9.28644C33.8532 9.24869 33.4769 9.59507 33.4769 10.0342V17.2367C32.6214 17.0832 31.6292 17.0909 30.5117 17.3384V10.0343C30.5117 9.59519 30.1354 9.24882 29.6979 9.28657C22.4244 9.91494 17.1188 11.8728 17.1188 14.1921V14.2213C17.1185 14.2114 17.1175 14.2016 17.1175 14.1917V25.1626C17.1175 26.4691 18.8023 27.6618 21.5735 28.5662C22.0593 28.7247 22.5594 28.3648 22.5594 27.8538V21.4643C23.463 21.2133 24.4592 20.9902 25.5304 20.7993C25.4281 21.1777 25.4164 21.5749 25.4963 21.9587C25.3343 22.3027 24.5324 24.2497 25.9877 26.4142C25.8841 26.7312 25.8756 27.0716 25.9634 27.3933C26.212 28.3077 27.1549 28.8473 28.0693 28.5987C28.138 28.5799 28.204 28.5563 28.2684 28.5299C28.3266 28.625 28.4056 28.7056 28.4995 28.7657C28.5934 28.8257 28.6997 28.8636 28.8104 28.8766C29.1412 29.4316 29.5919 29.9627 30.208 30.3597C30.208 30.3597 30.201 31.9793 30.1798 32.0686C30.0623 32.5653 29.6565 32.9118 29.1805 32.9714L23.2877 33.7061C20.2849 31.6421 17.6438 29.5667 15.5608 27.6206C11.7769 24.0853 10.9395 21.9631 11.3723 21.2199C11.6752 20.6998 12.7495 20.4912 14.32 20.6474C14.4017 20.6557 14.4843 20.6478 14.5629 20.6241C14.6415 20.6004 14.7147 20.5615 14.7782 20.5094C14.8418 20.4574 14.8944 20.3934 14.9331 20.3209C14.9719 20.2485 14.9959 20.1692 15.0039 20.0874C15.012 20.0058 15.004 19.9233 14.9803 19.8447C14.9565 19.7662 14.9175 19.693 14.8655 19.6295C14.8135 19.566 14.7495 19.5134 14.6772 19.4746C14.6049 19.4358 14.5256 19.4117 14.4439 19.4036C12.2728 19.1878 10.8765 19.5872 10.292 20.5911C9.33678 22.2318 10.8224 24.9042 14.7074 28.5339C16.564 30.2686 18.8522 32.1014 21.4367 33.9368L19.163 34.2202L11.8055 33.7502C11.1868 33.7114 10.6468 33.3152 10.423 32.7364L8.96053 28.9564C8.88687 28.7658 8.74288 28.6106 8.55823 28.5229C8.37359 28.4353 8.16234 28.4218 7.96803 28.4852C7.63053 28.5939 7.41678 28.9252 7.41678 29.2802L7.41803 31.0902L5.97428 30.4877C5.11178 30.1264 4.11803 30.5202 3.73678 31.3739L3.41053 32.1027C2.97803 33.0702 3.38678 34.2077 4.33678 34.6789L7.93303 36.4614C8.61553 36.7989 9.35428 37.0102 10.1118 37.0852L20.4668 38.1002L23.4975 38.2002C24.6732 38.2389 25.6218 39.1746 25.6769 40.3496L25.7478 41.8601C24.785 41.9392 24.028 42.7441 24.028 43.7272C24.028 43.8072 24.0347 43.8854 24.0444 43.9628C22.3914 44.7593 20.812 45.4426 19.3439 45.9908C14.4928 47.8018 12.2198 47.6054 11.7473 46.8868C11.2572 46.1412 11.9882 44.0308 15.5095 40.3444C15.5676 40.2854 15.6133 40.2154 15.6441 40.1385C15.6749 40.0616 15.6901 39.9793 15.6888 39.8965C15.6875 39.8137 15.6697 39.7319 15.6365 39.656C15.6034 39.5801 15.5555 39.5116 15.4956 39.4544C15.4357 39.3972 15.365 39.3524 15.2877 39.3228C15.2103 39.2931 15.1279 39.2791 15.0451 39.2816C14.9623 39.2841 14.8808 39.303 14.8054 39.3372C14.73 39.3715 14.6621 39.4204 14.6058 39.4811C10.9808 43.2758 9.66765 45.9986 10.7029 47.5734C11.1828 48.3034 12.088 48.6682 13.4115 48.6682C14.9642 48.6681 17.0922 48.1657 19.7812 47.1618C21.289 46.5989 22.9104 45.8967 24.606 45.0791C24.9543 45.4149 25.4194 45.6025 25.9033 45.6022C25.91 45.6022 25.9167 45.6012 25.9234 45.6012L26.04 48.0886C22.8414 48.7216 20.712 49.8489 20.712 51.1347C20.712 53.1152 25.7634 54.7206 31.9945 54.7206C38.2257 54.7206 43.277 53.1151 43.277 51.1347C43.277 49.8491 41.1477 48.7216 37.9492 48.0886L38.1602 43.5923C40.788 44.7931 43.2804 45.7722 45.518 46.4717C45.5858 46.4929 45.6518 46.5127 45.7189 46.5333L45.7188 46.5361C45.7188 47.5716 46.5583 48.4111 47.5938 48.4111C48.3115 48.4111 48.9344 48.0074 49.2495 47.4152C50.1049 47.5659 50.8652 47.6416 51.529 47.6416C53.0903 47.6416 54.1197 47.2244 54.6053 46.3902C55.3729 45.0718 54.5428 43.0599 52.1382 40.4106L50.9709 39.1246C50.8595 39.0018 50.7039 38.9284 50.5384 38.9204C50.3728 38.9123 50.2109 38.9704 50.0882 39.0818C49.9654 39.1932 49.892 39.3488 49.884 39.5143C49.8759 39.6799 49.934 39.8418 50.0454 39.9646L51.2127 41.2506C54.0043 44.3263 53.6884 45.4807 53.525 45.7612C53.2138 46.2959 51.956 46.6113 49.4325 46.1699C49.2622 45.3098 48.504 44.6611 47.5939 44.6611C47.0064 44.6611 46.4825 44.9316 46.1388 45.3544C46.0564 45.3293 45.9752 45.3049 45.8912 45.2787C43.5724 44.5537 40.9705 43.5199 38.2235 42.2447L38.3123 40.3532C38.3673 39.1793 39.3143 38.2442 40.4889 38.2039L43.5223 38.1001L53.8773 37.0851C54.6348 37.0101 55.3735 36.7988 56.056 36.4613L59.6523 34.6788C60.602 34.2078 61.0108 33.0703 60.5783 32.1028Z" fill="url(#paint1_linear_2211_51775)"/>
<path d="M8.70703 17.4502H7.45703C6.76778 17.4502 6.20703 16.8894 6.20703 16.2002V14.9502C6.20703 14.2609 6.76778 13.7002 7.45703 13.7002H8.70703C9.39628 13.7002 9.95703 14.2609 9.95703 14.9502V16.2002C9.95703 16.8894 9.39616 17.4502 8.70703 17.4502ZM7.45703 14.9502V16.2009L8.70703 16.2002V14.9502H7.45703Z" fill="#FF6C6C"/>
<path d="M53.7383 56.5967H52.4883C51.799 56.5967 51.2383 56.0359 51.2383 55.3467V54.0967C51.2383 53.4074 51.799 52.8467 52.4883 52.8467H53.7383C54.4275 52.8467 54.9883 53.4074 54.9883 54.0967V55.3467C54.9883 56.0359 54.4275 56.5967 53.7383 56.5967ZM52.4883 54.0967V55.3474L53.7383 55.3467V54.0967H52.4883Z" fill="#6C6CFF"/>
<path d="M6.26953 23.956C6.10953 23.956 5.94953 23.895 5.82753 23.7729L5.63853 23.5839C5.55746 23.5024 5.46101 23.4377 5.35478 23.3937C5.24855 23.3497 5.13464 23.3272 5.01966 23.3275C4.78578 23.3275 4.56591 23.4187 4.40066 23.5839L4.21141 23.773C4.09338 23.8863 3.93566 23.9488 3.77209 23.9471C3.60853 23.9454 3.45214 23.8796 3.33649 23.764C3.22084 23.6483 3.15514 23.4919 3.15349 23.3283C3.15184 23.1647 3.21437 23.007 3.32766 22.889L3.51678 22.7C3.85803 22.3588 3.85803 21.8034 3.51678 21.462L3.32766 21.273C3.26951 21.2151 3.2234 21.1462 3.19197 21.0704C3.16054 20.9946 3.14442 20.9133 3.14453 20.8312C3.14451 20.7076 3.18114 20.5867 3.2498 20.4839C3.31846 20.3811 3.41606 20.301 3.53026 20.2537C3.64445 20.2063 3.77012 20.1939 3.89137 20.218C4.01261 20.2421 4.12398 20.3017 4.21141 20.389L4.40053 20.578C4.74166 20.9193 5.29716 20.9194 5.63866 20.578L5.82753 20.389C5.9449 20.2727 6.10359 20.2075 6.26888 20.2079C6.43416 20.2082 6.59259 20.274 6.70948 20.3909C6.82637 20.5077 6.89221 20.6661 6.8926 20.8314C6.89298 20.9967 6.82788 21.1554 6.71153 21.2728L6.52253 21.4618C6.35856 21.6261 6.26647 21.8487 6.26647 22.0809C6.26647 22.313 6.35856 22.5356 6.52253 22.6999L6.71153 22.8889C6.76966 22.9469 6.81575 23.0158 6.84716 23.0917C6.87856 23.1675 6.89466 23.2488 6.89453 23.3309C6.89453 23.4908 6.83353 23.6508 6.71141 23.7728C6.58928 23.8948 6.42953 23.956 6.26953 23.956Z" fill="#FF9C33"/>
<path d="M52.6875 10.9063C52.6054 10.9065 52.5241 10.8903 52.4483 10.8589C52.3725 10.8275 52.3036 10.7815 52.2456 10.7233L52.0565 10.5343C51.9754 10.4528 51.879 10.3881 51.7727 10.3441C51.6665 10.3 51.5525 10.2775 51.4375 10.2778C51.3225 10.2775 51.2085 10.3001 51.1022 10.3441C50.996 10.3881 50.8995 10.4528 50.8184 10.5343L50.6295 10.7233C50.5121 10.8397 50.3534 10.9049 50.1882 10.9045C50.0229 10.9042 49.8644 10.8384 49.7476 10.7215C49.6307 10.6047 49.5648 10.4463 49.5644 10.281C49.564 10.1157 49.6292 9.957 49.7455 9.8396L49.9345 9.6506C50.1 9.48522 50.1911 9.26535 50.1911 9.03147C50.1911 8.7976 50.1 8.57785 49.9346 8.41247L49.7456 8.22347C49.6235 8.10135 49.5625 7.94147 49.5625 7.78147C49.5625 7.62147 49.6235 7.4616 49.7456 7.33947C49.8628 7.2223 50.0218 7.15648 50.1875 7.15648C50.3532 7.15648 50.5122 7.2223 50.6294 7.33947L50.8184 7.52847C50.8995 7.61003 50.996 7.6747 51.1022 7.71873C51.2085 7.76275 51.3225 7.78527 51.4375 7.78497C51.6713 7.78497 51.8911 7.69385 52.0564 7.5286L52.2458 7.33947C52.3331 7.25199 52.4445 7.19241 52.5658 7.16827C52.6871 7.14413 52.8128 7.15652 52.927 7.20388C53.0412 7.25124 53.1388 7.33142 53.2075 7.43429C53.2761 7.53715 53.3126 7.65807 53.3125 7.78172C53.3126 7.86382 53.2965 7.94513 53.265 8.02096C53.2336 8.0968 53.1874 8.16567 53.1293 8.2236L52.9401 8.4126C52.599 8.75372 52.599 9.30922 52.9404 9.6506L53.1294 9.83947C53.1875 9.89742 53.2336 9.96629 53.2651 10.0421C53.2965 10.118 53.3126 10.1993 53.3125 10.2813C53.3125 10.4413 53.2516 10.6013 53.1295 10.7233C53.0074 10.8453 52.8474 10.9063 52.6875 10.9063Z" fill="#FF6C6C"/>
<path d="M16.8945 59.1689C16.7345 59.1689 16.5745 59.1079 16.4525 58.9858L16.2635 58.7968C16.1825 58.7153 16.086 58.6506 15.9798 58.6066C15.8736 58.5626 15.7596 58.5401 15.6447 58.5404C15.4108 58.5404 15.1909 58.6316 15.0257 58.7968L14.8364 58.9859C14.719 59.1023 14.5603 59.1674 14.395 59.167C14.2297 59.1666 14.0713 59.1008 13.9545 58.9839C13.8376 58.867 13.7718 58.7086 13.7715 58.5433C13.7711 58.378 13.8363 58.2193 13.9527 58.1019L14.1418 57.9129C14.483 57.5717 14.483 57.0163 14.1418 56.6749L13.9527 56.4859C13.8945 56.428 13.8484 56.3591 13.817 56.2833C13.7855 56.2075 13.7694 56.1262 13.7695 56.0441C13.7695 55.9204 13.8061 55.7996 13.8748 55.6968C13.9435 55.594 14.0411 55.5139 14.1553 55.4666C14.2695 55.4192 14.3951 55.4068 14.5164 55.4309C14.6376 55.455 14.749 55.5145 14.8364 55.6019L15.0255 55.7909C15.3667 56.1322 15.9223 56.1323 16.2637 55.7909L16.4525 55.6019C16.5699 55.4856 16.7286 55.4204 16.8939 55.4208C17.0592 55.4211 17.2176 55.4869 17.3345 55.6037C17.4514 55.7206 17.5172 55.879 17.5176 56.0443C17.518 56.2096 17.4529 56.3683 17.3365 56.4857L17.1475 56.6747C16.9836 56.839 16.8915 57.0616 16.8915 57.2938C16.8915 57.5259 16.9836 57.7485 17.1475 57.9128L17.3365 58.1018C17.3947 58.1598 17.4407 58.2287 17.4722 58.3045C17.5036 58.3804 17.5197 58.4617 17.5195 58.5438C17.5195 58.7037 17.4585 58.8637 17.3364 58.9857C17.2143 59.1077 17.0544 59.1689 16.8945 59.1689Z" fill="#FF9C33"/>
</g>
<defs>
<linearGradient id="paint0_linear_2211_51775" x1="8.01266" y1="53.3406" x2="40.4725" y2="15.7414" gradientUnits="userSpaceOnUse">
<stop stop-color="white" stop-opacity="0"/>
<stop offset="0.262" stop-color="#EDEDFF" stop-opacity="0.416"/>
<stop offset="0.629" stop-color="#D8D8FF"/>
</linearGradient>
<linearGradient id="paint1_linear_2211_51775" x1="31.9945" y1="55.1586" x2="31.9945" y2="5.92669" gradientUnits="userSpaceOnUse">
<stop stop-color="#FF4D4D" stop-opacity="0.4"/>
<stop offset="0.146" stop-color="#FF4D4D" stop-opacity="0.342"/>
<stop offset="1" stop-color="#FF4D4D" stop-opacity="0"/>
</linearGradient>
<clipPath id="clip0_2211_51775">
<rect width="64" height="64" fill="white" transform="translate(0 0.00195312)"/>
</clipPath>
</defs>
</svg>
