<svg width="340" height="364" viewBox="0 0 340 364" fill="none" xmlns="http://www.w3.org/2000/svg">
<g clip-path="url(#clip0_824_26046)">
<path d="M270.272 364C329.217 364 377.001 359.604 377.001 354.182C377.001 348.759 329.217 344.363 270.272 344.363C211.327 344.363 163.543 348.759 163.543 354.182C163.543 359.604 211.327 364 270.272 364Z" fill="white"/>
<path opacity="0.1" d="M270.272 364C329.217 364 377.001 359.604 377.001 354.182C377.001 348.759 329.217 344.363 270.272 344.363C211.327 344.363 163.543 348.759 163.543 354.182C163.543 359.604 211.327 364 270.272 364Z" fill="#292A2E"/>
<path d="M93.0945 208.173H59.0742V218.042H93.0945V208.173Z" fill="#F4F4F4"/>
<path opacity="0.05" d="M68.1022 208.173H63.6445V218.042H68.1022V208.173Z" fill="#292A2E"/>
<path d="M88.7462 210.318H70.2109V216.166H88.7462V210.318Z" fill="white"/>
<path d="M120.232 209.461L88.6211 195.696L84.6591 204.74L116.27 218.505L120.232 209.461Z" fill="#F4F4F4"/>
<path opacity="0.05" d="M120.232 209.461L88.6211 195.696L84.6591 204.74L116.27 218.505L120.232 209.461Z" fill="#292A2E"/>
<path d="M115.99 207.612L111.848 205.809L107.886 214.852L112.028 216.656L115.99 207.612Z" fill="white"/>
<path d="M109.023 206.92L91.8008 199.421L89.453 204.78L106.675 212.279L109.023 206.92Z" fill="white"/>
<path opacity="0.05" d="M120.292 333.19H111.742V338.882H120.292V333.19Z" fill="#292A2E"/>
<path opacity="0.05" d="M32.8853 333.19H24.3359V338.882H32.8853V333.19Z" fill="#292A2E"/>
<path d="M128.131 218.505H16.5V332.998H128.131V218.505Z" fill="#F4F4F4"/>
<path opacity="0.03" d="M128.131 218.505H16.5V332.998H128.131V218.505Z" fill="#292A2E"/>
<path d="M148.818 218.505H37.1875V332.998H148.818V218.505Z" fill="#F4F4F4"/>
<path opacity="0.05" d="M140.979 333.19H132.43V338.882H140.979V333.19Z" fill="#292A2E"/>
<path opacity="0.05" d="M53.5728 333.19H45.0234V338.882H53.5728V333.19Z" fill="#292A2E"/>
<path opacity="0.7" d="M144.629 223.867H41.3789V245.864H144.629V223.867Z" fill="white"/>
<path opacity="0.7" d="M144.629 251.248H41.3789V273.244H144.629V251.248Z" fill="white"/>
<path opacity="0.7" d="M144.629 278.627H41.3789V300.624H144.629V278.627Z" fill="white"/>
<path opacity="0.05" d="M93.0012 237.944C94.7061 237.944 96.0882 236.566 96.0882 234.866C96.0882 233.166 94.7061 231.788 93.0012 231.788C91.2962 231.788 89.9141 233.166 89.9141 234.866C89.9141 236.566 91.2962 237.944 93.0012 237.944Z" fill="#292A2E"/>
<path opacity="0.05" d="M93.0012 265.323C94.7061 265.323 96.0882 263.946 96.0882 262.246C96.0882 260.546 94.7061 259.168 93.0012 259.168C91.2962 259.168 89.9141 260.546 89.9141 262.246C89.9141 263.946 91.2962 265.323 93.0012 265.323Z" fill="#292A2E"/>
<path opacity="0.05" d="M93.0012 292.704C94.7061 292.704 96.0882 291.326 96.0882 289.626C96.0882 287.926 94.7061 286.548 93.0012 286.548C91.2962 286.548 89.9141 287.926 89.9141 289.626C89.9141 291.326 91.2962 292.704 93.0012 292.704Z" fill="#292A2E"/>
<path opacity="0.7" d="M144.629 306.625H41.3789V328.621H144.629V306.625Z" fill="white"/>
<path opacity="0.05" d="M93.0051 320.701C94.71 320.701 96.0921 319.323 96.0921 317.623C96.0921 315.923 94.71 314.545 93.0051 314.545C91.3001 314.545 89.918 315.923 89.918 317.623C89.918 319.323 91.3001 320.701 93.0051 320.701Z" fill="#292A2E"/>
<path d="M56.1248 104.866L122.133 104.866L122.133 19.2091L56.1248 19.2091L56.1248 104.866Z" fill="#F4F4F4"/>
<path d="M56.1257 19.209H53.9844V104.866H56.1257V19.209Z" fill="#F4F4F4"/>
<path opacity="0.05" d="M56.1257 19.209H53.9844V104.866H56.1257V19.209Z" fill="#292A2E"/>
<path opacity="0.05" d="M68.1501 89.2627H110.109V34.8125L68.1501 34.8125V89.2627Z" fill="#292A2E"/>
<path opacity="0.03" d="M68.1493 89.2622H70.3359V34.812H68.1493V89.2622Z" fill="#292A2E"/>
<path d="M2.14134 180.245H56.125L56.125 125.93H2.14134L2.14134 180.245Z" fill="#F4F4F4"/>
<path opacity="0.05" d="M11.9732 170.351H46.2891L46.2891 135.825H11.9732L11.9732 170.351Z" fill="#292A2E"/>
<path d="M2.14136 125.931H0V180.245H2.14136V125.931Z" fill="#F4F4F4"/>
<path opacity="0.05" d="M2.14136 125.931H0V180.245H2.14136V125.931Z" fill="#292A2E"/>
<path opacity="0.03" d="M11.9735 170.351H14.1602L14.1602 135.825H11.9735L11.9735 170.351Z" fill="#292A2E"/>
<path d="M331.33 19.0049H193.582V156.336H331.33V19.0049Z" fill="#F4F4F4"/>
<path d="M193.579 19.0049H192V156.336H193.579V19.0049Z" fill="#F4F4F4"/>
<path opacity="0.05" d="M193.579 19.0049H192V156.336H193.579V19.0049Z" fill="#292A2E"/>
<path opacity="0.05" d="M226.951 113.637V77.7065H256.473V98.5815H302.201V135.543H321.637V156.336H302.201H298.457H200.207V113.637H226.951Z" fill="#292A2E"/>
<path opacity="0.34" d="M252.681 81.6079H231.184V85.509H252.681V81.6079Z" fill="#FFFFFA"/>
<path opacity="0.34" d="M252.681 89.6924H231.184V93.5935H252.681V89.6924Z" fill="#FFFFFA"/>
<path opacity="0.34" d="M252.681 97.7764H231.184V101.677H252.681V97.7764Z" fill="#FFFFFA"/>
<path opacity="0.34" d="M207.982 117.424H204.02V121.325H207.982V117.424Z" fill="#FFFFFA"/>
<path opacity="0.34" d="M207.982 125.508H204.02V129.409H207.982V125.508Z" fill="#FFFFFA"/>
<path opacity="0.34" d="M207.982 133.592H204.02V137.493H207.982V133.592Z" fill="#FFFFFA"/>
<path opacity="0.34" d="M215.314 117.424H211.352V121.325H215.314V117.424Z" fill="#FFFFFA"/>
<path opacity="0.34" d="M215.314 125.508H211.352V129.409H215.314V125.508Z" fill="#FFFFFA"/>
<path opacity="0.34" d="M215.314 133.592H211.352V137.493H215.314V133.592Z" fill="#FFFFFA"/>
<path opacity="0.34" d="M222.447 117.424H218.484V121.325H222.447V117.424Z" fill="#FFFFFA"/>
<path opacity="0.34" d="M222.447 125.508H218.484V129.409H222.447V125.508Z" fill="#FFFFFA"/>
<path opacity="0.34" d="M222.447 133.592H218.484V137.493H222.447V133.592Z" fill="#FFFFFA"/>
<path d="M193.582 86.8998H221.299V19.0044H223.591V86.8998H298.458V19.0044H300.751V86.8998H331.33V89.185H300.751V156.336H298.458V89.185H223.591V156.336H221.299V89.185H193.582V86.8998Z" fill="white"/>
<path d="M336.817 156.17H188.094V160.737H336.817V156.17Z" fill="#F4F4F4"/>
<path opacity="0.1" d="M336.817 156.17H188.094V160.737H336.817V156.17Z" fill="#292A2E"/>
<path opacity="0.1" d="M188.093 156.17H185.945V160.737H188.093V156.17Z" fill="#292A2E"/>
<path opacity="0.1" d="M188.093 156.17H185.945V160.737H188.093V156.17Z" fill="#292A2E"/>
<path d="M307.703 179.697C286.615 179.697 269.52 185.433 269.52 192.508V207.76H345.888V192.508C345.888 185.433 328.792 179.697 307.703 179.697Z" fill="#0C6FF9"/>
<path opacity="0.49" d="M307.703 179.697C286.615 179.697 269.52 185.433 269.52 192.508V207.76H345.888V192.508C345.888 185.433 328.792 179.697 307.703 179.697Z" fill="white"/>
<path opacity="0.49" d="M335.487 192.51V207.759H269.52V192.51C269.52 186.025 283.877 180.666 302.503 179.819C321.131 180.666 335.487 186.025 335.487 192.51Z" fill="white"/>
<path d="M345.889 355.957H347.17L345.889 206.407L344.618 207.685L345.524 312.15L300.286 312.916L299.373 207.674L298.103 207.685L299.016 312.938L271.707 313.4L270.79 207.674L269.52 206.418L270.801 355.957L272.061 355.947L271.718 314.668L299.026 314.205L299.373 355.957L300.644 355.947L300.297 314.183L345.535 313.416L345.889 355.957Z" fill="#292A2E"/>
<path d="M230.713 333.567C230.713 333.567 228.442 345.303 217.42 345.957C206.399 346.611 208.789 355.365 208.789 355.365H250.907V334.386L230.713 333.567Z" fill="#0C6FF9"/>
<path d="M254.744 298.269C254.744 298.269 257.902 309.799 248.303 315.236C238.703 320.674 244.723 327.476 244.723 327.476L282.515 308.94L273.226 290.116L254.744 298.269Z" fill="#0C6FF9"/>
<path d="M250.745 305.889L222.269 198.77C220.109 186.937 223.361 181.807 228.371 176.824C237.175 168.07 273.654 149.437 273.654 149.437L317.417 149.318C329.021 149.318 340.428 160.726 340.428 172.294C340.428 183.863 328.632 193.674 317.028 193.674L263.137 199.037L277.745 297.119L250.745 305.889Z" fill="#262626"/>
<path d="M277.746 297.118L271.995 258.504L242.859 276.223L250.746 305.89L277.746 297.118Z" fill="#0C0C0C"/>
<path d="M284.348 171.114C284.348 171.114 265.951 175.201 247.731 193.366C236.684 204.38 237.59 224.31 239.247 262.643L257.343 235.995L277.191 200.306L284.348 171.114Z" fill="#0C0C0C"/>
<path d="M348.045 149.306L318.324 149.167L318.313 149.557H309.314C309.314 149.557 286.77 170.237 268.622 183.268C255.421 192.747 247.367 201.784 246.671 211.633C244.972 235.642 225.812 338.039 225.812 338.039L254.647 342.392L279.952 220.02C279.952 220.02 319.518 201.834 328.67 195.506C337.287 189.547 343.375 187.243 346.227 180.74C351.152 169.508 348.045 149.306 348.045 149.306Z" fill="#262626"/>
<path d="M314.703 156.769L266.488 157.406L293.534 173.51L316.039 161.924C316.581 161.634 317.01 161.171 317.257 160.609C317.503 160.047 317.554 159.418 317.4 158.824C317.246 158.23 316.896 157.705 316.407 157.332C315.918 156.96 315.318 156.761 314.703 156.769Z" fill="#292A2E"/>
<path opacity="0.2" d="M314.703 156.769L266.488 157.406L293.534 173.51L316.039 161.924C316.581 161.634 317.01 161.171 317.257 160.609C317.503 160.047 317.554 159.418 317.4 158.824C317.246 158.23 316.896 157.705 316.407 157.332C315.918 156.96 315.318 156.761 314.703 156.769Z" fill="white"/>
<path d="M266.762 70.5342L253.124 114.587L225.809 150.243L241.765 168.504L274.262 132.343C275.759 131.164 276.93 129.623 277.665 127.868L278.171 126.646L296.942 81.3669L266.762 70.5342Z" fill="#0C6FF9"/>
<path d="M287.772 23.7727C287.772 23.7727 282.277 19.6346 280.916 10.1172C279.861 2.74779 286.68 7.52211 286.68 7.52211C286.68 7.52211 285.972 2.20816 289.856 2.73554C293.74 3.26293 295.913 8.84501 295.913 8.84501" fill="#0C0C0C"/>
<path d="M309.926 3.35742C309.926 3.35742 329.194 5.41671 322.228 31.4473L320.524 31.5613L317.063 31.7927" fill="#0C0C0C"/>
<path d="M291 58.632C291.085 58.6211 292.025 74.1707 310.143 72.8165C322.689 71.8796 327.162 58.6101 327.449 58.6101C326.096 58.3234 324.425 57.8885 323.761 57.7394C322.313 57.4045 321.002 56.6379 320.001 55.5418C319.001 54.4457 318.36 53.072 318.162 51.6034C317.795 49.3992 318.416 38.1219 318.226 35.8916L298.971 40.1765C299.241 44.8871 301.124 55.8068 294.524 57.7394C293.425 58.0586 292.242 58.3542 291 58.632Z" fill="#E98862"/>
<path opacity="0.52" d="M298.703 53.2771C299.005 52.3079 299.199 51.3087 299.283 50.2973C299.494 47.9895 299.451 45.6656 299.155 43.367C303.069 42.8412 306.757 41.2313 309.799 38.7202C310.157 40.0368 312.123 45.7894 311.578 47.0385C310.55 49.403 305.713 53.2771 298.703 53.2771Z" fill="#0C0C0C"/>
<path d="M302.675 50.1994C310.271 49.52 319.364 44.7347 319.495 34.4535L319.614 25.1768C319.745 14.8959 314.435 6.49282 304.725 6.36952C295.016 6.24665 287.652 14.4889 287.521 24.7701L287.469 28.8769C287.475 30.2873 287.578 31.6957 287.777 33.0922C288.275 36.7868 289.048 42.4039 291.563 46.2037C293.937 49.7911 297.821 50.6331 302.675 50.1994Z" fill="#E98862"/>
<path opacity="0.52" d="M299.151 40.8018C297.583 40.8727 296.021 40.5752 294.59 39.9333C294.531 39.907 294.485 39.8589 294.462 39.7993C294.439 39.7397 294.44 39.6734 294.465 39.6146C294.49 39.5558 294.537 39.5092 294.597 39.4847C294.656 39.4602 294.722 39.4598 294.782 39.4836C297.865 40.7947 300.665 40.603 302.879 38.9288C302.923 38.8936 302.97 38.8607 303.018 38.8304C303.073 38.8043 303.137 38.8 303.196 38.8184C303.254 38.8367 303.304 38.8764 303.335 38.9296C303.365 38.9827 303.375 39.0455 303.361 39.1053C303.348 39.1651 303.312 39.2177 303.262 39.2526C303.244 39.2636 303.215 39.286 303.177 39.3164C302.013 40.2001 300.612 40.7173 299.151 40.8018Z" fill="#0C0C0C"/>
<path opacity="0.52" d="M299.221 43.1179C298.938 43.1353 298.654 43.1286 298.371 43.0977C298.339 43.0943 298.308 43.0847 298.28 43.0693C298.252 43.054 298.227 43.0333 298.207 43.0083C298.187 42.9834 298.171 42.9547 298.162 42.924C298.153 42.8932 298.15 42.861 298.154 42.8291C298.157 42.7972 298.167 42.7663 298.182 42.7382C298.198 42.71 298.218 42.6851 298.243 42.665C298.268 42.6448 298.297 42.6298 298.328 42.6207C298.359 42.6116 298.391 42.6087 298.423 42.6121C300.12 42.7915 300.93 42.0167 300.964 41.9834C301.01 41.9375 301.072 41.9117 301.137 41.9116C301.202 41.9115 301.265 41.9372 301.311 41.9829C301.357 42.0287 301.383 42.0908 301.383 42.1556C301.383 42.2203 301.357 42.2825 301.311 42.3283C300.727 42.8244 299.988 43.1034 299.221 43.1179Z" fill="#0C0C0C"/>
<path d="M290.727 30.8536C291.388 30.8536 291.923 30.3197 291.923 29.6612C291.923 29.0026 291.388 28.4688 290.727 28.4688C290.067 28.4688 289.531 29.0026 289.531 29.6612C289.531 30.3197 290.067 30.8536 290.727 30.8536Z" fill="#0C0C0C"/>
<path d="M302.415 30.1226C303.075 30.1226 303.611 29.5888 303.611 28.9302C303.611 28.2717 303.075 27.7378 302.415 27.7378C301.754 27.7378 301.219 28.2717 301.219 28.9302C301.219 29.5888 301.754 30.1226 302.415 30.1226Z" fill="#0C0C0C"/>
<path d="M318.853 37.5801C321.803 37.6177 324.235 34.5006 324.274 31.5589C324.312 28.6171 321.94 26.9644 318.989 26.9272L317.443 28.8789L316.316 37.548L318.853 37.5801Z" fill="#E98862"/>
<path d="M315.918 32.8508C315.918 32.8508 314.922 18.3032 310.497 17.4046C307.55 16.8063 300.404 20.9739 293.785 19.7152C290.889 19.1663 288.14 19.879 287.86 21.2429C287.749 21.7829 285.946 14.0225 290.48 8.13467C294.091 3.44775 305.906 2.1219 311.282 3.65887C326.166 7.91595 319.598 27.5651 319.598 27.5651L318.934 32.5806L315.918 32.8508Z" fill="#0C0C0C"/>
<g opacity="0.52">
<path d="M297.366 37.3686C297.36 37.369 297.353 37.369 297.347 37.3686C296.396 37.3593 294.802 37.2373 294.809 36.5283C294.815 35.9406 296.493 29.614 296.684 28.8945C296.7 28.8326 296.741 28.7797 296.796 28.7475C296.852 28.7154 296.918 28.7065 296.98 28.7229C297.042 28.7393 297.095 28.7796 297.128 28.835C297.16 28.8904 297.169 28.9563 297.152 29.0183C296.407 31.8203 295.297 36.1339 295.293 36.5342C295.385 36.7031 296.367 36.8771 297.351 36.8872C297.414 36.8885 297.473 36.9136 297.517 36.9572C297.561 37.0008 297.587 37.0596 297.588 37.1215C297.59 37.1834 297.568 37.2436 297.527 37.2898C297.485 37.3359 297.428 37.3644 297.366 37.3694V37.3686Z" fill="#0C0C0C"/>
</g>
<path d="M294.123 23.1959C293.123 22.9217 292.068 22.9217 291.069 23.1959C290.578 23.3275 290.11 23.5319 289.68 23.8022C289.255 24.067 288.865 24.3842 288.519 24.7464C288.456 24.8109 288.419 24.8974 288.418 24.9879C288.417 25.0784 288.45 25.166 288.512 25.2323C288.574 25.2987 288.659 25.3387 288.75 25.3442C288.84 25.3496 288.929 25.32 288.999 25.2615L289.02 25.2429C289.34 24.9477 289.696 24.6939 290.079 24.4876C290.455 24.2821 290.86 24.1347 291.281 24.0501C292.108 23.8771 292.967 23.9251 293.77 24.189L293.803 24.2008C293.935 24.2431 294.077 24.2325 294.201 24.1715C294.325 24.1104 294.42 24.0036 294.466 23.8738C294.512 23.744 294.505 23.6015 294.448 23.4765C294.39 23.3514 294.285 23.2538 294.156 23.2043L294.123 23.1959Z" fill="#0C0C0C"/>
<path d="M301.198 23.7941C301.958 23.4258 302.803 23.2642 303.646 23.3259C304.074 23.3536 304.495 23.4458 304.895 23.5995C305.302 23.7534 305.688 23.9577 306.044 24.2075L306.067 24.2227C306.144 24.2718 306.236 24.2896 306.325 24.2724C306.415 24.2551 306.494 24.2042 306.546 24.1301C306.599 24.0561 306.621 23.9647 306.607 23.8751C306.594 23.7854 306.546 23.7044 306.474 23.6489C306.084 23.3358 305.655 23.0732 305.198 22.8673C304.736 22.6565 304.244 22.5162 303.74 22.451C302.713 22.3114 301.668 22.4511 300.714 22.8551C300.65 22.8828 300.592 22.9228 300.544 22.9728C300.495 23.0228 300.457 23.0819 300.431 23.1466C300.406 23.2113 300.393 23.2804 300.395 23.3499C300.396 23.4194 300.411 23.488 300.439 23.5518C300.495 23.6806 300.6 23.7818 300.731 23.8333C300.796 23.8588 300.865 23.8713 300.935 23.8701C301.005 23.8689 301.073 23.854 301.137 23.8262L301.167 23.8123L301.198 23.7941Z" fill="#0C0C0C"/>
<path d="M300.715 8.20091C301.387 4.99599 300.161 2.02907 297.977 1.57413C295.793 1.11919 293.478 3.34851 292.806 6.55343C292.134 9.75835 293.36 12.7252 295.544 13.1802C297.729 13.6351 300.044 11.4058 300.715 8.20091Z" fill="#0C0C0C"/>
<path d="M268.484 92.8099C269.055 99.4949 273.1 141.203 273.651 149.438H348.011C348.439 142.011 350.357 109.536 351.977 95.0106C353.524 81.1517 355.692 74.845 353.91 70.5385C350.768 62.9423 340.768 59.5505 333.996 58.6363C329.861 58.0781 323.641 57.6782 323.641 57.6782C323.641 57.6782 323.115 68.299 310.558 68.8901C293.465 69.6924 294.607 57.6782 294.522 57.6782C291.752 57.6782 276.679 59.686 272.91 62.135C267.587 65.5941 266.013 70.3084 265.951 74.6394C265.88 79.6274 267.838 85.2268 268.484 92.8099Z" fill="#0C6FF9"/>
<path d="M272.256 133.001C272.203 133.002 272.152 132.982 272.113 132.946C272.074 132.911 272.049 132.862 272.045 132.809L269.227 100.685C269.222 100.629 269.24 100.573 269.276 100.53C269.312 100.487 269.364 100.461 269.42 100.456C269.447 100.453 269.476 100.456 269.502 100.464C269.529 100.472 269.554 100.485 269.575 100.503C269.597 100.521 269.614 100.543 269.627 100.568C269.64 100.593 269.647 100.62 269.649 100.648L272.467 132.772C272.471 132.828 272.454 132.883 272.418 132.926C272.382 132.969 272.33 132.996 272.274 133.001C272.268 133.001 272.262 133.002 272.256 133.001Z" fill="#0C0C0C"/>
<path d="M277.646 151.661L287.856 143.403L286.138 143.887C285.58 144.032 284.988 143.961 284.481 143.687C283.974 143.414 283.59 142.959 283.406 142.414C283.322 142.13 283.296 141.831 283.33 141.536C283.365 141.241 283.46 140.957 283.609 140.7C283.757 140.443 283.957 140.218 284.196 140.041C284.434 139.863 284.706 139.736 284.996 139.667L306.446 134.465L308.292 141.277C308.865 143.392 308.792 145.631 308.081 147.704C307.37 149.778 306.055 151.593 304.303 152.916L296.355 158.896C295.948 159.214 295.443 159.383 294.926 159.373C294.409 159.363 293.912 159.175 293.517 158.842C293.167 158.533 292.925 158.12 292.827 157.664C292.729 157.209 292.78 156.734 292.972 156.309C292.938 156.298 292.907 156.279 292.882 156.253C292.861 156.227 292.846 156.197 292.84 156.164C292.833 156.131 292.834 156.098 292.844 156.066L291.38 157.171C290.927 157.527 290.356 157.699 289.782 157.652C289.207 157.604 288.672 157.341 288.285 156.915C287.952 156.522 287.769 156.025 287.768 155.511C287.766 154.998 287.946 154.5 288.277 154.105C288.254 154.102 288.232 154.094 288.211 154.083L287.61 154.537C287.203 154.855 286.698 155.024 286.181 155.014C285.664 155.004 285.167 154.817 284.772 154.483C284.348 154.108 284.085 153.584 284.04 153.021C283.995 152.457 284.17 151.898 284.529 151.46C284.521 151.448 284.514 151.435 284.508 151.421L280.256 154.86C280.045 155.031 279.803 155.158 279.542 155.235C279.282 155.312 279.009 155.337 278.739 155.309C278.469 155.281 278.208 155.201 277.969 155.072C277.73 154.943 277.519 154.768 277.348 154.558C277.177 154.348 277.05 154.106 276.972 153.847C276.895 153.587 276.87 153.315 276.898 153.046C276.926 152.777 277.007 152.516 277.136 152.278C277.266 152.04 277.441 151.83 277.651 151.66L277.646 151.661Z" fill="#E98862"/>
<path opacity="0.2" d="M284.76 151.544C284.782 151.536 284.803 151.524 284.822 151.509L288.913 148.12C288.934 148.103 288.951 148.082 288.963 148.058C288.976 148.034 288.984 148.008 288.986 147.981C288.989 147.954 288.986 147.927 288.978 147.902C288.97 147.876 288.957 147.852 288.939 147.831C288.922 147.811 288.901 147.793 288.877 147.781C288.853 147.768 288.827 147.761 288.8 147.758C288.773 147.756 288.746 147.759 288.72 147.767C288.694 147.775 288.67 147.788 288.649 147.805L284.559 151.193C284.521 151.224 284.496 151.267 284.488 151.314C284.479 151.362 284.488 151.411 284.512 151.452C284.536 151.494 284.574 151.526 284.619 151.543C284.664 151.56 284.714 151.56 284.76 151.544Z" fill="#0A0A0A"/>
<path opacity="0.2" d="M288.366 154.103C288.388 154.095 288.408 154.084 288.426 154.069L291.662 151.431C291.705 151.396 291.732 151.346 291.737 151.292C291.742 151.238 291.726 151.184 291.692 151.142C291.657 151.1 291.607 151.073 291.553 151.067C291.498 151.062 291.444 151.078 291.402 151.113L288.166 153.751C288.128 153.781 288.102 153.824 288.093 153.872C288.084 153.92 288.093 153.969 288.117 154.011C288.14 154.053 288.179 154.086 288.224 154.102C288.27 154.119 288.32 154.12 288.366 154.103Z" fill="#0A0A0A"/>
<path opacity="0.2" d="M293.103 156.315C293.126 156.307 293.148 156.294 293.168 156.278L294.666 154.996C294.687 154.979 294.704 154.957 294.716 154.933C294.728 154.909 294.736 154.883 294.738 154.856C294.74 154.83 294.736 154.803 294.728 154.777C294.72 154.751 294.706 154.728 294.689 154.707C294.671 154.687 294.65 154.67 294.626 154.658C294.602 154.646 294.575 154.638 294.548 154.636C294.521 154.634 294.494 154.638 294.469 154.646C294.443 154.654 294.419 154.668 294.399 154.685L292.899 155.967C292.863 155.998 292.839 156.041 292.831 156.088C292.823 156.135 292.832 156.184 292.856 156.225C292.88 156.267 292.918 156.298 292.963 156.315C293.008 156.331 293.058 156.331 293.103 156.315Z" fill="#0A0A0A"/>
<path d="M367.889 131.433L367.81 131.086L354.238 71.2363L327.386 77.2879L337.98 124.005L295.543 134.401L300.765 158.274L357.317 147.52C357.444 147.495 357.633 147.457 357.762 147.428C359.48 147.041 361.105 146.32 362.544 145.306C363.983 144.293 365.208 143.007 366.148 141.522C367.088 140.036 367.726 138.381 368.025 136.65C368.323 134.919 368.277 133.146 367.889 131.433Z" fill="#0C6FF9"/>
<path d="M295.337 134.446C295.325 134.393 295.335 134.337 295.365 134.291C295.394 134.244 295.44 134.211 295.493 134.198L337.741 123.853L330.872 93.605C330.864 93.5774 330.862 93.5486 330.866 93.5202C330.87 93.4919 330.879 93.4646 330.894 93.44C330.908 93.4154 330.928 93.394 330.951 93.3772C330.974 93.3604 331.001 93.3485 331.029 93.3421C331.057 93.3358 331.086 93.3352 331.114 93.3404C331.142 93.3456 331.169 93.3564 331.193 93.3723C331.217 93.3881 331.237 93.4087 331.253 93.4326C331.269 93.4566 331.279 93.4835 331.284 93.5116L338.2 123.962C338.212 124.016 338.203 124.073 338.174 124.121C338.145 124.168 338.098 124.202 338.044 124.215L295.793 134.56C295.793 134.56 296.076 135.791 296.156 136.207C296.162 136.261 296.147 136.315 296.113 136.358C296.079 136.401 296.029 136.428 295.975 136.435C295.921 136.441 295.866 136.425 295.824 136.392C295.781 136.358 295.753 136.308 295.747 136.254C295.65 135.799 295.337 134.446 295.337 134.446Z" fill="#0C0C0C"/>
<path d="M296.992 167.782L280.675 117.779C280.389 116.9 279.831 116.134 279.081 115.591C278.331 115.048 277.428 114.756 276.501 114.756H210.027C209.334 114.756 208.651 114.919 208.033 115.233C207.416 115.547 206.882 116.002 206.475 116.561C206.067 117.12 205.799 117.767 205.691 118.449C205.582 119.131 205.638 119.83 205.852 120.487L222.169 170.49C222.456 171.369 223.014 172.134 223.764 172.677C224.514 173.22 225.417 173.513 226.344 173.513H292.817C293.51 173.513 294.193 173.349 294.81 173.036C295.428 172.722 295.962 172.267 296.369 171.708C296.776 171.149 297.045 170.502 297.153 169.82C297.261 169.137 297.206 168.439 296.992 167.782Z" fill="#292A2E"/>
<path opacity="0.2" d="M296.992 167.782L280.675 117.779C280.389 116.9 279.831 116.134 279.081 115.591C278.331 115.048 277.428 114.756 276.501 114.756H210.027C209.334 114.756 208.651 114.919 208.033 115.233C207.416 115.547 206.882 116.002 206.475 116.561C206.067 117.12 205.799 117.767 205.691 118.449C205.582 119.131 205.638 119.83 205.852 120.487L222.169 170.49C222.456 171.369 223.014 172.134 223.764 172.677C224.514 173.22 225.417 173.513 226.344 173.513H292.817C293.51 173.513 294.193 173.349 294.81 173.036C295.428 172.722 295.962 172.267 296.369 171.708C296.776 171.149 297.045 170.502 297.153 169.82C297.261 169.137 297.206 168.439 296.992 167.782Z" fill="white"/>
<path d="M249.507 151.085C253.357 151.085 256.479 147.973 256.479 144.134C256.479 140.295 253.357 137.184 249.507 137.184C245.656 137.184 242.535 140.295 242.535 144.134C242.535 147.973 245.656 151.085 249.507 151.085Z" fill="white"/>
<path d="M183.88 5.28418H51.9461C45.8339 5.28418 40.8789 10.2241 40.8789 16.3179V175.998C40.8789 182.092 45.8339 187.032 51.9461 187.032H183.88C189.993 187.032 194.948 182.092 194.948 175.998V16.3179C194.948 10.2241 189.993 5.28418 183.88 5.28418Z" fill="#292A2E"/>
<path d="M188.759 0.422363H56.825C50.7128 0.422363 45.7578 5.36232 45.7578 11.4561V171.137C45.7578 177.23 50.7128 182.17 56.825 182.17H188.759C194.872 182.17 199.827 177.23 199.827 171.137V11.4561C199.827 5.36232 194.872 0.422363 188.759 0.422363Z" fill="white"/>
<path d="M188.757 182.592H56.8228C53.7762 182.589 50.8554 181.381 48.7012 179.233C46.5469 177.085 45.3353 174.173 45.332 171.136V11.4559C45.3354 8.41866 46.5471 5.50675 48.7013 3.35907C50.8555 1.21139 53.7763 0.0033529 56.8228 0L188.757 0C191.803 0.00346464 194.724 1.21155 196.878 3.35922C199.032 5.50689 200.244 8.41874 200.247 11.4559V171.136C200.244 174.173 199.033 177.085 196.878 179.233C194.724 181.381 191.804 182.589 188.757 182.592ZM56.8228 0.844491C54.0008 0.84762 51.2954 1.96661 49.3 3.95597C47.3046 5.94532 46.1822 8.64257 46.1791 11.4559V171.136C46.1822 173.949 47.3046 176.647 49.3 178.636C51.2954 180.625 54.0008 181.744 56.8228 181.747H188.757C191.579 181.744 194.284 180.625 196.28 178.636C198.275 176.647 199.397 173.949 199.4 171.136V11.4559C199.397 8.64261 198.275 5.94536 196.28 3.95599C194.284 1.96663 191.579 0.84762 188.757 0.844491H56.8228Z" fill="#292A2E"/>
<path d="M43.9772 205.018C59.1524 205.018 71.4544 192.754 71.4544 177.624C71.4544 162.495 59.1524 150.23 43.9772 150.23C28.802 150.23 16.5 162.495 16.5 177.624C16.5 192.754 28.802 205.018 43.9772 205.018Z" fill="#292A2E"/>
<path d="M38.2743 174.049C37.9126 174.049 37.5657 173.906 37.3099 173.651C37.054 173.396 36.9103 173.05 36.9102 172.69V166.107C36.9102 162.466 40.0811 159.504 43.9784 159.504C47.8757 159.504 51.0467 162.466 51.0467 166.107V172.238C51.0498 172.419 51.0169 172.598 50.9498 172.766C50.8827 172.934 50.7827 173.086 50.6558 173.215C50.5288 173.344 50.3774 173.446 50.2103 173.516C50.0432 173.586 49.8639 173.622 49.6827 173.622C49.5015 173.622 49.3222 173.586 49.1551 173.516C48.988 173.446 48.8366 173.344 48.7096 173.215C48.5826 173.086 48.4827 172.934 48.4156 172.766C48.3484 172.598 48.3155 172.419 48.3187 172.238V166.107C48.3187 163.966 46.3705 162.224 43.9784 162.224C41.5863 162.224 39.6381 163.966 39.6381 166.107V172.691C39.6379 173.051 39.4941 173.397 39.2384 173.652C38.9826 173.906 38.6359 174.049 38.2743 174.049Z" fill="white"/>
<path d="M52.6788 171.552H35.2752C34.2603 171.552 33.4375 172.372 33.4375 173.384V189.727C33.4375 190.739 34.2603 191.559 35.2752 191.559H52.6788C53.6937 191.559 54.5165 190.739 54.5165 189.727V173.384C54.5165 172.372 53.6937 171.552 52.6788 171.552Z" fill="white"/>
<path d="M42.2443 179.938C42.2441 180.262 42.3354 180.58 42.5076 180.854C42.6799 181.129 42.9262 181.35 43.2184 181.492V184.147C43.2184 184.347 43.2981 184.538 43.44 184.68C43.5818 184.821 43.7742 184.901 43.9748 184.901C44.1755 184.901 44.3679 184.821 44.5097 184.68C44.6516 184.538 44.7313 184.347 44.7313 184.147V181.492C45.0096 181.358 45.2467 181.151 45.4179 180.894C45.5892 180.637 45.6883 180.34 45.705 180.032C45.7217 179.723 45.6553 179.417 45.5128 179.143C45.3703 178.869 45.1569 178.638 44.8947 178.474C44.6325 178.311 44.3312 178.22 44.0219 178.212C43.7126 178.203 43.4067 178.278 43.136 178.427C42.8653 178.576 42.6396 178.795 42.4824 179.061C42.3252 179.326 42.2423 179.629 42.2422 179.938H42.2443Z" fill="#292A2E"/>
<path d="M177.231 91.1094H68.3395C65.7401 91.1094 63.6328 93.2102 63.6328 95.8018V111.021C63.6328 113.613 65.7401 115.714 68.3395 115.714H177.231C179.831 115.714 181.938 113.613 181.938 111.021V95.8018C181.938 93.2102 179.831 91.1094 177.231 91.1094Z" fill="white"/>
<path d="M177.233 116.135H68.3411C66.981 116.134 65.677 115.594 64.7153 114.635C63.7535 113.677 63.2125 112.377 63.2109 111.021V95.8016C63.2125 94.4456 63.7535 93.1455 64.7152 92.1866C65.677 91.2277 66.981 90.6882 68.3411 90.6865H177.233C178.593 90.6881 179.897 91.2275 180.859 92.1864C181.821 93.1453 182.362 94.4455 182.363 95.8016V111.021C182.362 112.377 181.821 113.677 180.859 114.636C179.897 115.594 178.593 116.134 177.233 116.135ZM68.3411 91.531C67.2055 91.5322 66.1167 91.9826 65.3137 92.7832C64.5107 93.5839 64.0591 94.6694 64.058 95.8016V111.021C64.0592 112.153 64.5109 113.238 65.3139 114.039C66.1168 114.839 67.2055 115.29 68.3411 115.291H177.233C178.368 115.29 179.457 114.839 180.26 114.039C181.063 113.238 181.515 112.153 181.516 111.021V95.8016C181.515 94.6693 181.063 93.5838 180.26 92.7832C179.457 91.9826 178.368 91.5322 177.233 91.531H68.3411Z" fill="#292A2E"/>
<path d="M177.231 126.271H68.3395C65.7401 126.271 63.6328 128.372 63.6328 130.964V146.183C63.6328 148.775 65.7401 150.876 68.3395 150.876H177.231C179.831 150.876 181.938 148.775 181.938 146.183V130.964C181.938 128.372 179.831 126.271 177.231 126.271Z" fill="white"/>
<path d="M177.233 151.297H68.3411C66.9808 151.296 65.6766 150.756 64.7148 149.797C63.753 148.838 63.2122 147.538 63.2109 146.182V130.964C63.2125 129.608 63.7535 128.308 64.7153 127.349C65.677 126.39 66.981 125.851 68.3411 125.849H177.233C178.593 125.851 179.897 126.39 180.859 127.349C181.821 128.308 182.362 129.608 182.363 130.964V146.182C182.362 147.538 181.821 148.838 180.859 149.797C179.897 150.756 178.593 151.296 177.233 151.297ZM68.3411 126.694C67.2055 126.695 66.1168 127.145 65.3139 127.946C64.5109 128.746 64.0592 129.832 64.058 130.964V146.182C64.0592 147.314 64.5109 148.399 65.3139 149.2C66.1168 150 67.2055 150.45 68.3411 150.452H177.233C178.368 150.451 179.457 150 180.26 149.2C181.063 148.399 181.515 147.314 181.516 146.182V130.964C181.515 129.832 181.063 128.746 180.26 127.946C179.457 127.145 178.368 126.695 177.233 126.694H68.3411Z" fill="#292A2E"/>
<path d="M122.79 72.808C136.753 72.808 148.072 61.5231 148.072 47.6025C148.072 33.6819 136.753 22.397 122.79 22.397C108.827 22.397 97.5078 33.6819 97.5078 47.6025C97.5078 61.5231 108.827 72.808 122.79 72.808Z" fill="white"/>
<path d="M122.788 73.2301C117.704 73.2301 112.734 71.7271 108.506 68.9111C104.279 66.0951 100.984 62.0926 99.0388 57.4097C97.0932 52.7268 96.5841 47.574 97.576 42.6027C98.5678 37.6314 101.016 33.0649 104.611 29.4808C108.206 25.8967 112.786 23.4559 117.773 22.4671C122.759 21.4782 127.928 21.9857 132.625 23.9254C137.322 25.8651 141.336 29.1499 144.161 33.3644C146.986 37.5788 148.493 42.5337 148.493 47.6024C148.486 54.397 145.775 60.9111 140.956 65.7156C136.137 70.52 129.603 73.2225 122.788 73.2301ZM122.788 22.8191C117.871 22.8191 113.065 24.2726 108.977 26.9958C104.889 29.7191 101.703 33.5897 99.8213 38.1182C97.9399 42.6468 97.4476 47.6299 98.4067 52.4374C99.3659 57.2448 101.733 61.6608 105.21 65.1268C108.687 68.5928 113.116 70.9532 117.938 71.9095C122.76 72.8657 127.758 72.3749 132.301 70.4991C136.843 68.6234 140.725 65.4468 143.457 61.3712C146.188 57.2956 147.646 52.504 147.646 47.6024C147.639 41.0317 145.017 34.7323 140.357 30.0861C135.697 25.4399 129.378 22.8265 122.788 22.8191Z" fill="#292A2E"/>
<path d="M147.506 47.6023C147.513 53.4363 145.437 59.0823 141.649 63.5289C139.315 60.8171 136.421 58.6405 133.165 57.1484C129.909 55.6564 126.368 54.8842 122.784 54.8848C119.2 54.8855 115.659 55.6589 112.403 57.1521C109.148 58.6454 106.255 60.823 103.922 63.5357C101.35 60.5089 99.5486 56.9077 98.6711 53.0381C97.7936 49.1686 97.866 45.1451 98.8821 41.3094C99.8982 37.4737 101.828 33.9392 104.507 31.0063C107.187 28.0733 110.537 25.8286 114.273 24.4628C118.009 23.097 122.021 22.6504 125.967 23.1611C129.913 23.6718 133.677 25.1247 136.939 27.3962C140.202 29.6678 142.866 32.6909 144.706 36.2087C146.545 39.7265 147.506 43.6351 147.506 47.6023Z" fill="#B7D4FE"/>
<path d="M141.648 63.5289C139.328 66.2605 136.439 68.4555 133.181 69.9612C129.924 71.4669 126.377 72.2472 122.787 72.2479C119.196 72.2485 115.649 71.4695 112.391 69.9649C109.133 68.4604 106.243 66.2664 103.922 63.5356C106.254 60.8229 109.147 58.6453 112.403 57.1521C115.659 55.6589 119.2 54.8854 122.783 54.8848C126.367 54.8841 129.908 55.6563 133.165 57.1484C136.421 58.6404 139.315 60.817 141.648 63.5289Z" fill="white"/>
<path d="M122.785 50.2864C128.304 50.2864 132.778 45.8262 132.778 40.3243C132.778 34.8225 128.304 30.3623 122.785 30.3623C117.267 30.3623 112.793 34.8225 112.793 40.3243C112.793 45.8262 117.267 50.2864 122.785 50.2864Z" fill="white"/>
<g opacity="0.4">
<path d="M72.8022 141.57C74.462 141.57 75.8076 140.228 75.8076 138.573C75.8076 136.919 74.462 135.577 72.8022 135.577C71.1424 135.577 69.7969 136.919 69.7969 138.573C69.7969 140.228 71.1424 141.57 72.8022 141.57Z" fill="#292A2E"/>
<path d="M82.2046 141.57C83.8644 141.57 85.2099 140.228 85.2099 138.573C85.2099 136.919 83.8644 135.577 82.2046 135.577C80.5448 135.577 79.1992 136.919 79.1992 138.573C79.1992 140.228 80.5448 141.57 82.2046 141.57Z" fill="#292A2E"/>
<path d="M91.603 141.57C93.2628 141.57 94.6084 140.228 94.6084 138.573C94.6084 136.919 93.2628 135.577 91.603 135.577C89.9432 135.577 88.5977 136.919 88.5977 138.573C88.5977 140.228 89.9432 141.57 91.603 141.57Z" fill="#292A2E"/>
<path d="M101.005 141.57C102.665 141.57 104.011 140.228 104.011 138.573C104.011 136.919 102.665 135.577 101.005 135.577C99.3455 135.577 98 136.919 98 138.573C98 140.228 99.3455 141.57 101.005 141.57Z" fill="#292A2E"/>
<path d="M110.408 141.57C112.068 141.57 113.413 140.228 113.413 138.573C113.413 136.919 112.068 135.577 110.408 135.577C108.748 135.577 107.402 136.919 107.402 138.573C107.402 140.228 108.748 141.57 110.408 141.57Z" fill="#292A2E"/>
<path d="M119.806 141.57C121.466 141.57 122.811 140.228 122.811 138.573C122.811 136.919 121.466 135.577 119.806 135.577C118.146 135.577 116.801 136.919 116.801 138.573C116.801 140.228 118.146 141.57 119.806 141.57Z" fill="#292A2E"/>
<path d="M129.208 141.57C130.868 141.57 132.214 140.228 132.214 138.573C132.214 136.919 130.868 135.577 129.208 135.577C127.549 135.577 126.203 136.919 126.203 138.573C126.203 140.228 127.549 141.57 129.208 141.57Z" fill="#292A2E"/>
</g>
<g opacity="0.3">
<path d="M75.7815 103.23V104.244H71.9219V103.23H75.7815Z" fill="black"/>
<path d="M80.5784 103.23V104.244H76.7188V103.23H80.5784Z" fill="black"/>
<path d="M85.3752 103.23V104.244H81.5156V103.23H85.3752Z" fill="black"/>
<path d="M90.1682 103.23V104.244H86.3086V103.23H90.1682Z" fill="black"/>
<path d="M94.9655 103.23V104.244H91.1055V103.23H94.9655Z" fill="black"/>
<path d="M103.624 108.948C102.766 109.388 101.809 109.603 100.844 109.573C98.2817 109.573 96.1094 107.703 96.1094 104.712C96.1094 101.503 98.3443 98.7295 101.813 98.7295C104.532 98.7295 106.36 100.63 106.36 103.232C106.36 105.569 105.047 106.94 103.579 106.94C102.954 106.94 102.376 106.517 102.422 105.569H102.36C102.158 105.98 101.844 106.326 101.455 106.568C101.066 106.81 100.616 106.939 100.157 106.94C99.2511 106.94 98.4697 106.207 98.4697 104.977C98.468 104.492 98.5626 104.011 98.7481 103.562C98.9336 103.113 99.2064 102.705 99.5506 102.362C99.8949 102.019 100.304 101.747 100.754 101.562C101.204 101.377 101.687 101.283 102.173 101.284C102.748 101.276 103.317 101.388 103.846 101.612L103.314 104.431C103.08 105.614 103.267 106.163 103.783 106.177C104.58 106.192 105.471 105.132 105.471 103.326C105.471 101.067 104.111 99.4465 101.689 99.4465C99.1418 99.4465 97.0009 101.456 97.0009 104.619C97.0009 107.22 98.7043 108.825 101.017 108.825C101.837 108.844 102.649 108.656 103.377 108.28L103.624 108.948ZM102.765 102.218C102.511 102.144 102.248 102.107 101.983 102.109C100.608 102.109 99.4989 103.402 99.4989 104.913C99.4989 105.599 99.8428 106.096 100.53 106.096C101.437 106.096 102.265 104.943 102.436 103.977L102.765 102.218Z" fill="black"/>
<path d="M111.278 103.23V104.244H107.418V103.23H111.278Z" fill="black"/>
<path d="M116.075 103.23V104.244H112.215V103.23H116.075Z" fill="black"/>
<path d="M120.867 103.23V104.244H117.008V103.23H120.867Z" fill="black"/>
</g>
</g>
<defs>
<clipPath id="clip0_824_26046">
<rect width="377" height="364" fill="white"/>
</clipPath>
</defs>
</svg>
