<svg width="164" height="35" viewBox="0 0 164 35" fill="none" xmlns="http://www.w3.org/2000/svg">
<g clip-path="url(#clip0_1845_64647)">
<path d="M17.2501 34.4999C26.777 34.4999 34.5001 26.7767 34.5001 17.2497C34.5001 7.72268 26.777 -0.000488281 17.2501 -0.000488281C7.72311 -0.000488281 0 7.72268 0 17.2497C0 26.7767 7.72311 34.4999 17.2501 34.4999Z" fill="#0C6FF9"/>
<path d="M9.86307 11.2865C10.6355 11.2865 11.3667 11.5393 11.9743 11.9944C13.0866 10.3764 15.2287 8 18.1844 8C21.1402 8 22.3863 9.39551 22.8498 10.2348C22.8807 10.2955 22.9116 10.3461 22.9425 10.4067C23.4059 10.4876 23.859 10.609 24.3019 10.7607C26.5161 11.5191 28.0403 13.7539 28.3699 16.7371C28.6891 19.5989 27.8344 23.1888 25.2185 24.7663C24.5388 25.1708 23.8075 25.4843 23.0351 25.6764C22.2421 25.8888 21.377 26 20.4708 26C19.6881 26 18.8642 25.9191 18.03 25.7674C17.9476 25.7573 17.8549 25.7371 17.824 25.727C15.4965 25.2618 13.5088 24.3517 12.3966 23.7652C11.7477 24.4831 10.8312 24.8876 9.86307 24.8876C8.94648 24.8876 8.08139 24.5337 7.44287 23.8966C6.79405 23.2596 6.43359 22.4202 6.43359 21.5202L6.43359 14.664C6.43359 12.8034 7.9784 11.2966 9.86307 11.2966L9.86307 11.2865ZM8.56543 14.6539L8.56543 21.5101C8.56543 21.8539 8.69931 22.1775 8.94648 22.4101C9.44082 22.8955 10.2956 22.8955 10.79 22.4101C11.0371 22.1674 11.171 21.8438 11.171 21.5101L11.171 14.6539C11.171 14.3101 11.0371 13.9865 10.79 13.7438C10.5428 13.5011 10.2132 13.3697 9.87337 13.3697C9.52321 13.3697 9.19365 13.5011 8.95678 13.7438C8.70961 13.9865 8.57573 14.3101 8.57573 14.6438L8.56543 14.6539ZM18.2256 13.7236C18.1432 13.8348 18.0403 13.9258 17.9167 13.9966C17.7931 14.0674 17.6592 14.118 17.5253 14.1281C17.3914 14.1483 17.2473 14.1382 17.1031 14.1079C16.9692 14.0775 16.8456 14.0169 16.722 13.9258C16.6087 13.8449 16.516 13.7337 16.444 13.6225C16.3719 13.5011 16.3307 13.3697 16.3101 13.2281C16.2895 13.0865 16.3101 12.9551 16.341 12.8236C16.3822 12.6921 16.444 12.5708 16.5263 12.4596C16.6499 12.2978 17.134 11.7416 17.9888 11.2258L18.0403 11.1955L18.1226 11.1449C18.5449 10.9124 18.998 10.7303 19.41 10.609C19.5027 10.5685 19.6057 10.5382 19.6675 10.5281C19.791 10.4978 19.9146 10.4674 20.0382 10.4371C19.5542 10.2146 18.926 10.0933 18.1638 10.0933C15.6613 10.0933 13.7354 13.0663 13.2822 13.8449L13.2822 21.8539C14.1576 22.3191 16.0732 23.2393 18.2771 23.6843L18.4007 23.7045C19.9146 23.9876 21.2844 23.9775 22.4687 23.6539C23.0454 23.5124 23.581 23.2798 24.0856 22.9764C25.6407 22.036 26.5264 19.5584 26.238 16.9494C26.0012 14.7854 25.0125 13.1978 23.5913 12.7225C23.0866 12.5506 22.5614 12.4292 22.0465 12.3787C21.8611 12.3584 21.6757 12.3483 21.5006 12.3483C20.6458 12.3483 19.8528 12.5607 19.1422 12.9652C18.5449 13.3191 18.4865 13.369 18.4336 13.4336C18.3807 13.4982 18.2894 13.6155 18.2256 13.7236Z" fill="white"/>
<path d="M57.6959 19.2396C57.6959 20.5277 57.0289 22.1147 56.0744 23.1382C54.7059 24.6217 53.0154 25.3117 50.6924 25.3117C45.8394 25.3117 42.9414 22.2067 42.9414 16.9626C42.9414 11.7186 45.9774 8.39502 50.6924 8.39502C54.4529 8.39502 57.6729 11.0055 57.6729 14.0876V14.3291H53.7054C53.3949 12.8916 52.2909 12.0061 50.7844 12.0061C48.5649 12.0061 47.1274 13.9496 47.1274 16.9626C47.1274 19.9756 48.5189 21.7237 50.7154 21.7237C52.2679 21.7237 53.4409 20.6772 53.7284 19.0441H57.6959V19.2396Z" fill="white"/>
<path d="M71.0738 18.7795C71.0738 22.724 68.4863 25.2886 64.5188 25.2886C60.5513 25.2886 58.1133 22.655 58.1133 18.929C58.1133 15.203 60.7238 12.5234 64.6223 12.5234C68.5208 12.5234 71.0623 14.9845 71.0623 18.768L71.0738 18.7795ZM62.1728 18.8945C62.1728 20.999 63.0583 22.172 64.6568 22.172C66.1173 22.172 67.0028 20.953 67.0028 18.9405C67.0028 16.928 66.1173 15.663 64.6108 15.663C63.1043 15.663 62.1728 16.859 62.1728 18.8945Z" fill="white"/>
<path d="M71.9102 12.9028H75.7857V14.6508C76.6022 13.2593 77.7292 12.5923 79.3277 12.5923C80.8342 12.5923 81.8347 13.1673 82.6512 14.5358C83.3987 13.2708 84.6177 12.5923 86.1702 12.5923C88.6082 12.5923 90.0917 14.1218 90.0917 16.6058V24.9549H86.2162V17.9513C86.2162 16.4448 85.7907 15.8008 84.7787 15.8008C83.6517 15.8008 82.9387 16.6863 82.9387 18.1008V24.9434H79.0632V17.6063C79.0632 16.4333 78.6032 15.8353 77.6487 15.8353C76.5217 15.8353 75.7857 16.7208 75.7857 18.0893V24.9319H71.9102V12.9028Z" fill="white"/>
<path d="M91.2266 12.9027H95.1021V14.4323C95.9416 13.2132 97.0686 12.6152 98.5521 12.6152C101.496 12.6152 103.497 15.2258 103.497 19.0783C103.497 22.9308 101.462 25.2539 98.4486 25.2539C97.0916 25.2539 96.2521 24.8284 95.1021 23.5289V29.5549H91.2266V12.9027ZM95.1021 18.8138C95.1021 20.8723 95.8956 21.9763 97.3561 21.9763C98.6211 21.9763 99.5066 20.7573 99.5066 18.9863C99.5066 16.9738 98.6901 15.7548 97.3101 15.7548C95.9301 15.7548 95.0906 16.9048 95.0906 18.8138H95.1021Z" fill="white"/>
<path d="M107.861 25.2424C105.515 25.2424 104.031 23.9314 104.031 21.8499C104.031 20.5389 104.606 19.3659 105.515 18.7679C106.285 18.2848 107.815 17.8363 109.896 17.5258C111.265 17.3303 111.667 17.1003 111.667 16.5483C111.667 15.8123 111.023 15.3523 110.011 15.3523C108.815 15.3523 108.309 15.7318 108.102 16.7208H104.445C104.687 15.0993 105.112 14.3288 106.101 13.5928C107.01 12.9258 108.298 12.5923 110.046 12.5923C113.484 12.5923 115.186 13.7423 115.186 16.0653V22.5284C115.186 23.6784 115.428 24.2764 116.026 24.4949V24.9204H111.978L111.713 23.5059C110.54 24.7939 109.586 25.2079 107.861 25.2079V25.2424ZM110.632 19.6879L109.275 20.0444C108.194 20.3319 107.861 20.6424 107.861 21.3784C107.861 22.2179 108.436 22.7239 109.413 22.7239C110.678 22.7239 111.656 21.7694 111.656 20.5044V19.3314C111.345 19.5039 111.23 19.5269 110.632 19.6879Z" fill="white"/>
<path d="M116.679 12.9027H120.44V14.6968C121.394 13.2362 122.429 12.6152 124.074 12.6152H124.338V16.5138L123.982 16.4908C123.786 16.4678 123.533 16.4678 123.384 16.4678C121.279 16.4678 120.543 17.3763 120.543 19.9638V24.9434H116.668V12.9027H116.679Z" fill="white"/>
<path d="M130.871 25.3118C126.95 25.3118 124.73 23.0578 124.73 19.0212C124.73 14.9847 127.26 12.5352 130.975 12.5352C133.229 12.5352 135.161 13.6162 136.139 15.4792C136.599 16.3417 136.955 18.0667 136.955 19.4237V19.9987H128.732C128.928 21.7238 129.618 22.4828 131.009 22.4828C132.01 22.4828 132.631 22.0803 132.999 21.1948H136.783C136.276 23.8283 134.149 25.3118 130.848 25.3118H130.871ZM133.125 17.6872C133.033 16.2267 132.171 15.3182 130.883 15.3182C129.595 15.3182 128.755 16.2037 128.629 17.6872H133.125Z" fill="white"/>
<path d="M141.533 18.6874L137.416 12.9028H142.2L143.833 15.8929L145.477 12.9028H150.146L145.96 18.7104L150.296 24.932L145.581 24.955L143.718 21.6314L141.97 24.955H137.301L141.533 18.6874Z" fill="white"/>
<path d="M163.566 18.7795C163.566 22.724 160.978 25.2886 157.011 25.2886C153.043 25.2886 150.605 22.655 150.605 18.929C150.605 15.203 153.216 12.5234 157.114 12.5234C161.013 12.5234 163.555 14.9845 163.555 18.768L163.566 18.7795ZM154.665 18.8945C154.665 20.999 155.55 22.172 157.149 22.172C158.609 22.172 159.495 20.953 159.495 18.9405C159.495 16.928 158.609 15.663 157.103 15.663C155.596 15.663 154.665 16.859 154.665 18.8945Z" fill="white"/>
</g>
<defs>
<clipPath id="clip0_1845_64647">
<rect width="164" height="35" fill="white"/>
</clipPath>
</defs>
</svg>
