<svg width="164" height="40" viewBox="0 0 164 40" fill="none" xmlns="http://www.w3.org/2000/svg">
<g clip-path="url(#clip0_2259_52011)">
<path fill-rule="evenodd" clip-rule="evenodd" d="M34.5001 17.2521C34.5001 26.7792 26.777 34.5023 17.2501 34.5023C7.72311 34.5023 0 26.7792 0 17.2521C0 7.72513 7.72311 0.00195312 17.2501 0.00195312C26.777 0.00195312 34.5001 7.72513 34.5001 17.2521ZM11.9782 11.9963C11.3706 11.5413 10.6394 11.2885 9.86697 11.2885V11.2986C7.98231 11.2986 6.4375 12.8053 6.4375 14.666L6.4375 21.5222C6.4375 22.4222 6.79796 23.2615 7.44678 23.8986C8.0853 24.5357 8.95039 24.8896 9.86698 24.8896C10.8351 24.8896 11.7516 24.4851 12.4005 23.7671C13.5127 24.3536 15.5004 25.2638 17.8279 25.7289C17.8588 25.739 17.9515 25.7593 18.0339 25.7694C18.8681 25.9211 19.692 26.002 20.4747 26.002C21.381 26.002 22.246 25.8907 23.0391 25.6784C23.8115 25.4862 24.5427 25.1727 25.2224 24.7682C27.8383 23.1907 28.6931 19.6008 28.3738 16.739C28.0442 13.7559 26.52 11.5211 24.3058 10.7626C23.8629 10.6109 23.4098 10.4896 22.9464 10.4087C22.9309 10.3784 22.9155 10.3505 22.9 10.3227C22.8846 10.2949 22.8691 10.2671 22.8537 10.2368C22.3902 9.39746 21.1441 8.00195 18.1883 8.00195C15.2326 8.00195 13.0905 10.3784 11.9782 11.9963ZM8.56934 21.5121L8.56933 14.6559L8.57963 14.6458C8.57963 14.3121 8.71352 13.9885 8.96069 13.7458C9.19756 13.5031 9.52712 13.3716 9.87727 13.3716C10.2171 13.3716 10.5467 13.5031 10.7939 13.7458C11.041 13.9885 11.1749 14.3121 11.1749 14.6559L11.1749 21.5121C11.1749 21.8458 11.041 22.1694 10.7939 22.4121C10.2995 22.8975 9.44473 22.8975 8.95039 22.4121C8.70322 22.1795 8.56934 21.8559 8.56934 21.5121ZM17.9206 13.9986C18.0442 13.9278 18.1472 13.8368 18.2295 13.7255C18.2933 13.6174 18.3846 13.5001 18.4375 13.4355C18.4904 13.371 18.5488 13.3211 19.1461 12.9671C19.8567 12.5626 20.6497 12.3503 21.5045 12.3503C21.6796 12.3503 21.865 12.3604 22.0504 12.3806C22.5653 12.4312 23.0905 12.5525 23.5952 12.7244C25.0164 13.1997 26.0051 14.7873 26.242 16.9514C26.5303 19.5604 25.6446 22.0379 24.0895 22.9784C23.5849 23.2817 23.0493 23.5143 22.4726 23.6559C21.2883 23.9795 19.9185 23.9896 18.4046 23.7064L18.281 23.6862C16.0771 23.2413 14.1615 22.3211 13.2862 21.8559L13.2862 13.8469C13.7393 13.0682 15.6652 10.0952 18.1678 10.0952C18.9299 10.0952 19.5581 10.2166 20.0421 10.439L19.6714 10.53C19.6096 10.5402 19.5066 10.5705 19.4139 10.6109C19.0019 10.7323 18.5488 10.9143 18.1266 11.1469L18.0442 11.1975L17.9927 11.2278C17.1379 11.7435 16.6538 12.2997 16.5303 12.4615C16.4479 12.5727 16.3861 12.6941 16.3449 12.8256C16.314 12.957 16.2934 13.0885 16.314 13.23C16.3346 13.3716 16.3758 13.5031 16.4479 13.6244C16.52 13.7357 16.6126 13.8469 16.7259 13.9278C16.8495 14.0188 16.9731 14.0795 17.107 14.1098C17.2512 14.1402 17.3953 14.1503 17.5292 14.13C17.6631 14.1199 17.797 14.0694 17.9206 13.9986Z" fill="white"/>
<path d="M57.692 19.2411C57.692 20.5291 57.025 22.1161 56.0705 23.1396C54.702 24.6232 53.0115 25.3132 50.6885 25.3132C45.8355 25.3132 42.9375 22.2081 42.9375 16.9641C42.9375 11.72 45.9735 8.39648 50.6885 8.39648C54.449 8.39648 57.669 11.007 57.669 14.089V14.3305H53.7015C53.391 12.893 52.287 12.0075 50.7805 12.0075C48.561 12.0075 47.1235 13.951 47.1235 16.9641C47.1235 19.9771 48.515 21.7251 50.7115 21.7251C52.264 21.7251 53.437 20.6786 53.7245 19.0456H57.692V19.2411Z" fill="white"/>
<path d="M71.0699 18.7815C71.0699 22.726 68.4824 25.2905 64.5149 25.2905C60.5474 25.2905 58.1094 22.657 58.1094 18.931C58.1094 15.2049 60.7199 12.5254 64.6184 12.5254C68.5169 12.5254 71.0584 14.9864 71.0584 18.77L71.0699 18.7815ZM62.1689 18.8965C62.1689 21.001 63.0544 22.174 64.6529 22.174C66.1134 22.174 66.9989 20.955 66.9989 18.9425C66.9989 16.9299 66.1134 15.6649 64.6069 15.6649C63.1004 15.6649 62.1689 16.8609 62.1689 18.8965Z" fill="white"/>
<path d="M71.9062 12.9043H75.7818V14.6523C76.5983 13.2608 77.7253 12.5938 79.3238 12.5938C80.8303 12.5938 81.8308 13.1688 82.6473 14.5373C83.3948 13.2723 84.6138 12.5938 86.1663 12.5938C88.6043 12.5938 90.0878 14.1233 90.0878 16.6073V24.9564H86.2123V17.9528C86.2123 16.4463 85.7868 15.8023 84.7748 15.8023C83.6478 15.8023 82.9348 16.6878 82.9348 18.1023V24.9449H79.0593V17.6078C79.0593 16.4348 78.5993 15.8368 77.6448 15.8368C76.5178 15.8368 75.7818 16.7223 75.7818 18.0908V24.9334H71.9062V12.9043Z" fill="white"/>
<path d="M91.2188 12.9047H95.0943V14.4342C95.9338 13.2152 97.0608 12.6172 98.5443 12.6172C101.488 12.6172 103.489 15.2277 103.489 19.0803C103.489 22.9328 101.454 25.2558 98.4408 25.2558C97.0838 25.2558 96.2443 24.8303 95.0943 23.5308V29.5569H91.2188V12.9047ZM95.0943 18.8158C95.0943 20.8743 95.8878 21.9783 97.3483 21.9783C98.6133 21.9783 99.4988 20.7593 99.4988 18.9883C99.4988 16.9757 98.6823 15.7567 97.3023 15.7567C95.9223 15.7567 95.0828 16.9067 95.0828 18.8158H95.0943Z" fill="white"/>
<path d="M107.861 25.2439C105.515 25.2439 104.031 23.9329 104.031 21.8514C104.031 20.5403 104.606 19.3673 105.515 18.7693C106.285 18.2863 107.815 17.8378 109.896 17.5273C111.265 17.3318 111.667 17.1018 111.667 16.5498C111.667 15.8138 111.023 15.3538 110.011 15.3538C108.815 15.3538 108.309 15.7333 108.102 16.7223H104.445C104.687 15.1008 105.112 14.3303 106.101 13.5943C107.01 12.9273 108.298 12.5938 110.046 12.5938C113.484 12.5938 115.186 13.7438 115.186 16.0668V22.5299C115.186 23.6799 115.428 24.2779 116.026 24.4964V24.9219H111.978L111.713 23.5074C110.54 24.7954 109.586 25.2094 107.861 25.2094V25.2439ZM110.632 19.6893L109.275 20.0458C108.194 20.3333 107.861 20.6438 107.861 21.3798C107.861 22.2194 108.436 22.7254 109.413 22.7254C110.678 22.7254 111.656 21.7709 111.656 20.5058V19.3328C111.345 19.5053 111.23 19.5283 110.632 19.6893Z" fill="white"/>
<path d="M116.676 12.9047H120.436V14.6987C121.391 13.2382 122.426 12.6172 124.07 12.6172H124.335V16.5157L123.978 16.4927C123.783 16.4697 123.53 16.4697 123.38 16.4697C121.276 16.4697 120.54 17.3782 120.54 19.9658V24.9453H116.664V12.9047H116.676Z" fill="white"/>
<path d="M130.868 25.3138C126.946 25.3138 124.727 23.0597 124.727 19.0232C124.727 14.9866 127.257 12.5371 130.971 12.5371C133.225 12.5371 135.157 13.6181 136.135 15.4811C136.595 16.3437 136.951 18.0687 136.951 19.4257V20.0007H128.729C128.924 21.7257 129.614 22.4847 131.006 22.4847C132.006 22.4847 132.627 22.0822 132.995 21.1967H136.779C136.273 23.8302 134.145 25.3138 130.845 25.3138H130.868ZM133.122 17.6892C133.03 16.2287 132.167 15.3201 130.879 15.3201C129.591 15.3201 128.752 16.2057 128.625 17.6892H133.122Z" fill="white"/>
<path d="M141.529 18.6889L137.412 12.9043H142.196L143.829 15.8943L145.473 12.9043H150.142L145.956 18.7119L150.292 24.9334L145.577 24.9564L143.714 21.6329L141.966 24.9564H137.297L141.529 18.6889Z" fill="white"/>
<path d="M163.562 18.7815C163.562 22.726 160.975 25.2905 157.007 25.2905C153.04 25.2905 150.602 22.657 150.602 18.931C150.602 15.2049 153.212 12.5254 157.111 12.5254C161.009 12.5254 163.551 14.9864 163.551 18.77L163.562 18.7815ZM154.661 18.8965C154.661 21.001 155.547 22.174 157.145 22.174C158.606 22.174 159.491 20.955 159.491 18.9425C159.491 16.9299 158.606 15.6649 157.099 15.6649C155.593 15.6649 154.661 16.8609 154.661 18.8965Z" fill="white"/>
</g>
<defs>
<clipPath id="clip0_2259_52011">
<rect width="164" height="39" fill="white" transform="translate(0 0.00195312)"/>
</clipPath>
</defs>
</svg>
