<svg width="164" height="36" viewBox="0 0 164 36" fill="none" xmlns="http://www.w3.org/2000/svg">
<g clip-path="url(#clip0_2302_21655)">
<path d="M17.2501 34.5014C26.777 34.5014 34.5001 26.7782 34.5001 17.2512C34.5001 7.72415 26.777 0.000976562 17.2501 0.000976562C7.72311 0.000976562 0 7.72415 0 17.2512C0 26.7782 7.72311 34.5014 17.2501 34.5014Z" fill="#0C6FF9"/>
<path d="M9.86307 11.288C10.6355 11.288 11.3667 11.5408 11.9743 11.9958C13.0866 10.3779 15.2287 8.00147 18.1844 8.00147C21.1402 8.00147 22.3863 9.39697 22.8498 10.2363C22.8807 10.297 22.9116 10.3475 22.9425 10.4082C23.4059 10.4891 23.859 10.6105 24.3019 10.7621C26.5161 11.5206 28.0403 13.7554 28.3699 16.7385C28.6891 19.6003 27.8344 23.1902 25.2185 24.7678C24.5388 25.1723 23.8075 25.4857 23.0351 25.6779C22.2421 25.8902 21.377 26.0015 20.4708 26.0015C19.6881 26.0015 18.8642 25.9206 18.03 25.7689C17.9476 25.7588 17.8549 25.7385 17.824 25.7284C15.4965 25.2633 13.5088 24.3532 12.3966 23.7666C11.7477 24.4846 10.8312 24.8891 9.86307 24.8891C8.94648 24.8891 8.08139 24.5352 7.44287 23.8981C6.79405 23.261 6.43359 22.4217 6.43359 21.5217L6.43359 14.6655C6.43359 12.8048 7.9784 11.2981 9.86307 11.2981L9.86307 11.288ZM8.56543 14.6554L8.56543 21.5116C8.56543 21.8554 8.69931 22.179 8.94648 22.4116C9.44082 22.897 10.2956 22.897 10.79 22.4116C11.0371 22.1689 11.171 21.8453 11.171 21.5116L11.171 14.6554C11.171 14.3116 11.0371 13.988 10.79 13.7453C10.5428 13.5026 10.2132 13.3711 9.87337 13.3711C9.52321 13.3711 9.19365 13.5026 8.95678 13.7453C8.70961 13.988 8.57573 14.3116 8.57573 14.6453L8.56543 14.6554ZM18.2256 13.7251C18.1432 13.8363 18.0403 13.9273 17.9167 13.9981C17.7931 14.0689 17.6592 14.1194 17.5253 14.1296C17.3914 14.1498 17.2473 14.1397 17.1031 14.1093C16.9692 14.079 16.8456 14.0183 16.722 13.9273C16.6087 13.8464 16.516 13.7352 16.444 13.6239C16.3719 13.5026 16.3307 13.3711 16.3101 13.2296C16.2895 13.088 16.3101 12.9565 16.341 12.8251C16.3822 12.6936 16.444 12.5723 16.5263 12.461C16.6499 12.2992 17.134 11.743 17.9888 11.2273L18.0403 11.197L18.1226 11.1464C18.5449 10.9138 18.998 10.7318 19.41 10.6105C19.5027 10.57 19.6057 10.5397 19.6675 10.5296C19.791 10.4992 19.9146 10.4689 20.0382 10.4385C19.5542 10.2161 18.926 10.0947 18.1638 10.0947C15.6613 10.0947 13.7354 13.0678 13.2822 13.8464L13.2822 21.8554C14.1576 22.3206 16.0732 23.2408 18.2771 23.6857L18.4007 23.706C19.9146 23.9891 21.2844 23.979 22.4687 23.6554C23.0454 23.5138 23.581 23.2812 24.0856 22.9779C25.6407 22.0374 26.5264 19.5599 26.238 16.9509C26.0012 14.7869 25.0125 13.1992 23.5913 12.7239C23.0866 12.552 22.5614 12.4307 22.0465 12.3801C21.8611 12.3599 21.6757 12.3498 21.5006 12.3498C20.6458 12.3498 19.8528 12.5621 19.1422 12.9666C18.5449 13.3206 18.4865 13.3705 18.4336 13.4351C18.3807 13.4997 18.2894 13.6169 18.2256 13.7251Z" fill="white"/>
<path d="M57.6959 19.2411C57.6959 20.5291 57.0289 22.1161 56.0744 23.1396C54.7059 24.6232 53.0154 25.3132 50.6924 25.3132C45.8394 25.3132 42.9414 22.2081 42.9414 16.9641C42.9414 11.72 45.9774 8.39648 50.6924 8.39648C54.4529 8.39648 57.6729 11.007 57.6729 14.089V14.3305H53.7054C53.3949 12.893 52.2909 12.0075 50.7844 12.0075C48.5649 12.0075 47.1274 13.951 47.1274 16.9641C47.1274 19.9771 48.5189 21.7251 50.7154 21.7251C52.2679 21.7251 53.4409 20.6786 53.7284 19.0456H57.6959V19.2411Z" fill="black"/>
<path d="M71.0738 18.781C71.0738 22.7255 68.4863 25.29 64.5188 25.29C60.5513 25.29 58.1133 22.6565 58.1133 18.9305C58.1133 15.2044 60.7238 12.5249 64.6223 12.5249C68.5208 12.5249 71.0623 14.9859 71.0623 18.7695L71.0738 18.781ZM62.1728 18.896C62.1728 21.0005 63.0583 22.1735 64.6568 22.1735C66.1173 22.1735 67.0028 20.9545 67.0028 18.942C67.0028 16.9294 66.1173 15.6644 64.6108 15.6644C63.1043 15.6644 62.1728 16.8604 62.1728 18.896Z" fill="black"/>
<path d="M71.9102 12.9043H75.7857V14.6523C76.6022 13.2608 77.7292 12.5938 79.3277 12.5938C80.8342 12.5938 81.8347 13.1688 82.6512 14.5373C83.3987 13.2723 84.6177 12.5938 86.1702 12.5938C88.6082 12.5938 90.0917 14.1233 90.0917 16.6073V24.9564H86.2162V17.9528C86.2162 16.4463 85.7907 15.8023 84.7787 15.8023C83.6517 15.8023 82.9387 16.6878 82.9387 18.1023V24.9449H79.0632V17.6078C79.0632 16.4348 78.6032 15.8368 77.6487 15.8368C76.5217 15.8368 75.7857 16.7223 75.7857 18.0908V24.9334H71.9102V12.9043Z" fill="black"/>
<path d="M91.2266 12.9042H95.1021V14.4337C95.9416 13.2147 97.0686 12.6167 98.5521 12.6167C101.496 12.6167 103.497 15.2272 103.497 19.0798C103.497 22.9323 101.462 25.2553 98.4486 25.2553C97.0916 25.2553 96.2521 24.8298 95.1021 23.5303V29.5564H91.2266V12.9042ZM95.1021 18.8153C95.1021 20.8738 95.8956 21.9778 97.3561 21.9778C98.6211 21.9778 99.5066 20.7588 99.5066 18.9878C99.5066 16.9752 98.6901 15.7562 97.3101 15.7562C95.9301 15.7562 95.0906 16.9062 95.0906 18.8153H95.1021Z" fill="black"/>
<path d="M107.861 25.2439C105.515 25.2439 104.031 23.9329 104.031 21.8514C104.031 20.5403 104.606 19.3673 105.515 18.7693C106.285 18.2863 107.815 17.8378 109.896 17.5273C111.265 17.3318 111.667 17.1018 111.667 16.5498C111.667 15.8138 111.023 15.3538 110.011 15.3538C108.815 15.3538 108.309 15.7333 108.102 16.7223H104.445C104.687 15.1008 105.112 14.3303 106.101 13.5943C107.01 12.9273 108.298 12.5938 110.046 12.5938C113.484 12.5938 115.186 13.7438 115.186 16.0668V22.5299C115.186 23.6799 115.428 24.2779 116.026 24.4964V24.9219H111.978L111.713 23.5074C110.54 24.7954 109.586 25.2094 107.861 25.2094V25.2439ZM110.632 19.6893L109.275 20.0458C108.194 20.3333 107.861 20.6438 107.861 21.3798C107.861 22.2194 108.436 22.7254 109.413 22.7254C110.678 22.7254 111.656 21.7709 111.656 20.5058V19.3328C111.345 19.5053 111.23 19.5283 110.632 19.6893Z" fill="black"/>
<path d="M116.679 12.9042H120.44V14.6982C121.394 13.2377 122.429 12.6167 124.074 12.6167H124.338V16.5152L123.982 16.4922C123.786 16.4692 123.533 16.4692 123.384 16.4692C121.279 16.4692 120.543 17.3778 120.543 19.9653V24.9448H116.668V12.9042H116.679Z" fill="black"/>
<path d="M130.871 25.3133C126.95 25.3133 124.73 23.0592 124.73 19.0227C124.73 14.9861 127.26 12.5366 130.975 12.5366C133.229 12.5366 135.161 13.6176 136.139 15.4807C136.599 16.3432 136.955 18.0682 136.955 19.4252V20.0002H128.732C128.928 21.7252 129.618 22.4842 131.009 22.4842C132.01 22.4842 132.631 22.0817 132.999 21.1962H136.783C136.276 23.8297 134.149 25.3133 130.848 25.3133H130.871ZM133.125 17.6887C133.033 16.2282 132.171 15.3197 130.883 15.3197C129.595 15.3197 128.755 16.2052 128.629 17.6887H133.125Z" fill="black"/>
<path d="M141.533 18.6889L137.416 12.9043H142.2L143.833 15.8943L145.477 12.9043H150.146L145.96 18.7119L150.296 24.9334L145.581 24.9564L143.718 21.6329L141.97 24.9564H137.301L141.533 18.6889Z" fill="black"/>
<path d="M163.566 18.781C163.566 22.7255 160.978 25.29 157.011 25.29C153.043 25.29 150.605 22.6565 150.605 18.9305C150.605 15.2044 153.216 12.5249 157.114 12.5249C161.013 12.5249 163.555 14.9859 163.555 18.7695L163.566 18.781ZM154.665 18.896C154.665 21.0005 155.55 22.1735 157.149 22.1735C158.609 22.1735 159.495 20.9545 159.495 18.942C159.495 16.9294 158.609 15.6644 157.103 15.6644C155.596 15.6644 154.665 16.8604 154.665 18.896Z" fill="black"/>
</g>
<defs>
<clipPath id="clip0_2302_21655">
<rect width="164" height="35" fill="white" transform="translate(0 0.00146484)"/>
</clipPath>
</defs>
</svg>
