<svg width="167" height="32" viewBox="0 0 167 32" fill="none" xmlns="http://www.w3.org/2000/svg">
<path d="M78.1031 27.0004H81.4031L86.0031 9.90039V27.0004H89.7031V4.40039H84.6031L80.0031 21.0004L75.4031 4.40039H70.2031V27.0004H73.4031V9.90039L78.1031 27.0004ZM105.203 15.8004C105.203 11.8004 103.203 10.3004 99.1031 10.3004C96.5031 10.3004 94.5031 11.1004 93.3031 11.8004V15.0004C94.3031 14.2004 96.6031 13.4004 98.6031 13.4004C100.503 13.4004 101.303 14.1004 101.303 15.8004V16.7004H100.703C94.8031 16.7004 92.1031 18.7004 92.1031 22.0004C92.1031 25.3004 94.1031 27.2004 97.1031 27.2004C99.4031 27.2004 100.403 26.5004 101.103 25.7004H101.303C101.303 26.1004 101.503 26.7004 101.603 27.0004H105.403C105.303 25.7004 105.203 24.3004 105.203 23.0004V15.8004ZM101.303 23.1004C100.803 23.8004 99.9031 24.4004 98.5031 24.4004C96.9031 24.4004 96.1031 23.4004 96.1031 22.0004C96.1031 20.1004 97.4031 19.4004 100.803 19.4004H101.403V23.1004H101.303ZM111.903 10.6004H108.303V31.7004H112.203V25.1004C113.203 26.6004 114.603 27.3004 116.303 27.3004C120.103 27.3004 122.703 24.3004 122.703 18.8004C122.703 13.3004 120.203 10.3004 116.503 10.3004C114.703 10.3004 113.203 11.1004 112.103 12.7004L111.903 10.6004ZM115.203 24.3004C113.203 24.3004 112.103 22.6004 112.103 18.9004C112.103 15.1004 113.203 13.4004 115.403 13.4004C117.503 13.4004 118.603 15.1004 118.603 18.8004C118.603 22.6004 117.503 24.3004 115.203 24.3004ZM134.803 27.0004H139.203L133.003 18.2004L138.503 10.6004H134.603L129.103 18.2004V10.6004H125.203V27.0004H129.103V19.0004L134.803 27.0004ZM152.203 25.9004V22.7004C151.003 23.5004 149.003 24.2004 147.103 24.2004C144.303 24.2004 143.203 22.9004 143.003 20.1004H152.303V18.0004C152.303 12.3004 149.803 10.2004 145.903 10.2004C141.203 10.2004 138.903 13.8004 138.903 18.8004C138.903 24.5004 141.703 27.3004 146.603 27.3004C149.303 27.3004 151.103 26.7004 152.203 25.9004ZM145.903 13.4004C147.803 13.4004 148.403 15.0004 148.403 17.0004V17.3004H143.003C143.103 14.7004 144.103 13.4004 145.903 13.4004ZM166.203 13.7004V10.6004H153.203V13.7004H157.803V27.0004H161.703V13.7004H166.203Z" fill="black"/>
<path d="M47.1027 31C55.4027 31 62.1027 24.3 62.1027 16C62.1027 7.7 55.4027 1 47.1027 1C38.8027 1 32.1027 7.7 32.1027 16C32.0027 24.3 38.8027 31 47.1027 31Z" fill="#FED42B"/>
<path d="M15 31C23.2843 31 30 24.2843 30 16C30 7.71573 23.2843 1 15 1C6.71573 1 0 7.71573 0 16C0 24.2843 6.71573 31 15 31Z" fill="#FC3F1D"/>
<path d="M17.1969 9.4H15.6969C13.0969 9.4 11.7969 10.7 11.7969 12.7C11.7969 14.9 12.6969 16 14.5969 17.3L16.0969 18.4L11.7969 25.1H8.29688L12.3969 19C9.99687 17.3 8.69687 15.7 8.69687 12.9C8.69687 9.4 11.0969 7 15.6969 7H20.2969V25H17.2969V9.4H17.1969Z" fill="white"/>
<mask id="mask0_1563_60582" style="mask-type:luminance" maskUnits="userSpaceOnUse" x="32" y="1" width="31" height="30">
<path d="M47.1027 31C55.4027 31 62.1027 24.3 62.1027 16C62.1027 7.7 55.4027 1 47.1027 1C38.8027 1 32.1027 7.7 32.1027 16C32.0027 24.3 38.8027 31 47.1027 31Z" fill="white"/>
</mask>
<g mask="url(#mask0_1563_60582)">
<path d="M39.7 9.19961L26.5 26.4996L30 30.4996L39.8 17.4996L38.8 24.5996L44.3 26.4996L51 15.7996C50.7 17.7996 50.2 22.3996 54.6 23.7996C61.5 25.8996 67.5 13.4996 70.3 7.19961L66.3 5.09961C63.2 11.5996 58.4 18.7996 56.5 18.2996C54.6 17.7996 56.3 11.6996 57.4 7.79961V7.69961L51.3 5.59961L44 17.4996L45 10.9996L39.7 9.19961Z" fill="black"/>
</g>
</svg>
