<svg width="44" height="45" viewBox="0 0 44 45" fill="none" xmlns="http://www.w3.org/2000/svg">
<path d="M13.1376 33.0748L13.1376 33.0748L13.1434 33.0709C13.9489 32.5272 15.1155 32.6225 15.7577 33.1833L15.7835 33.2058L15.81 33.2276L16.5015 33.7971C19.0156 35.938 22.9378 35.9323 25.4443 33.78C25.4444 33.7799 25.4445 33.7798 25.4446 33.7797C25.4448 33.7796 25.4449 33.7794 25.4451 33.7793L34.111 26.3425L34.1118 26.3418C34.8484 25.7091 36.1608 25.7091 36.8973 26.3418L36.8974 26.3419L39.4672 28.549V32.231C39.4672 35.5512 38.4867 37.917 36.9532 39.4505C35.4198 40.9839 33.0539 41.9644 29.7337 41.9644H12.2754C8.634 41.9644 6.08582 40.7945 4.52463 38.8518L13.1376 33.0748Z" fill="#0C6FF9" stroke="#0C6FF9" stroke-width="4.74138"/>
<path d="M39.6898 15.168H33.5648C30.9189 15.168 29.3356 13.5846 29.3356 10.9388V4.8138C29.3356 3.98047 29.5023 3.27214 29.7939 2.66797H12.2731C4.68978 2.66797 0.168945 7.1888 0.168945 14.7721V32.2305C0.168945 34.5013 0.564779 36.4805 1.33561 38.1471L1.56478 37.9805L11.8148 31.1055C13.4814 29.9805 15.8356 30.1055 17.3148 31.3971L18.0231 31.9805C19.6481 33.3763 22.2731 33.3763 23.8981 31.9805L32.5648 24.543C34.1898 23.1471 36.8148 23.1471 38.4398 24.543L41.8356 27.4596V14.7096C41.2314 15.0013 40.5231 15.168 39.6898 15.168Z" fill="#0C6FF9" fill-opacity="0.15"/>
<path d="M14.7533 20.1266C16.0683 20.1266 17.3295 19.6042 18.2593 18.6744C19.1892 17.7445 19.7116 16.4833 19.7116 15.1683C19.7116 13.8533 19.1892 12.5921 18.2593 11.6622C17.3295 10.7324 16.0683 10.21 14.7533 10.21C13.4382 10.21 12.1771 10.7324 11.2472 11.6622C10.3173 12.5921 9.79492 13.8533 9.79492 15.1683C9.79492 16.4833 10.3173 17.7445 11.2472 18.6744C12.1771 19.6042 13.4382 20.1266 14.7533 20.1266ZM39.6908 15.1683H33.5658C30.9199 15.1683 29.3366 13.585 29.3366 10.9391V4.81413C29.3366 2.16829 30.9199 0.584961 33.5658 0.584961H39.6908C42.3366 0.584961 43.9199 2.16829 43.9199 4.81413V10.9391C43.9199 13.585 42.3366 15.1683 39.6908 15.1683ZM40.1491 8.27246C39.8991 8.02246 39.5658 7.89746 39.2324 7.89746C38.8991 7.89746 38.5658 8.02246 38.3158 8.27246L37.9408 8.64746V3.98079C37.9408 3.25163 37.3574 2.66829 36.6283 2.66829C35.8991 2.66829 35.3158 3.25163 35.3158 3.98079V8.64746L34.9408 8.27246C34.4408 7.77246 33.6074 7.77246 33.1074 8.27246C32.6074 8.77246 32.6074 9.60579 33.1074 10.1058L35.7116 12.71C35.8158 12.8141 35.9616 12.8975 36.1074 12.96C36.1491 12.9808 36.1908 12.9808 36.2324 13.0016C36.3366 13.0433 36.4408 13.0641 36.5658 13.0641H36.6908C36.8366 13.0641 36.9616 13.0433 37.1074 12.9808H37.1491C37.2949 12.9183 37.4199 12.835 37.5241 12.7308C37.5449 12.71 37.5449 12.71 37.5658 12.71L40.1699 10.1058C40.6699 9.60579 40.6699 8.77246 40.1491 8.27246Z" fill="#0C6FF9"/>
</svg>
